<svg width="126" height="127" viewBox="0 0 126 127" fill="none" xmlns="http://www.w3.org/2000/svg">
<path d="M57.308 19.4481C58.8097 18.8628 60.0597 17.7712 60.8419 16.362C61.6241 14.9527 61.8892 13.3145 61.5915 11.7305C61.2937 10.1464 60.4518 8.71627 59.2113 7.68723C57.9708 6.65818 56.4097 6.09497 54.798 6.09497C53.1862 6.09497 51.6251 6.65818 50.3846 7.68723C49.1441 8.71627 48.3022 10.1464 48.0045 11.7305C47.7067 13.3145 47.9719 14.9527 48.754 16.362C49.5362 17.7712 50.7862 18.8628 52.288 19.4481C41.6612 20.9535 42.1497 31.7953 42.1497 31.7953L67.2742 31.9028C67.2742 31.9028 67.8426 20.9442 57.308 19.4481Z" fill="#EBEBEB"/>
<path d="M73.298 30.1766C73.3385 26.1047 70.0703 22.7708 65.9984 22.7303C61.9264 22.6898 58.5926 25.958 58.5521 30.0299C58.5116 34.1019 61.7797 37.4357 65.8517 37.4762C69.9236 37.5167 73.2575 34.2486 73.298 30.1766Z" fill="#E0E0E0"/>
<path d="M73.2434 30.8922C73.2393 30.8523 73.2393 30.8122 73.2434 30.7723C73.2434 30.6863 73.2434 30.5696 73.2434 30.4221C73.2434 30.3422 73.2434 30.2562 73.2434 30.164C73.2434 30.0688 73.2434 29.9643 73.2434 29.8568C73.2374 29.5983 73.2127 29.3406 73.1697 29.0857C73.0675 28.3829 72.8603 27.6994 72.5553 27.058C72.1602 26.2074 71.6066 25.44 70.9239 24.7969C70.0368 23.9576 68.9528 23.3548 67.7718 23.0439C66.5907 22.7331 65.3505 22.7242 64.1651 23.0181C63.8275 23.0972 63.4959 23.1998 63.1728 23.3253C62.8446 23.4617 62.5264 23.6208 62.2204 23.8015C61.5836 24.1645 61.0099 24.6283 60.5214 25.1748C60.0059 25.7328 59.5827 26.3696 59.268 27.0611C58.6099 28.4926 58.4363 30.0996 58.7734 31.6387C58.9321 32.3816 59.209 33.0942 59.5936 33.7493C59.7784 34.0694 59.9837 34.3773 60.2081 34.671C60.4393 34.9502 60.6887 35.214 60.9546 35.4605C61.2138 35.7022 61.49 35.925 61.781 36.1272C62.0689 36.3207 62.3696 36.4941 62.6812 36.6464C63.8533 37.2219 65.1578 37.4743 66.46 37.3776C67.5944 37.2943 68.6933 36.9449 69.6674 36.3576C70.4734 35.8757 71.1794 35.2437 71.7473 34.4958C72.1795 33.9366 72.5244 33.3151 72.7703 32.6525C72.8676 32.413 72.9466 32.1666 73.0069 31.9152C73.0376 31.8046 73.0683 31.7063 73.0868 31.608C73.1052 31.5097 73.1205 31.4298 73.1328 31.353C73.1605 31.2086 73.1789 31.0949 73.1973 31.0089C73.2012 30.9692 73.2094 30.93 73.2219 30.8922C73.226 30.932 73.226 30.9721 73.2219 31.012L73.1728 31.3591L73.1359 31.6172C73.1175 31.7094 73.0898 31.8107 73.0622 31.9244C73.0058 32.1794 72.9308 32.43 72.8379 32.674C72.6004 33.3493 72.2594 33.9836 71.8271 34.5542C71.1971 35.399 70.3947 36.1002 69.4731 36.6114C68.5515 37.1225 67.5318 37.4318 66.4815 37.5189C65.1585 37.6163 63.8333 37.3608 62.6413 36.7785C62.3229 36.6236 62.0151 36.4481 61.7196 36.2532C61.4229 36.0451 61.1407 35.8172 60.8747 35.5711C60.602 35.3203 60.3464 35.0514 60.1098 34.7662C59.879 34.4731 59.6676 34.1652 59.4769 33.8445C59.0835 33.1771 58.7993 32.4511 58.6351 31.694C58.2891 30.1218 58.4671 28.4796 59.142 27.0181C59.4627 26.3106 59.8964 25.66 60.4262 25.0918C60.681 24.8139 60.954 24.5532 61.2434 24.3115C61.5376 24.0878 61.8454 23.8825 62.1651 23.6971C62.7815 23.3295 63.4509 23.059 64.1497 22.8952C65.4429 22.5818 66.7964 22.62 68.0698 23.0058C69.0779 23.3137 70.0087 23.833 70.8002 24.5292C71.5917 25.2253 72.2256 26.0822 72.6597 27.0427C72.9593 27.6937 73.1572 28.3869 73.2465 29.098C73.285 29.3553 73.3045 29.6151 73.3049 29.8753C73.3049 29.9889 73.3049 30.0934 73.3049 30.1825C73.3049 30.2716 73.3049 30.3637 73.2864 30.4405C73.2742 30.588 73.2649 30.7047 73.2588 30.7908C73.257 30.825 73.2519 30.8589 73.2434 30.8922Z" fill="white"/>
<path d="M65.3879 33.531L61.566 30.3267L62.6843 28.9934L65.2465 31.1408L69.182 26.9626L70.4478 28.1547L65.3879 33.531Z" fill="white"/>
<path d="M76.5554 18.6033C75.9922 19.2857 75.3879 19.9331 74.7458 20.5418C74.1429 21.1949 73.5007 21.8105 72.8226 22.3852C73.3869 21.7037 73.9911 21.0563 74.6322 20.4466C75.236 19.7944 75.8782 19.1789 76.5554 18.6033Z" fill="#E0E0E0"/>
<path d="M83.136 24.1116C83.0392 24.1715 82.9362 24.2209 82.8288 24.259C82.6261 24.3481 82.3281 24.4649 81.9563 24.6001C81.2159 24.8766 80.1806 25.2145 79.0193 25.5432C77.858 25.8719 76.7889 26.0993 76.0116 26.2468C75.6245 26.3174 75.3081 26.3727 75.0899 26.4004C74.9767 26.4235 74.8614 26.4348 74.7458 26.4342C74.8515 26.3872 74.9632 26.3551 75.0777 26.3389L75.9993 26.1362C76.7704 25.961 77.8273 25.7091 78.9886 25.3896C80.1499 25.0701 81.1852 24.7414 81.9317 24.4956L82.8196 24.1884C82.9219 24.1511 83.028 24.1253 83.136 24.1116Z" fill="#E0E0E0"/>
<path d="M79.3848 34.2898C78.6036 33.9455 77.8452 33.5515 77.1144 33.1101C76.3564 32.716 75.6238 32.2748 74.9209 31.7891C75.7019 32.1371 76.4611 32.532 77.1943 32.9719C77.9512 33.3652 78.6828 33.8054 79.3848 34.2898Z" fill="#E0E0E0"/>
<path d="M68.1713 14.809C68.6876 14.6074 69.1173 14.2317 69.3861 13.7469C69.6549 13.2621 69.7459 12.6987 69.6433 12.1539C69.5407 11.6092 69.2511 11.1174 68.8244 10.7636C68.3977 10.4097 67.8608 10.2161 67.3065 10.2161C66.7521 10.2161 66.2152 10.4097 65.7886 10.7636C65.3619 11.1174 65.0722 11.6092 64.9696 12.1539C64.8671 12.6987 64.958 13.2621 65.2268 13.7469C65.4956 14.2317 65.9253 14.6074 66.4416 14.809C62.7888 15.3251 62.9485 19.0517 62.9485 19.0517L71.5876 19.0886C71.5876 19.0886 71.7934 15.3221 68.1713 14.809Z" fill="#EBEBEB"/>
<path d="M85.7071 98.5542H40.8375C39.1374 98.5542 37.7592 99.9324 37.7592 101.633V116.004C37.7592 117.704 39.1374 119.083 40.8375 119.083H85.7071C87.4072 119.083 88.7854 117.704 88.7854 116.004V101.633C88.7854 99.9324 87.4072 98.5542 85.7071 98.5542Z" fill="white"/>
<path d="M85.7101 119.083H85.7992C85.8576 119.083 85.9467 119.083 86.0634 119.061C86.4091 119.015 86.7445 118.911 87.0557 118.754C87.561 118.504 87.9865 118.117 88.2846 117.639C88.4773 117.336 88.6137 117.001 88.6871 116.65C88.7533 116.243 88.7749 115.831 88.7516 115.421C88.7516 113.679 88.7516 111.544 88.7516 109.067C88.7516 107.838 88.7516 106.516 88.7516 105.101C88.7516 104.398 88.7516 103.676 88.7516 102.935V101.808C88.7634 101.428 88.7115 101.049 88.598 100.686C88.409 100.119 88.0564 99.6209 87.5846 99.2541C87.1127 98.8872 86.5428 98.6683 85.9467 98.6249C85.5412 98.6034 85.111 98.6249 84.6901 98.6249H79.3845H67.6793H40.859C40.2795 98.6262 39.7127 98.7947 39.2265 99.1103C38.7404 99.4258 38.3557 99.8749 38.1186 100.404C38.0028 100.665 37.9252 100.941 37.8882 101.224C37.8609 101.512 37.8506 101.801 37.8575 102.09V115.654C37.8188 116.187 37.9073 116.722 38.1155 117.215C38.3293 117.692 38.6634 118.105 39.0851 118.415C39.5068 118.724 40.0017 118.918 40.5211 118.978C40.7761 119.003 41.0372 119 41.3014 119H43.6424L65.5472 119.018L80.3153 119.043L84.3276 119.058L80.3153 119.073L65.5472 119.098L43.6424 119.117H41.3014C41.036 119.124 40.7705 119.118 40.5057 119.098C39.9603 119.036 39.4402 118.834 38.9965 118.511C38.5528 118.188 38.2005 117.755 37.9742 117.255C37.76 116.742 37.6664 116.187 37.7008 115.633V102.1C37.6902 101.804 37.6994 101.509 37.7284 101.215C37.7683 100.916 37.8511 100.624 37.9742 100.348C38.2228 99.7909 38.6275 99.3172 39.1394 98.9846C39.6513 98.6521 40.2486 98.4749 40.859 98.4744H67.6793H79.3845H84.6901C85.1172 98.4744 85.5319 98.4744 85.9559 98.4744C86.5755 98.5195 87.1677 98.7481 87.6568 99.1311C88.146 99.5142 88.51 100.034 88.7025 100.625C88.8203 100.998 88.8743 101.389 88.8622 101.78C88.8622 102.161 88.8622 102.536 88.8622 102.908C88.8622 103.648 88.8622 104.37 88.8622 105.073C88.8622 106.478 88.8622 107.801 88.8622 109.04C88.8622 111.516 88.8622 113.648 88.8622 115.393C88.8802 115.804 88.8555 116.216 88.7885 116.622C88.713 116.98 88.5713 117.321 88.3706 117.626C88.0636 118.11 87.6273 118.499 87.111 118.748C86.7963 118.901 86.4574 118.997 86.1095 119.034C85.8299 119.086 85.7101 119.083 85.7101 119.083Z" fill="#263238"/>
<path d="M81.535 113.252C80.7888 113.252 80.0594 113.03 79.439 112.616C78.8186 112.201 78.335 111.612 78.0495 110.923C77.764 110.233 77.6893 109.475 77.8348 108.743C77.9804 108.011 78.3397 107.339 78.8673 106.811C79.3949 106.284 80.0672 105.924 80.799 105.779C81.5308 105.633 82.2894 105.708 82.9787 105.993C83.6681 106.279 84.2573 106.763 84.6719 107.383C85.0864 108.003 85.3077 108.733 85.3077 109.479C85.306 110.479 84.908 111.438 84.2009 112.145C83.4937 112.852 82.5351 113.25 81.535 113.252ZM81.535 106.321C80.9104 106.321 80.2997 106.506 79.7804 106.853C79.261 107.2 78.8562 107.693 78.6172 108.27C78.3781 108.847 78.3156 109.482 78.4375 110.095C78.5593 110.708 78.8601 111.27 79.3018 111.712C79.7435 112.154 80.3062 112.455 80.9189 112.577C81.5315 112.698 82.1665 112.636 82.7436 112.397C83.3207 112.158 83.8139 111.753 84.161 111.234C84.508 110.714 84.6932 110.104 84.6932 109.479C84.6908 108.643 84.3571 107.841 83.7651 107.251C83.1732 106.66 82.3713 106.328 81.535 106.327V106.321Z" fill="#28C76F"/>
<path d="M73.5289 112.054H60.4935C60.2193 112.054 59.9477 112 59.6943 111.896C59.4408 111.791 59.2105 111.637 59.0165 111.444C58.8225 111.25 58.6685 111.02 58.5635 110.767C58.4585 110.513 58.4044 110.242 58.4044 109.968C58.404 109.693 58.4578 109.421 58.5626 109.168C58.6675 108.914 58.8213 108.683 59.0154 108.489C59.2095 108.295 59.4399 108.141 59.6936 108.037C59.9472 107.932 60.2191 107.878 60.4935 107.878H73.5289C74.0829 107.878 74.6143 108.099 75.0061 108.49C75.3979 108.882 75.618 109.413 75.618 109.968C75.6172 110.521 75.3967 111.052 75.005 111.443C74.6133 111.834 74.0824 112.054 73.5289 112.054Z" fill="#E0E0E0"/>
<path d="M51.1301 116.838C55.2335 115.471 57.4521 111.037 56.0855 106.934C54.7189 102.83 50.2846 100.612 46.1812 101.978C42.0778 103.345 39.8592 107.779 41.2258 111.882C42.5924 115.986 47.0267 118.204 51.1301 116.838Z" fill="white"/>
<path d="M56.4689 109.918C56.4689 109.918 56.4689 109.875 56.4689 109.789V109.144C56.4689 109.043 56.4505 108.932 56.4412 108.815C56.4244 108.541 56.3874 108.268 56.3306 107.998C56.1943 107.256 55.9467 106.538 55.5964 105.869C55.0908 104.888 54.3832 104.025 53.5201 103.336C52.657 102.648 51.658 102.15 50.5887 101.875C50.2675 101.794 49.9411 101.734 49.6117 101.697C49.4458 101.682 49.2799 101.654 49.1079 101.645H48.5918C48.5057 101.645 48.4197 101.645 48.3337 101.645L48.0726 101.669C47.8974 101.685 47.7193 101.694 47.5441 101.719C46.8221 101.832 46.1177 102.038 45.4489 102.333C45.2799 102.41 45.114 102.502 44.9481 102.588C44.7781 102.675 44.6139 102.772 44.4566 102.88C44.1356 103.091 43.8278 103.322 43.5349 103.571C43.244 103.837 42.971 104.121 42.7177 104.422C42.1934 105.039 41.7722 105.736 41.4704 106.487C40.8382 108.041 40.7303 109.759 41.1632 111.381C41.3665 112.164 41.6932 112.909 42.1309 113.59C42.3452 113.921 42.5802 114.238 42.8344 114.539C43.0924 114.826 43.3696 115.095 43.6639 115.344C43.8051 115.472 43.955 115.59 44.1125 115.697C44.2692 115.805 44.4197 115.918 44.5764 116.004C44.8914 116.198 45.2199 116.368 45.5595 116.514C45.8893 116.659 46.2279 116.784 46.5733 116.886C46.7454 116.935 46.9205 116.966 47.0895 117.006L47.3475 117.061C47.4329 117.077 47.519 117.088 47.6056 117.095L48.1156 117.156C48.2876 117.156 48.4566 117.156 48.6256 117.156C48.956 117.163 49.2866 117.147 49.6148 117.107C50.711 116.974 51.7664 116.61 52.7117 116.039C53.6569 115.468 54.4704 114.704 55.0987 113.795C55.5325 113.178 55.8702 112.499 56.1002 111.78C56.1921 111.521 56.264 111.255 56.3153 110.984C56.3429 110.868 56.3706 110.763 56.3859 110.662C56.4013 110.56 56.4105 110.471 56.4228 110.391C56.4443 110.232 56.4597 110.109 56.472 110.023C56.4843 109.937 56.4904 109.897 56.4904 109.897C56.4904 109.897 56.4904 109.94 56.4904 110.023C56.4904 110.106 56.4689 110.235 56.4535 110.395C56.4535 110.477 56.4351 110.567 56.4228 110.668C56.4105 110.769 56.3829 110.877 56.3583 110.994C56.3098 111.266 56.241 111.534 56.1525 111.795C55.9276 112.521 55.5941 113.209 55.1632 113.835C54.5334 114.758 53.7147 115.537 52.7614 116.119C51.808 116.702 50.7418 117.075 49.6332 117.215C49.301 117.256 48.9663 117.273 48.6317 117.267C48.4627 117.267 48.2907 117.267 48.1186 117.267L47.5994 117.209C47.5134 117.209 47.4243 117.193 47.3383 117.175L47.0772 117.12C46.9051 117.077 46.7269 117.046 46.5549 117C46.2032 116.897 45.8584 116.772 45.5226 116.625C45.1788 116.475 44.8453 116.303 44.5242 116.109C44.3644 116.007 44.2169 115.891 44.0541 115.783C43.894 115.676 43.742 115.557 43.5994 115.427C42.9862 114.923 42.4599 114.322 42.0418 113.648C41.5936 112.959 41.2606 112.201 41.0556 111.405C40.8472 110.585 40.7643 109.738 40.8099 108.892C40.8758 108.049 41.0673 107.221 41.3782 106.434C41.6847 105.672 42.1133 104.964 42.647 104.339C42.9039 104.032 43.1821 103.744 43.4796 103.476C43.7782 103.222 44.0933 102.988 44.4228 102.775C44.5814 102.662 44.7477 102.559 44.9205 102.468C45.0894 102.382 45.2553 102.287 45.4274 102.21C45.7705 102.058 46.1236 101.93 46.4842 101.826C46.8361 101.724 47.1942 101.645 47.5564 101.59C47.7346 101.565 47.9128 101.556 48.091 101.537L48.3552 101.516C48.4443 101.516 48.5334 101.516 48.6194 101.516H49.1417C49.3137 101.516 49.4858 101.553 49.6547 101.571C49.9872 101.609 50.3166 101.67 50.6409 101.752C51.7213 102.034 52.7296 102.542 53.5992 103.242C54.4688 103.942 55.1799 104.819 55.6855 105.814C56.0346 106.489 56.2771 107.215 56.4044 107.964C56.4583 108.236 56.4922 108.511 56.5058 108.788C56.5058 108.908 56.5242 109.018 56.5273 109.12V109.393C56.5273 109.553 56.5273 109.679 56.5273 109.768C56.5273 109.857 56.4689 109.918 56.4689 109.918Z" fill="#263238"/>
<path d="M42.0387 113.467L45.4857 112.422L51.0894 113.285L54.8529 114.124C54.1273 115.081 53.1881 115.856 52.11 116.385C51.032 116.915 49.845 117.185 48.6439 117.175C46.8128 117.162 45.0436 116.51 43.6424 115.331C43.0056 114.806 42.4633 114.175 42.0387 113.467Z" fill="#28C76F"/>
<path d="M53.0925 109.249C53.0741 108.195 52.8621 106.032 52.647 104.075C52.5355 103.06 52.0458 102.125 51.2755 101.454C50.5053 100.784 49.5109 100.429 48.4903 100.459H48.2814C46.0172 100.656 44.9235 102.689 45.1846 104.944L45.6731 112.779L48.8099 114.776L50.9819 113.854L50.9604 111.811C50.9604 111.811 53.1294 111.427 53.0925 109.249Z" fill="#FFBF9D"/>
<path d="M51.8882 106.183C51.8924 106.264 51.8644 106.343 51.8103 106.403C51.7562 106.464 51.6804 106.5 51.5994 106.505C51.5198 106.511 51.441 106.486 51.3797 106.435C51.3183 106.384 51.2792 106.311 51.2707 106.232C51.2665 106.151 51.2945 106.071 51.3486 106.011C51.4027 105.95 51.4785 105.914 51.5595 105.909C51.639 105.903 51.7178 105.928 51.7792 105.979C51.8406 106.03 51.8796 106.103 51.8882 106.183Z" fill="#263238"/>
<path d="M52.2446 105.04C52.2077 105.08 51.9681 104.914 51.6301 104.923C51.2922 104.932 51.0526 105.107 51.0157 105.067C50.9788 105.027 51.0341 104.975 51.1386 104.895C51.282 104.792 51.4533 104.734 51.6301 104.729C51.8037 104.724 51.9745 104.774 52.1186 104.871C52.22 104.947 52.2446 105.018 52.2446 105.04Z" fill="#263238"/>
<path d="M48.8068 106.183C48.811 106.264 48.783 106.343 48.7289 106.403C48.6748 106.464 48.599 106.5 48.518 106.505C48.4384 106.511 48.3596 106.486 48.2982 106.435C48.2369 106.384 48.1978 106.311 48.1893 106.232C48.1851 106.151 48.2131 106.071 48.2672 106.011C48.3213 105.95 48.3971 105.914 48.478 105.909C48.5576 105.903 48.6364 105.928 48.6978 105.979C48.7591 106.03 48.7982 106.103 48.8068 106.183Z" fill="#263238"/>
<path d="M48.899 105.04C48.8683 105.086 48.6102 104.948 48.2846 104.994C47.9589 105.04 47.7316 105.239 47.6916 105.203C47.6517 105.166 47.6916 105.11 47.7961 105.018C47.9206 104.897 48.0794 104.818 48.2508 104.791C48.4229 104.766 48.5984 104.798 48.7515 104.88C48.8652 104.954 48.9174 105.021 48.899 105.04Z" fill="#263238"/>
<path d="M50.2077 107.759C50.3825 107.698 50.5641 107.66 50.7484 107.645C50.8344 107.645 50.9143 107.614 50.9266 107.556C50.932 107.467 50.9095 107.379 50.8621 107.304L50.5917 106.662C50.3426 106.117 50.1371 105.553 49.9773 104.975C50.2699 105.498 50.5206 106.044 50.7269 106.606L50.9881 107.255C51.0462 107.356 51.0658 107.475 51.0434 107.59C51.0319 107.62 51.0134 107.648 50.9894 107.67C50.9654 107.693 50.9366 107.709 50.9051 107.719C50.8584 107.733 50.8098 107.742 50.7607 107.743C50.5778 107.772 50.3919 107.777 50.2077 107.759Z" fill="#263238"/>
<path d="M48.9051 103.596C48.8744 103.688 48.5365 103.654 48.1463 103.712C47.7561 103.771 47.4397 103.888 47.3844 103.808C47.3291 103.728 47.4151 103.682 47.5411 103.59C47.7075 103.474 47.8993 103.4 48.1002 103.375C48.3005 103.346 48.5047 103.364 48.6962 103.43C48.8406 103.482 48.9174 103.562 48.9051 103.596Z" fill="#263238"/>
<path d="M52.1463 103.746C52.091 103.823 51.8575 103.746 51.581 103.746C51.3045 103.746 51.068 103.811 51.0127 103.746C50.9574 103.682 51.0127 103.63 51.1233 103.556C51.258 103.464 51.4178 103.415 51.581 103.418C51.7438 103.415 51.9031 103.464 52.0357 103.559C52.1371 103.63 52.1709 103.706 52.1463 103.746Z" fill="#263238"/>
<path d="M45.409 106.56C45.3721 106.545 43.8975 106.161 43.9896 107.648C44.0818 109.135 45.5564 108.739 45.5564 108.696C45.5564 108.653 45.409 106.56 45.409 106.56Z" fill="#FFBF9D"/>
<path d="M45.0679 108.17C45.0679 108.17 45.0403 108.189 45.0003 108.213C44.9401 108.243 44.8709 108.248 44.8068 108.229C44.7065 108.174 44.6228 108.093 44.5644 107.994C44.5061 107.896 44.4752 107.784 44.475 107.67C44.4623 107.542 44.4791 107.414 44.5241 107.295C44.5355 107.248 44.5578 107.204 44.5893 107.167C44.6208 107.13 44.6606 107.101 44.7054 107.083C44.7346 107.073 44.7662 107.074 44.7948 107.085C44.8234 107.096 44.8472 107.117 44.8621 107.144C44.8867 107.187 44.8621 107.215 44.8866 107.218C44.9112 107.221 44.9174 107.19 44.902 107.132C44.8912 107.095 44.8686 107.063 44.8375 107.04C44.7934 107.013 44.7409 107.003 44.69 107.012C44.6302 107.028 44.5754 107.059 44.5308 107.102C44.4862 107.145 44.4532 107.199 44.435 107.258C44.3787 107.391 44.3565 107.535 44.3705 107.679C44.3717 107.811 44.4121 107.94 44.4864 108.049C44.5608 108.159 44.6658 108.243 44.7883 108.293C44.8289 108.303 44.8711 108.303 44.9116 108.293C44.9522 108.284 44.9899 108.265 45.0218 108.238C45.0648 108.195 45.071 108.17 45.0679 108.17Z" fill="#FF9A6C"/>
<path d="M52.8161 101.525C52.7861 101.38 52.7143 101.247 52.6095 101.142C52.5047 101.037 52.3714 100.965 52.2262 100.935C52.2416 100.889 51.919 100.736 51.6702 100.56C51.4213 100.385 51.3629 99.9706 51.1417 100.176C51.1342 100.066 51.1004 99.9586 51.0431 99.8637C50.9859 99.7688 50.9068 99.6889 50.8125 99.6306C50.7182 99.5723 50.6114 99.5374 50.5009 99.5287C50.3904 99.5199 50.2794 99.5377 50.1771 99.5804C50.1771 99.3162 49.7961 99.2302 49.5411 99.1626C49.2861 99.095 49.1878 99.0582 49.068 99.2916C48.9794 99.1679 48.8641 99.0657 48.7306 98.9927C48.5971 98.9196 48.4488 98.8775 48.2969 98.8696C48.1449 98.8616 47.9931 98.8879 47.8527 98.9466C47.7123 99.0054 47.5869 99.0949 47.4858 99.2087C47.1814 99.122 46.8558 99.1494 46.5702 99.2857C46.2845 99.422 46.0584 99.6579 45.9344 99.9491C45.6911 99.9734 45.4606 100.07 45.2723 100.226C45.0841 100.382 44.9466 100.59 44.8775 100.825C44.5703 100.858 44.4935 101.104 44.3675 101.393C44.2416 101.682 44.0603 102.007 44.2539 102.25C44.1666 102.304 44.0928 102.377 44.0383 102.464C43.9838 102.55 43.9501 102.649 43.9397 102.75C43.9293 102.852 43.9425 102.955 43.9784 103.051C44.0142 103.147 44.0717 103.234 44.1463 103.304C44.063 103.349 43.9906 103.412 43.9344 103.488C43.8583 103.54 43.7934 103.607 43.7434 103.684C43.6933 103.761 43.6592 103.848 43.6429 103.939C43.6266 104.029 43.6285 104.122 43.6485 104.212C43.6684 104.302 43.7061 104.387 43.7592 104.462C43.6456 104.554 43.5638 104.679 43.5256 104.82C43.4874 104.96 43.4947 105.11 43.5465 105.246C43.5984 105.383 43.692 105.499 43.8141 105.579C43.9362 105.659 44.0805 105.698 44.2262 105.691C43.9866 106.038 44.2969 106.505 44.4781 106.613C44.4781 106.613 45.0926 106.355 45.1909 106.803C45.1873 106.85 45.1955 106.896 45.2148 106.939C45.2341 106.981 45.2638 107.018 45.3012 107.046C45.3386 107.074 45.3825 107.092 45.4288 107.099C45.475 107.105 45.5221 107.099 45.5657 107.083C45.7317 106.979 45.8616 106.827 45.9374 106.647C46.0702 106.464 46.1738 106.262 46.2447 106.047C46.2753 105.94 46.27 105.825 46.2295 105.721C46.1891 105.617 46.1156 105.529 46.0204 105.47C46.1449 105.414 46.2526 105.327 46.3324 105.216C46.4123 105.105 46.4615 104.976 46.4751 104.84C46.5015 104.57 46.4786 104.297 46.4075 104.035C46.3245 103.645 46.2416 103.252 46.1617 102.862C46.4321 102.843 46.6923 102.752 46.9143 102.596C47.1363 102.441 47.3116 102.228 47.4213 101.98C47.5224 102.045 47.6361 102.088 47.755 102.107C47.874 102.125 47.9954 102.118 48.1114 102.086C48.2275 102.054 48.3354 101.998 48.4283 101.922C48.5211 101.845 48.5967 101.75 48.6502 101.642C48.7543 101.903 48.9537 102.115 49.208 102.235C49.4624 102.355 49.7528 102.373 50.0204 102.287C49.9712 102.594 50.5304 102.868 50.8376 102.941C51.0746 102.966 51.3132 102.912 51.5166 102.788C51.5166 102.788 52.048 103.095 52.3307 102.96C52.6133 102.825 52.9728 102.471 52.7823 102.18C52.8458 101.967 52.8574 101.743 52.8161 101.525Z" fill="#263238"/>
<path d="M49.9804 99.5435C49.9287 99.5032 49.8705 99.4721 49.8084 99.4513C49.7357 99.4321 49.6586 99.4386 49.5902 99.4697C49.5467 99.4917 49.5085 99.5228 49.4783 99.561C49.448 99.5992 49.4265 99.6436 49.4151 99.6909L49.3998 99.777L49.3506 99.7002C49.3002 99.6237 49.2311 99.5614 49.15 99.5189C49.0689 99.4765 48.9783 99.4553 48.8867 99.4575C48.7757 99.4627 48.6692 99.503 48.5825 99.5725C48.4959 99.6421 48.4335 99.7373 48.4044 99.8446L48.3798 99.9429L48.3153 99.863C48.2507 99.7883 48.1704 99.7289 48.08 99.6891C47.9897 99.6492 47.8917 99.6299 47.793 99.6326C47.6873 99.6348 47.584 99.6643 47.4931 99.7181C47.4021 99.7719 47.3266 99.8483 47.2738 99.9398C47.2267 100.013 47.1963 100.096 47.1847 100.183V100.244H47.1263C46.9872 100.216 46.8427 100.235 46.7158 100.298C46.5889 100.362 46.4868 100.466 46.4259 100.594C46.3772 100.71 46.3631 100.837 46.3855 100.96C46.4079 101.083 46.4657 101.198 46.5518 101.288L46.6102 101.347L46.5273 101.365C46.4378 101.385 46.3532 101.422 46.2783 101.475C46.2034 101.528 46.1397 101.595 46.091 101.673C46.0121 101.79 45.9724 101.93 45.9773 102.072C45.9828 102.195 46.0131 102.317 46.0664 102.428C46.0664 102.428 46.0388 102.407 46.005 102.348C45.9592 102.263 45.932 102.169 45.9251 102.072C45.9127 101.918 45.9493 101.764 46.0296 101.633C46.0825 101.546 46.1521 101.471 46.2344 101.411C46.3167 101.351 46.4099 101.309 46.5088 101.285L46.4873 101.362C46.3708 101.253 46.2936 101.109 46.2679 100.951C46.2422 100.794 46.2694 100.632 46.3452 100.492C46.421 100.351 46.5412 100.24 46.6869 100.175C46.8327 100.11 46.9959 100.096 47.1509 100.133L47.0833 100.183C47.0971 100.08 47.1316 99.9821 47.1847 99.8937C47.2483 99.7864 47.338 99.6969 47.4454 99.6336C47.5528 99.5702 47.6745 99.535 47.7991 99.5312C47.9159 99.5271 48.032 99.5499 48.1386 99.5978C48.2451 99.6458 48.3392 99.7176 48.4136 99.8077L48.3245 99.8292C48.3584 99.7167 48.4239 99.6162 48.5132 99.5398C48.6025 99.4633 48.7118 99.4141 48.8283 99.3979C48.9447 99.3818 49.0633 99.3993 49.17 99.4485C49.2768 99.4978 49.3672 99.5766 49.4305 99.6756H49.366C49.3803 99.6187 49.4078 99.5661 49.4462 99.5218C49.4847 99.4775 49.5329 99.4428 49.5872 99.4206C49.6683 99.3899 49.7579 99.3899 49.8391 99.4206C49.8888 99.4378 49.9332 99.4674 49.9681 99.5066C49.9741 99.5182 49.9782 99.5306 49.9804 99.5435Z" fill="#455A64"/>
<path d="M53.0311 108.06C52.9728 108.022 52.9067 107.997 52.8377 107.988C52.7686 107.979 52.6985 107.986 52.6324 108.008C52.5663 108.03 52.506 108.066 52.4559 108.115C52.4058 108.163 52.3672 108.222 52.343 108.287C52.279 108.199 52.1916 108.13 52.0907 108.088C51.9899 108.046 51.8794 108.033 51.7715 108.051C51.6657 108.076 51.5683 108.128 51.4895 108.203C51.4107 108.278 51.3533 108.373 51.323 108.478C51.292 108.404 51.2428 108.339 51.1801 108.289C51.1173 108.239 51.0429 108.206 50.9638 108.192C50.8848 108.179 50.8036 108.185 50.7278 108.212C50.652 108.238 50.5841 108.283 50.5304 108.342C50.384 108.339 50.2435 108.284 50.1343 108.187C50.025 108.089 49.9541 107.956 49.9344 107.811C49.8695 107.777 49.7962 107.764 49.7236 107.771C49.6511 107.779 49.5823 107.808 49.5258 107.854C49.4792 107.783 49.4186 107.723 49.3477 107.677C49.2768 107.631 49.1973 107.601 49.114 107.587C49.0306 107.573 48.9454 107.576 48.8635 107.597C48.7815 107.618 48.7048 107.655 48.6379 107.706C48.6168 107.636 48.5729 107.574 48.5131 107.532C48.4532 107.489 48.3808 107.467 48.3073 107.47C48.2338 107.473 48.1633 107.5 48.1069 107.547C48.0505 107.594 48.0114 107.659 47.9958 107.731C47.9243 107.642 47.826 107.578 47.7154 107.548C47.6048 107.519 47.4877 107.526 47.3814 107.568C47.3784 107.515 47.3637 107.463 47.3384 107.416C47.3131 107.369 47.2778 107.329 47.235 107.297C47.1922 107.265 47.1429 107.243 47.0907 107.233C47.0384 107.223 46.9845 107.224 46.9328 107.236C46.985 107.055 46.7147 106.972 46.5764 106.84C46.5238 106.769 46.4674 106.7 46.4075 106.634C46.343 106.579 46.2262 106.57 46.1832 106.634C46.2101 106.557 46.2053 106.473 46.1699 106.399C46.1344 106.326 46.0713 106.269 45.9943 106.243C45.9173 106.216 45.8327 106.22 45.7593 106.256C45.6858 106.291 45.6294 106.354 45.6026 106.431C45.5738 106.517 45.5573 106.606 45.5534 106.696C45.5135 106.981 45.3506 107.31 45.5534 107.519C45.5903 107.556 45.6364 107.587 45.6517 107.633C45.6671 107.679 45.5995 107.796 45.5933 107.882C45.5872 107.968 45.6794 108.06 45.7193 108.152C45.7561 108.297 45.7561 108.449 45.7193 108.594C45.7193 108.745 45.793 108.935 45.9436 108.92C45.8913 109.03 45.8789 109.155 45.9086 109.273C45.9383 109.392 46.0082 109.496 46.1064 109.568C46.0814 109.632 46.0696 109.701 46.0716 109.77C46.0736 109.839 46.0894 109.907 46.118 109.969C46.1466 110.032 46.1876 110.088 46.2383 110.135C46.2891 110.182 46.3487 110.218 46.4136 110.241C46.3693 110.286 46.343 110.346 46.3396 110.41C46.3362 110.473 46.356 110.535 46.3952 110.585C46.4766 110.684 46.5825 110.761 46.7024 110.806C46.6786 110.823 46.6583 110.844 46.6427 110.868C46.6271 110.893 46.6166 110.92 46.6117 110.949C46.6069 110.978 46.6078 111.007 46.6144 111.035C46.621 111.063 46.6331 111.09 46.6502 111.114C46.7277 111.208 46.8369 111.271 46.9574 111.292C47.0078 111.299 47.0543 111.323 47.0895 111.359C47.1417 111.436 47.0711 111.544 47.0895 111.636C47.1141 111.777 47.3138 111.817 47.3722 111.943C47.4305 112.069 47.3568 112.223 47.449 112.312C47.5411 112.401 47.6056 112.358 47.6855 112.385C47.8238 112.435 47.8852 112.591 47.9743 112.708C48.1639 112.918 48.42 113.055 48.6993 113.098C48.8345 113.132 48.9758 113.163 49.1141 113.19C49.3937 113.239 49.6732 113.273 49.9559 113.31C50.0972 113.326 50.2631 113.329 50.3399 113.209C50.3922 113.263 50.4565 113.305 50.5277 113.33C50.5988 113.356 50.6749 113.364 50.7499 113.355C50.825 113.347 50.8969 113.32 50.9601 113.279C51.0233 113.237 51.076 113.182 51.1141 113.117C51.3741 113.154 51.6391 113.103 51.8668 112.972L52.1126 112.865C52.3583 112.757 52.6348 112.622 52.7055 112.364C52.7841 112.348 52.8581 112.314 52.9221 112.266C52.9862 112.217 53.0387 112.155 53.076 112.084C53.1133 112.013 53.1344 111.935 53.1378 111.855C53.1412 111.774 53.1268 111.694 53.0957 111.62C53.2063 111.654 53.3169 111.541 53.3322 111.424C53.3376 111.307 53.3231 111.191 53.2892 111.08C53.2032 110.613 53.452 110.137 53.3875 109.667C53.3414 109.338 53.1448 109.012 53.2401 108.696C53.2669 108.632 53.2826 108.565 53.2861 108.496C53.2861 108.428 53.2185 108.358 53.154 108.376C53.1695 108.329 53.1733 108.278 53.165 108.229C53.1567 108.18 53.1365 108.134 53.1063 108.094C53.076 108.055 53.0366 108.023 52.9914 108.002C52.9462 107.981 52.8966 107.971 52.8468 107.974" fill="#263238"/>
<path d="M49.1017 108.094C49.1539 108.094 49.1662 108.453 49.4857 108.708C49.8052 108.963 50.1893 108.908 50.1923 108.957C50.1954 109.006 50.1094 109.031 49.9466 109.04C49.7332 109.048 49.5236 108.982 49.3536 108.852C49.1896 108.728 49.0796 108.545 49.0464 108.342C49.0372 108.186 49.0771 108.094 49.1017 108.094Z" fill="white"/>
<path d="M47.1048 110.579C47.0266 110.329 46.9791 110.072 46.9635 109.811C46.9678 109.548 47.0039 109.287 47.071 109.033C47.0278 109.099 46.9966 109.172 46.9788 109.249C46.9248 109.431 46.8999 109.621 46.9051 109.811C46.9092 110.001 46.9423 110.19 47.0034 110.37C47.0245 110.445 47.0589 110.516 47.1048 110.579Z" fill="#455A64"/>
<path d="M46.7607 110.053C46.7607 110.053 46.7147 109.995 46.6778 109.891C46.635 109.747 46.6225 109.597 46.6409 109.448C46.6686 109.098 46.7669 108.834 46.7484 108.818C46.6492 109.009 46.5926 109.218 46.5826 109.433C46.5639 109.589 46.584 109.747 46.6409 109.894C46.6901 110.013 46.7577 110.06 46.7607 110.053Z" fill="#455A64"/>
<path d="M46.4074 109.752C46.3229 109.545 46.2701 109.327 46.2508 109.104C46.2516 108.88 46.2858 108.658 46.3521 108.444C46.3088 108.497 46.2774 108.559 46.26 108.625C46.2079 108.78 46.185 108.944 46.1924 109.107C46.1983 109.271 46.2358 109.431 46.303 109.58C46.3246 109.645 46.3603 109.703 46.4074 109.752Z" fill="#455A64"/>
<path d="M52.4597 111.98C52.5412 111.96 52.6136 111.914 52.6655 111.848C52.7958 111.694 52.8856 111.51 52.9267 111.313C52.9739 111.12 52.9905 110.921 52.9758 110.723C52.9745 110.641 52.9579 110.56 52.9267 110.484C52.9453 110.757 52.9257 111.032 52.8683 111.301C52.8292 111.489 52.7495 111.666 52.6348 111.82C52.5803 111.877 52.5218 111.931 52.4597 111.98Z" fill="#455A64"/>
<path d="M52.1402 111.9C52.2043 111.874 52.262 111.834 52.3092 111.783C52.4289 111.667 52.5222 111.527 52.5826 111.371C52.6451 111.217 52.6723 111.05 52.6625 110.883C52.663 110.813 52.6483 110.744 52.6195 110.68C52.6156 110.748 52.6156 110.815 52.6195 110.883C52.6181 111.043 52.5879 111.201 52.5304 111.35C52.4703 111.498 52.3851 111.634 52.2784 111.752C52.1955 111.857 52.134 111.891 52.1402 111.9Z" fill="#455A64"/>
<path d="M52.6962 102.766C52.3347 102.26 51.8182 101.884 51.2246 101.697C49.4212 101.163 46.8928 100.96 44.223 103.593L43.8329 103.768C43.7891 103.247 43.8077 102.723 43.8882 102.207C43.9803 101.765 44.7883 99.1811 47.6762 98.9107C47.6762 98.9107 52.0879 98.1919 52.6962 102.766Z" fill="#455A64"/>
<g opacity="0.3">
<path d="M52.6962 102.766C52.3347 102.26 51.8182 101.884 51.2246 101.697C49.4212 101.163 46.8928 100.96 44.223 103.593L43.8329 103.768C43.7891 103.247 43.8077 102.723 43.8882 102.207C43.9803 101.765 44.7883 99.1811 47.6762 98.9107C47.6762 98.9107 52.0879 98.1919 52.6962 102.766Z" fill="black"/>
</g>
<path d="M44.2231 103.593C45.3199 102.392 46.73 101.703 48.217 101.135C49.7039 100.567 52.0388 100.213 53.6179 100.133C54.0914 100.077 54.5715 100.124 55.025 100.272C55.25 100.349 55.4489 100.488 55.5988 100.672C55.7487 100.857 55.8437 101.08 55.8729 101.316C55.8975 101.912 54.7178 102.576 54.177 102.822C53.6363 103.067 52.5303 103.498 52.5303 103.498C52.5303 103.498 52.2231 102.149 51.1694 101.765C48.9512 100.988 44.1402 103.636 44.2231 103.593Z" fill="#455A64"/>
<path d="M52.8283 101.891C52.7584 101.71 52.6289 101.559 52.4612 101.462C52.2935 101.366 52.0979 101.329 51.9066 101.359C51.9485 101.303 51.9712 101.235 51.9712 101.166C51.9712 101.096 51.9485 101.028 51.9066 100.972C51.8167 100.865 51.6914 100.793 51.5533 100.769C51.314 100.721 51.0652 100.755 50.848 100.867C50.6308 100.978 50.458 101.161 50.3582 101.384C50.233 101.262 50.0788 101.173 49.9101 101.127C49.7413 101.081 49.5636 101.078 49.3936 101.119C49.2231 101.147 49.0663 101.23 48.9466 101.355C48.827 101.479 48.751 101.639 48.73 101.811C48.7299 101.937 48.7668 102.06 48.8362 102.166C48.9055 102.271 49.0043 102.354 49.1201 102.404C49.2633 102.458 49.4172 102.477 49.5693 102.461C49.7214 102.444 49.8675 102.392 49.9957 102.308C50.0457 102.445 50.1276 102.567 50.2347 102.664C50.3418 102.762 50.4709 102.833 50.611 102.87C50.7511 102.908 50.8982 102.911 51.0397 102.879C51.1813 102.848 51.3132 102.783 51.4243 102.689C51.5472 102.84 51.7195 102.942 51.9105 102.977C52.1016 103.012 52.2989 102.978 52.4674 102.882C52.6359 102.785 52.7647 102.632 52.8308 102.449C52.8969 102.267 52.896 102.067 52.8283 101.884V101.891Z" fill="#263238"/>
<path d="M85.7636 70.4097H39.8065C38.1064 70.4097 36.7281 71.7879 36.7281 73.488V88.296C36.7281 89.9962 38.1064 91.3744 39.8065 91.3744H85.7636C87.4637 91.3744 88.8419 89.9962 88.8419 88.296V73.488C88.8419 71.7879 87.4637 70.4097 85.7636 70.4097Z" fill="white"/>
<path d="M85.7637 91.3743H85.8558C85.9142 91.3743 86.0064 91.3743 86.1262 91.3498C86.4781 91.3055 86.8199 91.2016 87.1369 91.0425C87.6475 90.7772 88.0733 90.3737 88.3658 89.8782C88.5543 89.5641 88.6844 89.2186 88.7499 88.8582C88.8016 88.4425 88.8171 88.0231 88.7959 87.6047C88.7959 85.8229 88.7959 83.6416 88.7959 81.1101C88.7959 79.8444 88.7959 78.4895 88.7959 77.0548C88.7959 76.339 88.7959 75.5986 88.7959 74.8428V73.6907C88.809 73.3024 88.7549 72.9147 88.6362 72.5448C88.5097 72.1645 88.3087 71.8133 88.045 71.5116C87.7812 71.2098 87.46 70.9637 87.1001 70.7875C86.7277 70.6052 86.3222 70.5006 85.9081 70.4803C85.4872 70.4803 85.054 70.4803 84.6177 70.4803H79.1953H67.2321H39.8189C39.5237 70.4861 39.2306 70.5295 38.9464 70.6093C38.6648 70.7 38.3963 70.827 38.1476 70.9872C37.6596 71.3197 37.2777 71.7858 37.0477 72.3297C36.9395 72.6008 36.8672 72.8848 36.8327 73.1746C36.8142 73.4634 36.8327 73.7645 36.8173 74.0625V87.9273C36.7763 88.4723 36.867 89.0191 37.0815 89.5218C37.3015 90.0091 37.6476 90.4288 38.0839 90.7377C38.5203 91.0466 39.0312 91.2335 39.5639 91.2791C40.6299 91.3037 41.7144 91.2791 42.759 91.2791L65.1461 91.2975L80.2429 91.3221H84.3443L80.2429 91.3375L65.1461 91.362L42.759 91.3774C41.7021 91.3774 40.6422 91.3928 39.5516 91.3774C38.9922 91.3297 38.4557 91.1338 37.9972 90.8098C37.5388 90.4858 37.175 90.0454 36.9433 89.5341C36.7202 89.012 36.6233 88.4447 36.6606 87.8782V74.0686C36.6606 73.7614 36.6606 73.4757 36.676 73.1654C36.723 72.7033 36.8713 72.2573 37.1102 71.8591C37.3492 71.4609 37.6729 71.1202 38.0585 70.8612C38.3182 70.6906 38.6005 70.5572 38.8972 70.4649C39.1969 70.3778 39.5068 70.3313 39.8189 70.3267H67.2321H79.1953H84.6177C85.054 70.3267 85.481 70.3267 85.9111 70.3267C86.5461 70.3552 87.1574 70.5762 87.6639 70.9603C88.1703 71.3444 88.548 71.8734 88.7468 72.4772C88.8672 72.8595 88.9223 73.2594 88.9096 73.66C88.9096 74.0471 88.9096 74.4311 88.9096 74.8121C88.9096 75.5678 88.9096 76.3082 88.9096 77.0241C88.9096 78.4588 88.9096 79.8136 88.9096 81.0794C88.9096 83.6109 88.9096 85.7921 88.9096 87.574C88.9266 87.9958 88.9071 88.4183 88.8512 88.8367C88.7628 89.3076 88.5664 89.7515 88.2775 90.1337C87.9886 90.5159 87.615 90.8259 87.1861 91.0395C86.8652 91.1997 86.5192 91.3036 86.1631 91.3467C86.0306 91.3642 85.8972 91.3734 85.7637 91.3743Z" fill="#263238"/>
<path d="M81.1768 85.0981C80.7131 85.065 80.2605 84.9408 79.8449 84.7326C79.4292 84.5243 79.0587 84.2362 78.7545 83.8847C78.4503 83.5331 78.2184 83.125 78.0721 82.6838C77.9258 82.2425 77.868 81.7767 77.9019 81.3131C77.935 80.8493 78.0592 80.3965 78.2673 79.9807C78.4755 79.5649 78.7636 79.1942 79.1151 78.8898C79.4666 78.5853 79.8746 78.3531 80.3159 78.2065C80.7572 78.0598 81.223 78.0016 81.6868 78.0351C82.6227 78.1035 83.4932 78.5405 84.1072 79.2501C84.7212 79.9597 85.0286 80.884 84.9618 81.82C84.9287 82.2838 84.8045 82.7366 84.5963 83.1524C84.3882 83.5682 84.1001 83.9389 83.7486 84.2434C83.3971 84.5478 82.989 84.78 82.5478 84.9266C82.1065 85.0733 81.6406 85.1315 81.1768 85.0981Z" fill="#28C76F"/>
<path d="M81.2168 83.4266L79.0939 81.7738L79.6714 81.0334L81.0969 82.1424L83.1338 79.8137L83.8404 80.4312L81.2168 83.4266Z" fill="white"/>
<path d="M73.2566 84.2071H59.9417C59.3762 84.2071 58.8339 83.9825 58.4341 83.5826C58.0342 83.1828 57.8096 82.6405 57.8096 82.075C57.8096 81.5095 58.0342 80.9672 58.4341 80.5674C58.8339 80.1675 59.3762 79.9429 59.9417 79.9429H73.2566C73.8221 79.9429 74.3644 80.1675 74.7642 80.5674C75.1641 80.9672 75.3887 81.5095 75.3887 82.075C75.3887 82.6405 75.1641 83.1828 74.7642 83.5826C74.3644 83.9825 73.8221 84.2071 73.2566 84.2071Z" fill="#E0E0E0"/>
<path d="M52.8633 87.089C56.2947 84.3084 56.8222 79.2725 54.0416 75.8412C51.2609 72.4098 46.2251 71.8823 42.7937 74.6629C39.3624 77.4436 38.8349 82.4794 41.6155 85.9108C44.3961 89.3422 49.432 89.8697 52.8633 87.089Z" fill="white"/>
<path d="M40.7282 84.4498C40.7537 84.4854 40.7772 84.5223 40.7989 84.5604C40.8419 84.6403 40.9064 84.7509 40.9894 84.8922L41.1276 85.138C41.1829 85.224 41.2536 85.3162 41.3211 85.4145C41.4783 85.6506 41.6518 85.8754 41.8403 86.0873C42.3405 86.6776 42.9267 87.1892 43.5792 87.605C44.5325 88.2199 45.6052 88.626 46.7267 88.7965C47.8483 88.967 48.9932 88.8981 50.0861 88.5942C50.4131 88.5026 50.7333 88.3886 51.0447 88.2532C51.2014 88.1825 51.3519 88.118 51.5209 88.0412L51.9848 87.7801C52.0616 87.7371 52.1415 87.6971 52.2152 87.648L52.4364 87.4944C52.5839 87.3899 52.7436 87.2885 52.8788 87.1871C53.1672 86.9553 53.4401 86.7049 53.696 86.4375C53.9593 86.1628 54.2046 85.8714 54.4302 85.565C54.5408 85.4083 54.6392 85.2424 54.7375 85.0796C54.8452 84.9169 54.9407 84.7465 55.0232 84.5696C55.4023 83.8616 55.6608 83.0953 55.7882 82.3023C55.9394 81.4852 55.957 80.6489 55.8404 79.8261C55.718 78.9793 55.4684 78.1559 55.1 77.3837C54.7116 76.6204 54.2115 75.9194 53.6161 75.3038L53.1614 74.8707L52.6699 74.4836C52.5894 74.418 52.5042 74.3584 52.4149 74.3054L52.1537 74.1395L51.8957 73.9736L51.6222 73.8353C51.2625 73.6495 50.891 73.4874 50.5101 73.3499C50.1329 73.2275 49.748 73.13 49.358 73.0581C49.1667 73.0167 48.9727 72.989 48.7774 72.9751C48.5838 72.9598 48.3934 72.9352 48.1998 72.926C47.8202 72.9171 47.4403 72.9345 47.0631 72.9782C46.6949 73.0169 46.3295 73.0795 45.9694 73.1656C45.7943 73.2117 45.6222 73.2731 45.4502 73.3253L45.1921 73.4052C45.1092 73.436 45.0293 73.4759 44.9464 73.5097L44.4579 73.7186C44.3012 73.7923 44.1506 73.8845 44.0001 73.9644C43.7037 74.13 43.4184 74.3147 43.146 74.5174C42.2386 75.1984 41.4856 76.0638 40.9365 77.0566C40.3875 78.0494 40.0547 79.1472 39.9602 80.2777C39.8912 81.0487 39.9399 81.8256 40.1046 82.5819C40.1563 82.8602 40.2281 83.1343 40.3196 83.4022C40.3565 83.5189 40.3872 83.6265 40.421 83.7094L40.5316 83.9675C40.593 84.1211 40.6422 84.2378 40.676 84.3208C40.6936 84.3609 40.7089 84.4019 40.7221 84.4437C40.7014 84.4058 40.683 84.3668 40.6668 84.3269L40.5101 83.9767L40.3933 83.7186C40.3565 83.6234 40.3258 83.5128 40.2858 83.396C40.1894 83.1288 40.1134 82.8545 40.0585 82.5758C39.8865 81.8154 39.8316 81.0332 39.8956 80.2562C39.9831 79.1125 40.3129 78.0004 40.8633 76.994C41.4136 75.9876 42.1719 75.1098 43.0877 74.4191C43.3616 74.2112 43.6501 74.0233 43.951 73.8568C44.1046 73.7739 44.2582 73.6817 44.4149 73.6049L44.9064 73.3929C44.9894 73.3591 45.0723 73.3161 45.1583 73.2885L45.4164 73.2055C45.5915 73.1533 45.7666 73.0888 45.9448 73.0427C46.3099 72.9543 46.6804 72.8897 47.0539 72.8492C47.4361 72.8038 47.8212 72.7864 48.206 72.7969C48.3995 72.7969 48.5931 72.8277 48.7897 72.843C48.9872 72.8564 49.1834 72.8852 49.3765 72.929C49.7728 72.9995 50.1639 73.097 50.547 73.2209C50.9332 73.3598 51.3098 73.524 51.6745 73.7124L51.951 73.8538L52.2152 74.0197L52.4794 74.1886C52.5702 74.242 52.6565 74.3026 52.7375 74.3699L53.2382 74.7601L53.6991 75.2025C54.9333 76.4419 55.7266 78.0523 55.9571 79.7862C56.0744 80.6214 56.0557 81.47 55.9018 82.2993C55.8252 82.7028 55.7226 83.101 55.5946 83.4913C55.459 83.8704 55.2979 84.2399 55.1123 84.5973C55.0276 84.7765 54.9311 84.95 54.8235 85.1165C54.716 85.2793 54.6146 85.4483 54.5163 85.608C54.2883 85.9181 54.0399 86.2127 53.7728 86.4897C53.5118 86.7602 53.2337 87.0137 52.9402 87.2486C52.7958 87.3623 52.633 87.4606 52.4917 87.5558L52.2674 87.7125C52.1906 87.7616 52.1107 87.8016 52.0339 87.8446L51.5639 88.1057C51.4072 88.1856 51.2413 88.2471 51.0815 88.3208C49.6049 88.9566 47.9701 89.129 46.3934 88.8154C45.378 88.6156 44.411 88.2212 43.5454 87.6541C42.8899 87.2339 42.3024 86.7159 41.8035 86.118C41.6172 85.9044 41.4468 85.6775 41.2935 85.4391C41.2259 85.3377 41.1583 85.2455 41.103 85.1564L40.9678 84.9076L40.7866 84.5696L40.7282 84.4498Z" fill="#263238"/>
<path d="M42.9125 87.1225C42.9125 87.1225 43.2934 86.9966 44.6083 86.5911C45.9232 86.1855 50.2397 86.7907 50.2397 86.7907L52.7128 87.3007C52.7128 87.3007 50.9555 89.1072 47.5792 88.8798C44.2028 88.6525 42.9125 87.1225 42.9125 87.1225Z" fill="#28C76F"/>
<path d="M52.123 76.8336C52.3721 76.8519 52.619 76.7773 52.8163 76.6242C53.0136 76.4712 53.1473 76.2505 53.1915 76.0048C53.2358 75.759 53.1875 75.5056 53.056 75.2933C52.9246 75.0811 52.7191 74.925 52.4794 74.8551C52.6285 74.6917 52.7222 74.4854 52.7472 74.2657C52.7721 74.0459 52.7271 73.8238 52.6185 73.6311C52.5099 73.4384 52.3433 73.2849 52.1423 73.1925C51.9414 73.1 51.7164 73.0734 51.4994 73.1163C51.482 72.8997 51.4089 72.6914 51.2873 72.5114C51.1656 72.3315 50.9994 72.1861 50.805 72.0893C50.6105 71.9925 50.3943 71.9477 50.1774 71.9591C49.9604 71.9706 49.7502 72.038 49.567 72.1547C49.3148 71.965 49.0067 71.8648 48.6913 71.8698C48.3758 71.8748 48.071 71.9848 47.825 72.1823C47.612 72.1515 47.3948 72.1898 47.205 72.2914C47.0153 72.393 46.8632 72.5527 46.7708 72.7471C46.6784 72.9415 46.6507 73.1603 46.6917 73.3716C46.7327 73.5829 46.8402 73.7755 46.9986 73.9212" fill="#263238"/>
<path d="M50.4886 86.9534L50.4487 85.1808C50.4487 85.1808 52.8266 84.7414 52.7774 82.4404C52.7498 81.3282 52.5132 79.0425 52.2736 76.978C52.1458 75.9096 51.6221 74.9278 50.806 74.2266C49.9898 73.5253 48.9404 73.1554 47.865 73.19H47.6438C45.2567 73.4142 44.1107 75.5678 44.3995 77.9457L44.7436 86.5878C44.7436 86.5878 47.7636 88.1915 48.4302 87.958C49.1363 87.6656 49.8237 87.3301 50.4886 86.9534Z" fill="#AE7461"/>
<path d="M50.4548 85.1809C49.4217 85.2085 48.4027 84.9364 47.5209 84.3975C47.5209 84.3975 48.1691 86.081 50.4548 85.7953V85.1809Z" fill="#6F4439"/>
<path d="M51.3426 79.2699C51.3469 79.3561 51.317 79.4405 51.2595 79.5049C51.202 79.5693 51.1216 79.6084 51.0354 79.614C50.9934 79.62 50.9505 79.6172 50.9096 79.6059C50.8687 79.5945 50.8306 79.5748 50.7977 79.5479C50.7648 79.5211 50.7378 79.4877 50.7184 79.4499C50.699 79.4121 50.6877 79.3707 50.6852 79.3283C50.6818 79.2426 50.712 79.159 50.7694 79.0953C50.8268 79.0316 50.9068 78.9928 50.9924 78.9873C51.0342 78.9812 51.0768 78.9839 51.1175 78.9951C51.1583 79.0063 51.1962 79.0257 51.2291 79.0523C51.262 79.0788 51.289 79.1118 51.3086 79.1493C51.3281 79.1867 51.3397 79.2278 51.3426 79.2699Z" fill="#263238"/>
<path d="M51.8189 78.1241C51.7789 78.1671 51.5116 77.992 51.1706 78.0042C50.8296 78.0165 50.5562 78.2039 50.5255 78.1609C50.4948 78.1179 50.5439 78.0657 50.6545 77.9797C50.8038 77.8679 50.9842 77.8056 51.1706 77.8015C51.3542 77.7928 51.5355 77.8446 51.6868 77.949C51.8004 78.0258 51.8373 78.1026 51.8189 78.1241Z" fill="#263238"/>
<path d="M48.1598 79.3222C48.1632 79.4082 48.1331 79.4922 48.0757 79.5564C48.0184 79.6206 47.9384 79.66 47.8526 79.6663C47.8107 79.6719 47.7682 79.6688 47.7277 79.6572C47.6871 79.6456 47.6494 79.6258 47.6168 79.599C47.5842 79.5722 47.5575 79.539 47.5384 79.5014C47.5192 79.4638 47.508 79.4227 47.5054 79.3806C47.5012 79.2947 47.5312 79.2106 47.5887 79.1468C47.6463 79.0829 47.7268 79.0443 47.8126 79.0396C47.8542 79.034 47.8964 79.037 47.9368 79.0484C47.9772 79.0598 48.0148 79.0794 48.0473 79.1058C48.0798 79.1323 48.1066 79.1652 48.1259 79.2024C48.1453 79.2396 48.1568 79.2804 48.1598 79.3222Z" fill="#263238"/>
<path d="M48.3472 78.3114C48.3073 78.3544 48.04 78.1793 47.699 78.1916C47.3579 78.2039 47.0845 78.3913 47.0538 78.3483C47.0231 78.3053 47.0722 78.2531 47.1828 78.167C47.3326 78.0558 47.5125 77.9926 47.699 77.9858C47.8822 77.9801 48.0626 78.0316 48.2151 78.1332C48.3257 78.2131 48.3656 78.2899 48.3472 78.3114Z" fill="#263238"/>
<path d="M49.7205 80.8859C49.9057 80.8234 50.0974 80.7822 50.2919 80.763C50.381 80.763 50.467 80.7292 50.4793 80.6678C50.4839 80.5735 50.4592 80.4802 50.4087 80.4005L50.1199 79.7246C49.8524 79.15 49.6305 78.5552 49.4563 77.9458C49.7701 78.4969 50.0392 79.0722 50.2612 79.6662L50.5408 80.3483C50.6015 80.4554 50.6222 80.5806 50.5992 80.7016C50.587 80.734 50.5677 80.7632 50.5427 80.7872C50.5177 80.8111 50.4877 80.8291 50.4548 80.8398C50.4059 80.8545 50.3553 80.8628 50.3042 80.8644C50.1115 80.8981 49.9151 80.9053 49.7205 80.8859Z" fill="#263238"/>
<path d="M48.4117 77.104C48.3687 77.1931 48.0646 77.104 47.6897 77.104C47.3149 77.104 47.0046 77.1778 46.9678 77.0856C46.9678 77.0395 47.0139 76.9566 47.146 76.8828C47.316 76.7887 47.5078 76.741 47.702 76.7446C47.8942 76.7443 48.0829 76.7952 48.2489 76.892C48.3748 76.975 48.4332 77.061 48.4117 77.104Z" fill="#263238"/>
<path d="M51.8188 76.8707C51.7451 76.9536 51.4532 76.8707 51.0999 76.8891C50.7466 76.9075 50.4548 76.9659 50.3841 76.8891C50.3134 76.8123 50.3841 76.7693 50.5224 76.6863C50.6994 76.5862 50.8996 76.5343 51.103 76.5358C51.3047 76.5305 51.5041 76.5793 51.6806 76.6771C51.8065 76.7478 51.8495 76.8338 51.8188 76.8707Z" fill="#263238"/>
<path d="M44.848 80.1793C44.8437 80.0946 44.8218 80.0117 44.7838 79.9358C44.7458 79.8599 44.6926 79.7928 44.6273 79.7385C44.5621 79.6842 44.4864 79.6441 44.4048 79.6205C44.3233 79.597 44.2378 79.5906 44.1537 79.6018C43.7267 79.6571 43.2566 79.909 43.315 80.803C43.4225 82.3729 44.9771 81.9428 44.9771 81.8967C44.9771 81.8506 44.8972 80.8276 44.848 80.1793Z" fill="#AE7461"/>
<path d="M44.5961 81.3283C44.5961 81.3283 44.5685 81.3498 44.5254 81.3744C44.4617 81.4066 44.3881 81.4132 44.3196 81.3928C44.2142 81.3348 44.126 81.25 44.0639 81.147C44.0019 81.0439 43.9682 80.9263 43.9663 80.806C43.9522 80.6719 43.969 80.5363 44.0155 80.4097C44.0262 80.359 44.0496 80.3119 44.0834 80.2727C44.1173 80.2335 44.1605 80.2035 44.209 80.1854C44.2398 80.1749 44.2734 80.1756 44.3037 80.1874C44.3341 80.1992 44.3593 80.2214 44.3749 80.2499C44.3995 80.293 44.3903 80.3237 44.3995 80.3268C44.4087 80.3298 44.4302 80.2991 44.3995 80.2346C44.3875 80.1965 44.3638 80.1632 44.3319 80.1394C44.2853 80.11 44.2294 80.099 44.1752 80.1086C44.1118 80.1261 44.0538 80.1595 44.007 80.2058C43.9602 80.2521 43.9261 80.3096 43.9079 80.3728C43.8494 80.5125 43.8262 80.6645 43.8403 80.8152C43.8426 80.9555 43.886 81.092 43.9652 81.2078C44.0444 81.3236 44.1559 81.4136 44.2858 81.4665C44.329 81.4766 44.3739 81.4765 44.417 81.4664C44.4602 81.4563 44.5004 81.4363 44.5347 81.4082C44.5961 81.3682 44.5992 81.3314 44.5961 81.3283Z" fill="#6F4439"/>
<path d="M50.8542 73.7616C50.8378 73.7232 50.8183 73.6862 50.7958 73.651C50.7034 73.5249 50.5834 73.4218 50.4449 73.3493C50.3065 73.2769 50.1532 73.2372 49.997 73.2331C49.816 73.149 49.6292 73.0781 49.4379 73.0212C49.316 72.8227 49.1456 72.6586 48.9429 72.5441C48.7401 72.4296 48.5115 72.3686 48.2786 72.3667C48.0458 72.3649 47.8163 72.4223 47.6117 72.5336C47.4071 72.6448 47.2342 72.8063 47.1092 73.0027L46.9187 73.0427C46.7425 72.9226 46.5413 72.8444 46.3304 72.8138C46.1194 72.7833 45.9043 72.8013 45.7013 72.8665C45.4984 72.9317 45.313 73.0423 45.1593 73.19C45.0055 73.3376 44.8875 73.5184 44.8142 73.7185C44.6199 73.6738 44.4167 73.6874 44.2301 73.7576C44.0435 73.8277 43.8817 73.9514 43.7649 74.113C43.6482 74.2747 43.5817 74.4672 43.5738 74.6664C43.5659 74.8656 43.6169 75.0628 43.7205 75.2332C43.577 75.3111 43.4555 75.4241 43.3674 75.5616C43.2793 75.6991 43.2275 75.8567 43.2167 76.0196C43.2178 76.0951 43.2341 76.1695 43.2646 76.2385C43.2952 76.3075 43.3393 76.3697 43.3943 76.4213C43.4493 76.4729 43.5142 76.5129 43.585 76.5389C43.6558 76.5649 43.7312 76.5763 43.8065 76.5726C43.809 77.3807 43.8583 78.188 43.954 78.9905C44.0032 79.5404 44.7159 79.8445 44.7774 80.2193C45.0846 82.118 45.6744 81.0427 45.7758 77.0857L45.8926 76.9812C45.9724 76.9044 45.9909 76.8092 46.0585 76.7201C46.1261 76.631 46.3012 76.6433 46.4333 76.6525C46.6638 76.6625 46.8907 76.5928 47.0759 76.4551C47.2611 76.3175 47.3932 76.1203 47.4502 75.8967C47.5229 75.9723 47.6215 76.0178 47.7262 76.024C47.8309 76.0303 47.9342 75.9969 48.0155 75.9305C48.174 75.7927 48.3126 75.6335 48.4271 75.4574C48.4858 75.3699 48.5647 75.2979 48.6573 75.2476C48.7499 75.1973 48.8533 75.1702 48.9586 75.1686C49.0708 75.2019 49.1861 75.2236 49.3027 75.2332C49.5085 75.2055 49.6099 74.9628 49.6253 74.757C49.627 74.5804 49.6758 74.4076 49.7666 74.2562C49.8903 74.1914 50.0245 74.1487 50.1629 74.1302C50.2428 74.1302 50.3227 74.1487 50.3964 74.1579H50.5101C50.5593 74.1722 50.6075 74.1896 50.6545 74.2101C51.358 74.5173 52.0155 75.9398 52.0155 75.9398C52.0039 75.5115 51.8929 75.0919 51.6914 74.7139C51.4899 74.3359 51.2032 74.0099 50.8542 73.7616Z" fill="#263238"/>
<path d="M46.1537 73.5158L46.1721 73.4728C46.1905 73.4332 46.2121 73.3952 46.2366 73.3591C46.3272 73.2221 46.4467 73.1067 46.5869 73.0212C46.7981 72.8873 47.0472 72.8258 47.2965 72.846C47.6096 72.8745 47.8999 73.0218 48.1076 73.2577H48.0615C48.1686 73.1401 48.2905 73.0368 48.424 72.9505C48.5786 72.8525 48.7512 72.7865 48.9316 72.7564C49.1121 72.7263 49.2968 72.7328 49.4747 72.7754C49.6216 72.8097 49.7593 72.8752 49.8786 72.9674C49.9978 73.0596 50.0959 73.1765 50.166 73.3099C50.2589 73.4895 50.2902 73.6946 50.2551 73.8937C50.246 73.9465 50.2305 73.9981 50.209 74.0473L50.1844 74.0995C50.2044 74.031 50.2198 73.9612 50.2305 73.8906C50.2526 73.6966 50.2151 73.5005 50.123 73.3284C50.054 73.204 49.9595 73.0956 49.8457 73.0103C49.7318 72.9251 49.6012 72.8649 49.4624 72.8338C49.292 72.7938 49.1153 72.7884 48.9427 72.818C48.7701 72.8475 48.6053 72.9114 48.4578 73.0058C48.329 73.0839 48.2111 73.1789 48.1076 73.2884L48.083 73.3161L48.0585 73.2884C47.8622 73.0634 47.5875 72.9217 47.2904 72.8921C47.0521 72.8692 46.8128 72.9241 46.6084 73.0488C46.4714 73.1267 46.3512 73.2312 46.2551 73.356C46.1721 73.4543 46.1537 73.5189 46.1537 73.5158Z" fill="white"/>
<path d="M43.5177 75.3191L43.5331 75.2945L43.5791 75.23C43.6487 75.1561 43.7296 75.0939 43.8188 75.0456C43.9617 74.9698 44.1209 74.9297 44.2827 74.9289C44.4961 74.9241 44.7046 74.9936 44.8725 75.1255L44.8295 75.1409C44.8703 74.9705 44.9459 74.8105 45.0517 74.6709C45.1574 74.5313 45.291 74.4151 45.444 74.3298C45.617 74.2323 45.8066 74.1677 46.0031 74.1393C46.2078 74.1134 46.4152 74.1207 46.6176 74.1608C47.0011 74.2445 47.3651 74.4009 47.6897 74.6217L47.6437 74.637C47.7648 74.3034 48.0087 74.0287 48.3257 73.869C48.5746 73.745 48.8557 73.701 49.1306 73.743C49.3081 73.7688 49.4785 73.8305 49.6314 73.9243C49.6725 73.9486 49.7116 73.9764 49.7481 74.0072C49.7727 74.0287 49.785 74.0379 49.785 74.041C49.785 74.0441 49.7297 74.0011 49.6222 73.9427C49.4682 73.8571 49.2992 73.8019 49.1245 73.7799C48.8587 73.7457 48.5888 73.7929 48.3503 73.9151C48.0488 74.0716 47.8174 74.336 47.702 74.6555V74.6923L47.6682 74.6708C47.3481 74.4595 46.992 74.3085 46.6176 74.2253C46.4205 74.1846 46.218 74.1774 46.0185 74.2038C45.8294 74.2296 45.6469 74.2911 45.4808 74.3851C45.3301 74.4619 45.1974 74.5697 45.0915 74.7016C44.9856 74.8335 44.9088 74.9863 44.8664 75.1501V75.1931L44.8326 75.1654C44.6753 75.038 44.479 74.9686 44.2765 74.9688C44.1211 74.9668 43.9674 75.0015 43.828 75.0702C43.7099 75.133 43.6047 75.2174 43.5177 75.3191Z" fill="white"/>
<path d="M49.7789 74.1455C49.7789 74.1455 49.7789 74.167 49.7543 74.207C49.7316 74.2668 49.7141 74.3284 49.7021 74.3913C49.6837 74.4742 49.6683 74.5756 49.6437 74.6985C49.6259 74.8379 49.5788 74.9719 49.5055 75.0917C49.4519 75.1605 49.3737 75.2057 49.2874 75.2177C49.1986 75.2284 49.1088 75.2284 49.0201 75.2177C48.9298 75.2047 48.8377 75.2153 48.7528 75.2484C48.6663 75.2928 48.5908 75.3557 48.5316 75.4328C48.464 75.5096 48.4026 75.5956 48.335 75.6847C48.2731 75.782 48.1964 75.8691 48.1076 75.9427C48.0064 76.0134 47.8892 76.0577 47.7666 76.0718C47.7034 76.0809 47.6393 76.0809 47.5761 76.0718C47.5415 76.0657 47.5085 76.0528 47.479 76.0338C47.4494 76.0148 47.424 75.9901 47.4041 75.9612H47.4625C47.4426 76.0545 47.4094 76.1445 47.3642 76.2285C47.3172 76.315 47.2559 76.3929 47.1829 76.4589C47.0283 76.5907 46.84 76.6769 46.6391 76.7077C46.5559 76.7215 46.4716 76.7277 46.3872 76.7262C46.3124 76.7088 46.2346 76.7088 46.1598 76.7262C46.0896 76.7506 46.0307 76.7998 45.994 76.8644C45.947 76.9293 45.8957 76.9909 45.8403 77.0487C45.6354 77.2789 45.3513 77.4237 45.0446 77.4543C44.7701 77.4417 44.5094 77.3305 44.3104 77.1409C44.133 76.9877 44.0065 76.7841 43.9479 76.5572H43.9755C43.887 76.5781 43.7951 76.5795 43.706 76.5615C43.6169 76.5435 43.5328 76.5064 43.4594 76.4527C43.3497 76.3701 43.2725 76.2516 43.2412 76.1179C43.223 76.0359 43.223 75.951 43.2412 75.869L43.2566 75.8076V75.7861C43.2314 75.8931 43.2314 76.0046 43.2566 76.1117C43.2895 76.2356 43.3645 76.3442 43.4686 76.4189C43.538 76.4685 43.6174 76.5024 43.7012 76.5183C43.785 76.5342 43.8712 76.5318 43.954 76.5111H43.9755V76.5326C44.0356 76.7496 44.1598 76.9434 44.3319 77.0887C44.5272 77.2632 44.7796 77.3605 45.0416 77.3621C45.3327 77.3293 45.6011 77.1891 45.7943 76.9689C45.8485 76.9141 45.8988 76.8556 45.9448 76.7937C45.9887 76.7188 46.057 76.6614 46.1383 76.6309C46.1797 76.6161 46.2234 76.6088 46.2674 76.6094H46.3903C46.4695 76.611 46.5488 76.6049 46.6268 76.591C46.8163 76.5627 46.9941 76.4818 47.1399 76.3575C47.2071 76.2962 47.2641 76.2247 47.3089 76.1455C47.3516 76.0678 47.3817 75.9838 47.3979 75.8967L47.4164 75.8229L47.4563 75.8844C47.4944 75.926 47.5432 75.9563 47.5974 75.9721C47.6516 75.9878 47.7091 75.9883 47.7635 75.9735C47.8738 75.9598 47.9792 75.9198 48.0708 75.8567C48.155 75.7867 48.2275 75.7037 48.2858 75.6109C48.3534 75.5249 48.4179 75.4389 48.4855 75.359C48.5533 75.2788 48.6356 75.212 48.7282 75.1624C48.8214 75.1278 48.922 75.1183 49.0201 75.1348C49.1059 75.1437 49.1923 75.1437 49.2781 75.1348C49.3154 75.1302 49.3514 75.1184 49.3841 75.0999C49.4168 75.0815 49.4455 75.0568 49.4686 75.0272C49.5421 74.9139 49.5903 74.7861 49.6099 74.6524C49.6376 74.5357 49.656 74.4343 49.6775 74.3452C49.6939 74.2831 49.7155 74.2225 49.742 74.1639C49.7539 74.1569 49.7662 74.1508 49.7789 74.1455Z" fill="#455A64"/>
<path d="M48.6422 81.5435C48.5697 81.7331 48.5666 81.9424 48.6335 82.1341C48.7004 82.3258 48.833 82.4877 49.0078 82.5911C49.0808 82.6276 49.1605 82.6492 49.242 82.6545C49.3235 82.6599 49.4053 82.649 49.4825 82.6224C49.5597 82.5958 49.6309 82.554 49.6918 82.4996C49.7527 82.4452 49.8022 82.3791 49.8373 82.3054C49.91 82.1392 49.9417 81.9579 49.9294 81.7769C49.5669 81.7001 49.0016 81.6203 48.6422 81.5435Z" fill="#6F4439"/>
<path d="M49.7851 82.4127C49.7629 82.4517 49.7312 82.4845 49.6929 82.508C49.5951 82.5805 49.4793 82.6251 49.3581 82.637C49.1745 82.6549 48.9912 82.5997 48.8481 82.4834C48.7597 82.4136 48.6868 82.3262 48.6339 82.2268C48.581 82.1274 48.5493 82.0181 48.5409 81.9058C48.5323 81.7892 48.5427 81.672 48.5716 81.5587V81.531H48.5992C48.971 81.5955 49.2936 81.657 49.5209 81.703C49.6452 81.7252 49.7683 81.7539 49.8896 81.7891C49.7699 81.7852 49.6507 81.7718 49.5332 81.7491C49.2997 81.7123 48.974 81.66 48.6115 81.5955L48.6484 81.5709C48.6222 81.6774 48.6129 81.7873 48.6207 81.8966C48.6284 82.0002 48.6568 82.1012 48.7043 82.1935C48.7518 82.2859 48.8174 82.3677 48.8972 82.4342C49.0281 82.5444 49.1966 82.5994 49.3673 82.5878C49.4827 82.5801 49.5945 82.5442 49.6929 82.4834C49.7482 82.4435 49.782 82.4066 49.7851 82.4127Z" fill="#263238"/>
<path d="M85.6793 43.0979H40.8467C39.1465 43.0979 37.7683 44.4761 37.7683 46.1763V60.5327C37.7683 62.2328 39.1465 63.611 40.8467 63.611H85.6793C87.3795 63.611 88.7577 62.2328 88.7577 60.5327V46.1763C88.7577 44.4761 87.3795 43.0979 85.6793 43.0979Z" fill="white"/>
<path d="M85.6824 63.6233H85.7715C85.8329 63.6233 85.922 63.6233 86.0357 63.6018C86.3811 63.5546 86.7163 63.4508 87.028 63.2946C87.5322 63.0426 87.9573 62.6568 88.2569 62.1794C88.4496 61.8766 88.5859 61.5415 88.6593 61.1902C88.7253 60.7841 88.748 60.3721 88.7269 59.9613C88.7269 58.2163 88.7269 56.0872 88.7116 53.611C88.7116 52.3821 88.7116 51.0611 88.7116 49.6479C88.7116 48.9443 88.7116 48.2255 88.7116 47.482V46.3576C88.7234 45.9778 88.6714 45.5988 88.558 45.2362C88.3701 44.6696 88.0186 44.1715 87.5478 43.8046C87.077 43.4377 86.5081 43.2185 85.9128 43.1748C85.5042 43.1532 85.0772 43.1748 84.6532 43.1748H79.3536H67.6578H40.8558C40.2767 43.1741 39.7098 43.3415 39.2239 43.6567C38.738 43.9719 38.354 44.4213 38.1185 44.9505C38.0017 45.2113 37.9231 45.4875 37.885 45.7708C37.8577 46.0577 37.8474 46.3459 37.8543 46.6341V58.5481C37.8543 59.098 37.8543 59.6448 37.8543 60.1917C37.8188 60.7241 37.9083 61.2575 38.1154 61.7493C38.3282 62.2266 38.6616 62.6403 39.0829 62.9495C39.5042 63.2587 39.9988 63.4528 40.5179 63.5127C40.7729 63.5373 41.034 63.5342 41.2982 63.5342H43.6362L65.5257 63.5527L80.2722 63.5773H84.2845L80.2722 63.5926L65.5257 63.6172L43.6362 63.6356H41.2982C41.0329 63.6432 40.7673 63.637 40.5025 63.6172C39.9578 63.5546 39.4385 63.3519 38.9954 63.0288C38.5522 62.7058 38.2004 62.2734 37.9741 61.7739C37.7601 61.2623 37.6666 60.7083 37.7007 60.1548V55.2209C37.7007 52.9679 37.7007 50.6883 37.7007 48.3821V46.6371C37.6922 46.3418 37.7035 46.0462 37.7345 45.7523C37.7723 45.4542 37.8541 45.1632 37.9772 44.889C38.2269 44.3325 38.6319 43.8599 39.1436 43.528C39.6554 43.1961 40.2521 43.0191 40.862 43.0181L67.6547 43.0396H79.3506H84.6501C85.0772 43.0396 85.4919 43.0396 85.9159 43.0396C86.5355 43.0847 87.1277 43.3133 87.6168 43.6964C88.106 44.0794 88.47 44.5994 88.6624 45.1901C88.778 45.5639 88.831 45.9542 88.8191 46.3453C88.8191 46.7262 88.8191 47.101 88.8191 47.4697C88.8191 48.2132 88.8191 48.9321 88.8191 49.6356C88.8191 51.0386 88.8191 52.3596 88.8191 53.5987C88.8191 56.0749 88.8191 58.207 88.8191 59.949C88.8388 60.3601 88.8141 60.7721 88.7454 61.1779C88.6699 61.5358 88.5282 61.8766 88.3276 62.1825C88.0208 62.666 87.5844 63.0535 87.0679 63.3008C86.7527 63.4527 86.4141 63.5503 86.0664 63.5895C85.8053 63.6233 85.6824 63.6233 85.6824 63.6233Z" fill="#263238"/>
<path d="M81.6547 57.7616C80.7384 57.6947 79.886 57.2671 79.2847 56.5724C78.6834 55.8778 78.3822 54.973 78.4473 54.0565C78.5142 53.1405 78.942 52.2884 79.6367 51.6876C80.3314 51.0867 81.2363 50.7863 82.1524 50.8522C83.0654 50.9184 83.915 51.3433 84.5155 52.0342C85.1159 52.7251 85.4184 53.6256 85.3567 54.5389C85.3263 54.9939 85.2063 55.4385 85.0036 55.8471C84.8009 56.2556 84.5194 56.6201 84.1754 56.9195C83.8314 57.219 83.4317 57.4476 82.9991 57.5921C82.5665 57.7366 82.1096 57.7942 81.6547 57.7616Z" fill="#28C76F"/>
<path d="M81.6916 56.1272L79.6147 54.5112L80.177 53.7831L81.5717 54.8676L83.5656 52.5911L84.2569 53.1963L81.6916 56.1272Z" fill="white"/>
<path d="M73.9036 52.7078H60.8743C59.7223 52.7078 58.7883 53.6417 58.7883 54.7938C58.7883 55.9459 59.7223 56.8798 60.8743 56.8798H73.9036C75.0556 56.8798 75.9896 55.9459 75.9896 54.7938C75.9896 53.6417 75.0556 52.7078 73.9036 52.7078Z" fill="#E0E0E0"/>
<path d="M53.8203 59.7998C57.235 57.1511 57.856 52.2357 55.2072 48.821C52.5585 45.4063 47.6431 44.7853 44.2284 47.434C40.8137 50.0828 40.1927 54.9982 42.8415 58.4129C45.4902 61.8276 50.4056 62.4485 53.8203 59.7998Z" fill="white"/>
<path d="M42.0755 57.1285C42.0755 57.1285 42.1001 57.1623 42.1431 57.2361L42.3305 57.5617L42.4657 57.7983C42.521 57.8843 42.5886 57.9734 42.6562 58.0717C42.8088 58.3022 42.9772 58.5219 43.16 58.7292C43.6505 59.3068 44.2253 59.8071 44.8651 60.213C45.7977 60.8147 46.8471 61.212 47.9443 61.3788C49.0414 61.5456 50.1615 61.4781 51.2307 61.1808C51.5451 61.09 51.853 60.9782 52.1524 60.8459C52.306 60.7783 52.4596 60.7169 52.6193 60.6401L53.071 60.3882C53.1478 60.3421 53.2246 60.3052 53.2983 60.256L53.5134 60.1055C53.6578 60.0011 53.8206 59.9058 53.9496 59.7983C54.2312 59.5707 54.498 59.3255 54.7484 59.064C55.0056 58.7965 55.2447 58.5122 55.4642 58.213C55.5717 58.0594 55.6701 57.9058 55.7714 57.7368C55.8771 57.5772 55.9706 57.4098 56.051 57.2361C56.2299 56.8918 56.3849 56.5356 56.5149 56.17C56.6353 55.7927 56.7308 55.4078 56.8006 55.0179C56.9472 54.2189 56.9649 53.4016 56.8528 52.597C56.6277 50.9246 55.8629 49.3713 54.6747 48.1731L54.2292 47.746L53.7499 47.3712C53.6717 47.3064 53.5885 47.2478 53.5011 47.1961L53.2461 47.0333L52.9911 46.8705L52.7238 46.7353C52.3725 46.553 52.0091 46.3949 51.6362 46.2622C51.2671 46.1421 50.8905 46.0467 50.5087 45.9764C50.3215 45.9353 50.1316 45.9076 49.9404 45.8935C49.753 45.8781 49.5656 45.8536 49.3751 45.8474C49.0038 45.838 48.6322 45.8534 48.263 45.8935C47.903 45.9337 47.546 45.9963 47.1938 46.0809C47.0218 46.127 46.8528 46.1854 46.6838 46.2376L46.4319 46.3144C46.349 46.342 46.2722 46.382 46.1923 46.4158L45.7161 46.6216C45.5594 46.6923 45.4089 46.7844 45.2676 46.8612C44.9763 47.0227 44.6962 47.2034 44.4289 47.4019C43.5417 48.0691 42.8056 48.9162 42.2687 49.8877C41.7318 50.8593 41.4064 51.9333 41.3136 53.0394C41.2471 53.7939 41.2947 54.5542 41.455 55.2944C41.5046 55.5655 41.5744 55.8325 41.6639 56.0932C41.7007 56.21 41.7315 56.3175 41.7653 56.4004L41.8728 56.6554L42.0141 57.0026C42.0448 57.0794 42.0602 57.1224 42.0602 57.1224C42.0602 57.1224 42.0387 57.0825 42.0049 57.0057C41.9711 56.9289 41.9158 56.8121 41.8513 56.6646C41.8175 56.5878 41.7806 56.5049 41.7376 56.4127C41.6946 56.3206 41.67 56.21 41.6331 56.1055C41.5395 55.8439 41.4646 55.5759 41.4089 55.3037C41.241 54.5593 41.1881 53.7936 41.2522 53.0333C41.3369 51.9147 41.6591 50.8269 42.1974 49.8426C42.7356 48.8583 43.4775 48.0001 44.3736 47.3251C44.6421 47.1235 44.9244 46.9407 45.2184 46.7783C45.3689 46.6953 45.5256 46.6062 45.6731 46.5294L46.1524 46.3236C46.2353 46.2898 46.3152 46.2499 46.3981 46.2192L46.6531 46.1393C46.8252 46.087 46.9941 46.0256 47.1693 45.9795C47.5265 45.8937 47.8887 45.83 48.2537 45.789C48.628 45.7463 49.0047 45.7299 49.3812 45.7399C49.5717 45.7399 49.7622 45.7706 49.9527 45.786C50.1459 45.7998 50.3379 45.8275 50.5272 45.8689C50.915 45.9391 51.2978 46.0345 51.6731 46.1546C52.0509 46.2911 52.4194 46.4522 52.776 46.637L53.0464 46.7752L53.3045 46.938L53.5625 47.1009C53.6513 47.1531 53.7356 47.2127 53.8144 47.2791L54.3029 47.6631L54.7576 48.0932C55.9639 49.3079 56.7388 50.8846 56.9635 52.5817C57.0801 53.3983 57.0624 54.2285 56.9112 55.0394C56.8408 55.4348 56.7433 55.8249 56.6194 56.2069C56.486 56.577 56.329 56.9383 56.1493 57.2883C56.0668 57.4632 55.9713 57.6316 55.8636 57.7921C55.7591 57.955 55.6608 58.1209 55.5564 58.2745C55.3355 58.5791 55.0932 58.8676 54.8313 59.1378C54.5765 59.4031 54.3045 59.6515 54.0172 59.8812C53.8759 59.9918 53.71 60.0902 53.5779 60.1885L53.3598 60.3421C53.286 60.3912 53.2061 60.4281 53.1293 60.4742L52.6685 60.7292C52.5149 60.806 52.3613 60.8674 52.1985 60.9381C51.8898 61.0706 51.5726 61.1824 51.2491 61.273C50.1678 61.5704 49.0357 61.6347 47.9276 61.4615C46.8196 61.2883 45.761 60.8816 44.8221 60.2683C44.1795 59.855 43.6044 59.3452 43.117 58.7568C42.9347 58.5473 42.7684 58.3245 42.6193 58.0901C42.5517 57.9918 42.4841 57.9027 42.4319 57.8136L42.2998 57.5709L42.1216 57.2422L42.0755 57.1285Z" fill="#263238"/>
<path d="M43.16 58.7292L46.1646 57.6785L50.9573 57.4941L55.3659 58.3421C55.3659 58.3421 53.2154 61.6693 49.2584 61.5556C48.1027 61.5259 46.9654 61.2598 45.9166 60.7737C44.8678 60.2876 43.9296 59.5918 43.16 58.7292Z" fill="#28C76F"/>
<path d="M52.2599 46.7629C53.2707 46.7844 54.137 48.299 53.9865 49.1347C53.9127 49.5464 53.7253 50.0164 54.0571 50.3236C54.3889 50.6308 55.0802 50.6001 55.3935 50.9104C55.6296 51.1584 55.7578 51.4898 55.7499 51.8321C55.7069 52.3513 55.7899 53.0425 56.2015 53.2269L54.137 53.958C53.925 53.743 53.8298 53.405 53.6301 53.19C53.8728 53.4143 54.1063 54.2161 53.0157 54.3052L52.3336 53.6908C50.4657 54.17 48.5026 54.766 47.0126 53.9519" fill="#263238"/>
<path d="M42.7422 51.2547C42.912 50.8795 43.0628 50.4961 43.1938 50.1057C43.3935 49.2455 42.9911 48.2624 43.4242 47.4943C43.7315 46.9444 44.3766 46.6863 44.9818 46.5112C45.5871 46.3361 46.1646 46.2347 46.6224 45.8015C46.9573 45.4943 47.1508 45.0427 47.4857 44.7232C48.0015 44.3056 48.6503 44.0875 49.3136 44.1087C49.99 44.0581 50.6681 44.1818 51.2829 44.4682C51.5877 44.613 51.8542 44.8275 52.0607 45.0943C52.2673 45.3612 52.4081 45.6729 52.4719 46.0043C52.4797 46.334 52.5125 46.6627 52.5702 46.9874C52.7215 47.3157 52.8992 47.6311 53.1017 47.9306C53.263 48.2789 53.3041 48.671 53.2184 49.0452C53.1328 49.4194 52.9253 49.7546 52.6286 49.9981L47.8851 55.8906C46.9081 56.2409 45.8421 54.9936 45.1201 54.2624C44.3981 53.5312 42.4012 52.2347 42.7422 51.2547Z" fill="#263238"/>
<path d="M52.521 49.2331C52.3551 47.8721 51.3535 46.25 50.0018 46.4681L45.8144 47.7891C45.4027 47.8567 45.1815 48.1855 45.0402 48.124L46.269 57.866L49.1446 59.8998L50.9296 57.7492C50.9296 57.7492 50.7975 56.4128 50.7975 56.419C50.7975 56.4251 52.5271 56.0288 52.7575 53.7308C52.8681 52.6002 52.7053 50.7477 52.521 49.2331Z" fill="#FFBF9D"/>
<path d="M48.8528 51.3069C48.8579 51.3825 48.8331 51.4572 48.7836 51.5146C48.7342 51.5721 48.6642 51.6079 48.5886 51.6141C48.5153 51.6219 48.442 51.6005 48.3844 51.5544C48.3269 51.5084 48.2899 51.4415 48.2814 51.3684C48.2807 51.2938 48.3071 51.2215 48.3557 51.165C48.4043 51.1085 48.4718 51.0716 48.5456 51.0611C48.6189 51.0534 48.6922 51.0748 48.7498 51.1208C48.8073 51.1669 48.8443 51.2337 48.8528 51.3069Z" fill="#263238"/>
<path d="M51.7376 51.1593C51.7383 51.2338 51.7119 51.3061 51.6633 51.3626C51.6147 51.4192 51.5472 51.4561 51.4734 51.4665C51.4003 51.4735 51.3273 51.4517 51.27 51.4058C51.2126 51.36 51.1754 51.2936 51.1662 51.2207C51.1654 51.1462 51.1918 51.0739 51.2404 51.0174C51.289 50.9609 51.3565 50.9239 51.4304 50.9135C51.4667 50.9092 51.5035 50.9122 51.5387 50.9223C51.5739 50.9324 51.6067 50.9493 51.6353 50.9722C51.6639 50.9951 51.6877 51.0234 51.7052 51.0555C51.7228 51.0876 51.7338 51.1229 51.7376 51.1593Z" fill="#263238"/>
<path d="M52.2507 50.2745C52.2199 50.3267 51.9434 50.1516 51.6116 50.1946C51.2798 50.2376 51.0464 50.4649 50.9972 50.4219C50.948 50.3789 50.9972 50.3113 51.1016 50.2069C51.2257 50.0709 51.3949 49.9846 51.5778 49.9642C51.76 49.9431 51.9437 49.9866 52.097 50.0871C52.2199 50.1669 52.2691 50.2499 52.2507 50.2745Z" fill="#263238"/>
<path d="M49.1354 50.5603C49.0955 50.6064 48.8282 50.4098 48.4657 50.419C48.1032 50.4282 47.8512 50.6279 47.7959 50.5818C47.7406 50.5357 47.8174 50.4743 47.9311 50.379C48.0843 50.2603 48.2719 50.1945 48.4657 50.1916C48.6585 50.1851 48.8475 50.2459 49.0002 50.3637C49.117 50.4528 49.1569 50.5388 49.1354 50.5603Z" fill="#263238"/>
<path d="M50.3643 52.7261C50.5261 52.6631 50.6955 52.6218 50.8682 52.6032C50.948 52.6032 51.0248 52.5694 51.0341 52.5141C51.0354 52.4313 51.0118 52.35 50.9665 52.2806L50.6931 51.6662C50.4475 51.1608 50.2421 50.6369 50.0786 50.0994C50.3658 50.5931 50.6133 51.1088 50.819 51.6416C50.9112 51.8505 50.9972 52.0502 51.0801 52.2561C51.1366 52.3478 51.1584 52.4568 51.1416 52.5633C51.132 52.5927 51.1156 52.6194 51.0937 52.6413C51.0718 52.6632 51.0451 52.6796 51.0156 52.6892C50.9718 52.7035 50.9264 52.7128 50.8805 52.7169C50.7093 52.7391 50.5362 52.7422 50.3643 52.7261Z" fill="#263238"/>
<path d="M50.7945 56.4314C49.7192 56.512 48.6427 56.2918 47.6854 55.7954C47.6854 55.7954 48.5487 57.4175 50.816 57.0734L50.7945 56.4314Z" fill="#FF9A6C"/>
<path d="M50.2753 53.485C50.2115 53.4129 50.1302 53.3583 50.0393 53.3266C49.9484 53.2948 49.8509 53.287 49.7561 53.3038C49.6867 53.3132 49.62 53.3369 49.5603 53.3734C49.5005 53.4099 49.449 53.4584 49.4089 53.5158C49.3699 53.5704 49.3489 53.636 49.3489 53.7032C49.3489 53.7703 49.3699 53.8359 49.4089 53.8906C49.4622 53.9446 49.5308 53.9812 49.6054 53.9955C49.68 54.0098 49.7572 54.001 49.8267 53.9704C49.9721 53.9104 50.1037 53.8216 50.2138 53.7093C50.2482 53.682 50.2773 53.6487 50.2998 53.611C50.3111 53.5936 50.3171 53.5733 50.3171 53.5526C50.3171 53.5319 50.3111 53.5116 50.2998 53.4942" fill="#28C76F"/>
<path d="M49.452 52.9966C49.5011 52.9966 49.5226 53.3314 49.8298 53.5557C50.1371 53.78 50.4965 53.7247 50.4996 53.7708C50.5026 53.8169 50.4228 53.8414 50.2722 53.8537C50.0718 53.8691 49.8724 53.8124 49.71 53.694C49.5503 53.5832 49.4401 53.4146 49.4028 53.2239C49.3936 53.0826 49.4274 52.9966 49.452 52.9966Z" fill="#263238"/>
<path d="M49.1262 49.4912C49.1017 49.5803 48.7852 49.5588 48.4196 49.6233C48.054 49.6878 47.7591 49.8076 47.7069 49.7339C47.6547 49.6602 47.7284 49.6141 47.8451 49.525C47.999 49.4131 48.1767 49.3384 48.3643 49.3069C48.5518 49.2736 48.7444 49.2852 48.9266 49.3406C49.0648 49.3837 49.1385 49.4482 49.1262 49.4912Z" fill="#263238"/>
<path d="M52.1554 49.1409C52.097 49.2146 51.8481 49.1409 51.5409 49.1685C51.2337 49.1962 50.9941 49.2484 50.9265 49.1685C50.8589 49.0886 50.9265 49.061 51.0402 48.9872C51.1859 48.8931 51.3552 48.842 51.5286 48.8398C51.7002 48.8321 51.8704 48.8726 52.0202 48.9565C52.1431 49.0333 52.1799 49.104 52.1554 49.1409Z" fill="#263238"/>
<path d="M41.3965 50.8153C41.6116 50.419 41.1968 49.9766 41.5286 49.608C41.8604 49.2393 42.6223 49.2639 42.905 48.9229C42.9866 48.8494 43.0505 48.7585 43.092 48.6569C43.1335 48.5553 43.1515 48.4456 43.1446 48.3361C43.1446 48.0288 43.2952 46.7109 45.2122 46.4467L45.4795 47.6387C45.5993 47.5834 45.7222 47.5342 45.8451 47.4912C47.4092 46.9214 49.0356 46.5398 50.69 46.3545C50.7673 46.5363 50.7789 46.7394 50.7228 46.9289C50.6668 47.1183 50.5465 47.2824 50.3827 47.3929C50.0472 47.6044 49.6801 47.761 49.2952 47.8568C49.1023 47.9055 48.9213 47.9927 48.7629 48.113C48.6045 48.2334 48.4721 48.3845 48.3735 48.5573C48.2045 48.9413 48.3305 49.4021 48.183 49.7861C47.925 50.4651 46.9695 50.6648 46.7145 51.3438C46.521 51.8568 47.0217 52.4436 47.0955 52.9874C47.1692 53.6018 47.2952 54.5573 46.8374 54.9751C46.495 55.2661 46.136 55.5369 45.7621 55.7862L40.1031 52.2285C39.8051 51.5189 41.1016 51.3591 41.3965 50.8153Z" fill="#263238"/>
<path d="M45.415 55.1931C45.5678 55.1638 45.7157 55.1132 45.8544 55.0426C46.3362 54.8056 46.7159 54.4021 46.9232 53.9068C47.1305 53.4114 47.1513 52.8578 46.9819 52.3482C46.9296 52.1793 46.8651 52.0072 46.8221 51.8321C46.776 51.6533 46.7707 51.4664 46.8068 51.2853C46.8283 51.1945 46.868 51.1091 46.9235 51.0342C46.9789 50.9592 47.0489 50.8962 47.1293 50.849C47.306 50.7554 47.4899 50.6763 47.6793 50.6124C47.8792 50.5509 48.0586 50.4362 48.1985 50.2807C48.3203 50.1156 48.3889 49.9173 48.3951 49.7123C48.4258 49.3252 48.3582 48.9442 48.4903 48.6217L48.5149 48.5633L48.5456 48.508C48.5674 48.4723 48.5921 48.4383 48.6194 48.4066C48.6738 48.3454 48.7369 48.2927 48.8068 48.2499C48.9441 48.1688 49.0919 48.1068 49.2461 48.0656C49.5349 48.0034 49.8132 47.9 50.0725 47.7584C50.2808 47.6288 50.4597 47.4572 50.5979 47.2545C50.7023 47.1032 50.7822 46.9362 50.8344 46.7599C50.8681 46.6489 50.8897 46.5345 50.8989 46.4189C50.903 46.3791 50.903 46.3389 50.8989 46.2991C50.8817 46.4521 50.8509 46.6032 50.8068 46.7507C50.751 46.9229 50.6692 47.0856 50.5641 47.233C50.4247 47.4266 50.2482 47.5906 50.0449 47.7154C49.7881 47.8494 49.5142 47.9476 49.2307 48.0072C49.0703 48.0486 48.9163 48.1116 48.773 48.1946C48.6968 48.2397 48.6283 48.2968 48.5702 48.3636C48.5392 48.3971 48.5124 48.4342 48.4903 48.4742L48.4535 48.5326L48.4258 48.5971C48.2845 48.9442 48.3551 49.3313 48.3214 49.7061C48.3158 49.8961 48.2538 50.0801 48.1432 50.2346C48.0098 50.3777 47.8415 50.4836 47.6547 50.5418C47.4598 50.6042 47.2715 50.6854 47.0925 50.7845C47.0021 50.8348 46.9235 50.9039 46.8621 50.9871C46.8006 51.0703 46.7577 51.1657 46.7361 51.2668C46.6974 51.4582 46.7037 51.6559 46.7545 51.8444C46.7975 52.0287 46.8651 52.1977 46.9174 52.3667C47.0158 52.6613 47.051 52.9733 47.0209 53.2824C46.9907 53.5915 46.8957 53.8908 46.7422 54.1608C46.5298 54.5271 46.2176 54.8254 45.8421 55.0211C45.7425 55.0722 45.6399 55.1174 45.5349 55.1562L45.415 55.1931Z" fill="#263238"/>
<path d="M52.0326 46.8767C52.1468 46.848 52.2628 46.8264 52.3797 46.8122C52.6983 46.7832 53.0185 46.8472 53.3014 46.9966C53.5079 47.1093 53.6877 47.2655 53.8282 47.4543C53.9687 47.6431 54.0667 47.86 54.1155 48.0903C54.1647 48.365 54.175 48.6452 54.1462 48.9228C54.1462 49.0672 54.1186 49.2147 54.1032 49.3683C54.0865 49.525 54.0927 49.6834 54.1217 49.8383C54.1359 49.9194 54.1678 49.9964 54.215 50.0638C54.2622 50.1312 54.3237 50.1875 54.3951 50.2285C54.538 50.2914 54.6938 50.3199 54.8498 50.3115C54.991 50.3037 55.1325 50.3151 55.2707 50.3453C55.4 50.3807 55.5211 50.4413 55.627 50.5234C55.8277 50.6727 55.9648 50.8921 56.0111 51.1379C56.0448 51.3557 56.0448 51.5775 56.0111 51.7953C55.9806 51.9772 55.9622 52.1609 55.9558 52.3453C55.9531 52.4853 55.9706 52.625 56.008 52.76C56.0308 52.8466 56.0682 52.9287 56.1186 53.0027C56.1308 53.0209 56.1442 53.0384 56.1585 53.0549L56.177 53.0734C56.1155 52.9782 56.0679 52.8748 56.0356 52.7662C56.0028 52.6326 55.9903 52.4948 55.9988 52.3575C56.0095 52.1753 56.03 51.9938 56.0602 51.8138C56.1011 51.5917 56.1063 51.3646 56.0756 51.141C56.0282 50.8785 55.8833 50.6436 55.67 50.4835C55.5569 50.3955 55.4274 50.3307 55.2891 50.293C55.1462 50.2598 54.9994 50.2464 54.8528 50.2531C54.7097 50.262 54.5665 50.2368 54.435 50.1794C54.3717 50.1441 54.3175 50.0947 54.2764 50.035C54.2354 49.9753 54.2087 49.907 54.1985 49.8353C54.1672 49.5386 54.1744 49.2391 54.22 48.9443C54.2512 48.6594 54.2388 48.3714 54.1831 48.0903C54.132 47.8516 54.029 47.6272 53.8814 47.4328C53.7338 47.2385 53.5452 47.0791 53.329 46.9658C53.0363 46.8167 52.7056 46.7589 52.3797 46.7999C52.292 46.811 52.2056 46.8306 52.1217 46.8583C52.0602 46.8614 52.0295 46.8737 52.0326 46.8767Z" fill="#263238"/>
<path d="M42.4996 53.6785C42.4996 53.6785 42.4996 53.6785 42.4996 53.6447C42.486 53.6107 42.4747 53.5758 42.4658 53.5403C42.4278 53.4064 42.4214 53.2654 42.4473 53.1286C42.4869 52.9105 42.5944 52.7105 42.7546 52.5572C42.8566 52.4651 42.9786 52.3978 43.1109 52.3606C43.2522 52.3237 43.4181 52.3083 43.5656 52.2561C43.6472 52.2283 43.7224 52.1844 43.7868 52.1271C43.8519 52.0641 43.9022 51.9875 43.9343 51.9028C43.9964 51.7202 44.0184 51.5263 43.9988 51.3344C43.9803 51.1383 43.9803 50.9408 43.9988 50.7446C44.0113 50.644 44.0437 50.5469 44.094 50.4589C44.1496 50.37 44.2241 50.2945 44.3122 50.2377C44.5037 50.1318 44.7112 50.0582 44.9266 50.0195C45.1571 49.9769 45.3784 49.8948 45.581 49.7768C45.6833 49.7093 45.7685 49.6188 45.8298 49.5126C45.8879 49.404 45.9283 49.2868 45.9496 49.1655C45.9957 48.9228 45.9957 48.6739 46.0418 48.4312C46.0894 48.1955 46.1957 47.9756 46.3509 47.792C46.5062 47.6083 46.7052 47.4668 46.9297 47.3805C47.1479 47.3132 47.3742 47.276 47.6025 47.2699C47.7162 47.2609 47.8285 47.2393 47.9374 47.2054C48.0461 47.1738 48.1453 47.1158 48.2261 47.0364C48.3625 46.8706 48.4602 46.6765 48.5119 46.4681C48.5785 46.2808 48.6831 46.1092 48.8191 45.9642C49.0606 45.7029 49.3874 45.5363 49.7407 45.4942C50.0326 45.4615 50.3272 45.5251 50.5795 45.6755C50.7697 45.7887 50.9331 45.9417 51.0587 46.124C51.1377 46.2384 51.1997 46.3636 51.243 46.4957C51.2562 46.5307 51.2665 46.5666 51.2738 46.6033C51.2738 46.6248 51.2738 46.6371 51.2738 46.6371C51.266 46.5892 51.2547 46.5419 51.24 46.4957C51.2029 46.3591 51.1437 46.2293 51.0649 46.1117C50.9384 45.9266 50.774 45.7706 50.5825 45.6539C50.3256 45.4975 50.0246 45.4295 49.7254 45.4604C49.3631 45.5027 49.0276 45.6726 48.7791 45.9397C48.6428 46.0891 48.5382 46.2647 48.4719 46.4558C48.4201 46.6567 48.3258 46.8443 48.1954 47.0057C48.028 47.1474 47.8156 47.2247 47.5963 47.2238C47.3627 47.2317 47.1313 47.271 46.9082 47.3406C46.6748 47.4269 46.4675 47.5716 46.3061 47.761C46.1448 47.9503 46.0347 48.1779 45.9865 48.422C45.9374 48.6708 45.9374 48.9197 45.8943 49.1563C45.8736 49.2724 45.8342 49.3845 45.7776 49.4881C45.7199 49.5886 45.64 49.6748 45.5441 49.74C45.1509 49.9919 44.6532 49.9612 44.2753 50.2039C44.1819 50.2624 44.1039 50.3425 44.0479 50.4374C43.9925 50.5313 43.958 50.6361 43.9466 50.7446C43.9254 50.9489 43.9254 51.1548 43.9466 51.359C43.9626 51.5416 43.9417 51.7255 43.8851 51.8997C43.853 51.9786 43.8061 52.0505 43.7469 52.1117C43.6854 52.1653 43.6146 52.2069 43.538 52.2346C43.3843 52.2868 43.2307 52.3022 43.0833 52.3421C42.9483 52.3822 42.8243 52.4526 42.7208 52.548C42.5565 52.7044 42.4485 52.9107 42.4135 53.1348C42.3876 53.274 42.396 53.4174 42.4381 53.5526C42.4486 53.5884 42.4619 53.6234 42.478 53.657L42.4996 53.6785Z" fill="#455A64"/>
</svg>
