<svg width="53" height="114" viewBox="0 0 53 114" fill="none" xmlns="http://www.w3.org/2000/svg">
<path d="M21.308 13.4481C22.8097 12.8628 24.0597 11.7712 24.8419 10.362C25.6241 8.95273 25.8892 7.31447 25.5915 5.73046C25.2937 4.14644 24.4518 2.71627 23.2113 1.68723C21.9708 0.658184 20.4097 0.0949707 18.798 0.0949707C17.1862 0.0949707 15.6251 0.658184 14.3846 1.68723C13.1441 2.71627 12.3022 4.14644 12.0045 5.73046C11.7067 7.31447 11.9719 8.95273 12.754 10.362C13.5362 11.7712 14.7862 12.8628 16.288 13.4481C5.66122 14.9535 6.1497 25.7953 6.1497 25.7953L31.2742 25.9028C31.2742 25.9028 31.8426 14.9442 21.308 13.4481Z" fill="#EBEBEB"/>
<path d="M37.298 24.1766C37.3385 20.1047 34.0703 16.7708 29.9984 16.7303C25.9264 16.6898 22.5926 19.958 22.5521 24.0299C22.5116 28.1019 25.7797 31.4357 29.8517 31.4762C33.9236 31.5167 37.2575 28.2486 37.298 24.1766Z" fill="#E0E0E0"/>
<path d="M37.2434 24.8922C37.2393 24.8523 37.2393 24.8122 37.2434 24.7723C37.2434 24.6863 37.2434 24.5696 37.2434 24.4221C37.2434 24.3422 37.2434 24.2562 37.2434 24.164C37.2434 24.0688 37.2434 23.9643 37.2434 23.8568C37.2374 23.5983 37.2127 23.3406 37.1697 23.0857C37.0675 22.3829 36.8603 21.6994 36.5553 21.058C36.1602 20.2074 35.6066 19.44 34.9239 18.7969C34.0368 17.9576 32.9528 17.3548 31.7718 17.0439C30.5907 16.7331 29.3505 16.7242 28.1651 17.0181C27.8275 17.0972 27.4959 17.1998 27.1728 17.3253C26.8446 17.4617 26.5264 17.6208 26.2204 17.8015C25.5836 18.1645 25.0099 18.6283 24.5214 19.1748C24.0059 19.7328 23.5827 20.3696 23.268 21.0611C22.6099 22.4926 22.4363 24.0996 22.7734 25.6387C22.9321 26.3816 23.209 27.0942 23.5936 27.7493C23.7784 28.0694 23.9837 28.3773 24.2081 28.671C24.4393 28.9502 24.6887 29.214 24.9546 29.4605C25.2138 29.7022 25.49 29.925 25.781 30.1272C26.0689 30.3207 26.3696 30.4941 26.6812 30.6464C27.8533 31.2219 29.1578 31.4743 30.46 31.3776C31.5944 31.2943 32.6933 30.9449 33.6674 30.3576C34.4734 29.8757 35.1794 29.2437 35.7473 28.4958C36.1795 27.9366 36.5244 27.3151 36.7703 26.6525C36.8676 26.413 36.9466 26.1666 37.0069 25.9152C37.0376 25.8046 37.0683 25.7063 37.0868 25.608C37.1052 25.5097 37.1205 25.4298 37.1328 25.353C37.1605 25.2086 37.1789 25.0949 37.1973 25.0089C37.2012 24.9692 37.2094 24.93 37.2219 24.8922C37.226 24.932 37.226 24.9721 37.2219 25.012L37.1728 25.3591L37.1359 25.6172C37.1175 25.7094 37.0898 25.8107 37.0622 25.9244C37.0058 26.1794 36.9308 26.43 36.8379 26.674C36.6004 27.3493 36.2594 27.9836 35.8271 28.5542C35.1971 29.399 34.3947 30.1002 33.4731 30.6114C32.5515 31.1225 31.5318 31.4318 30.4815 31.5189C29.1585 31.6163 27.8333 31.3608 26.6413 30.7785C26.3229 30.6236 26.0151 30.4481 25.7196 30.2532C25.4229 30.0451 25.1407 29.8172 24.8747 29.5711C24.602 29.3203 24.3464 29.0514 24.1098 28.7662C23.879 28.4731 23.6676 28.1652 23.4769 27.8445C23.0835 27.1771 22.7993 26.4511 22.6351 25.694C22.2891 24.1218 22.4671 22.4796 23.142 21.0181C23.4627 20.3106 23.8964 19.66 24.4262 19.0918C24.681 18.8139 24.954 18.5532 25.2434 18.3115C25.5376 18.0878 25.8454 17.8825 26.1651 17.6971C26.7815 17.3295 27.4509 17.059 28.1497 16.8952C29.4429 16.5818 30.7964 16.62 32.0698 17.0058C33.0779 17.3137 34.0087 17.833 34.8002 18.5292C35.5917 19.2253 36.2256 20.0822 36.6597 21.0427C36.9593 21.6937 37.1572 22.3869 37.2465 23.098C37.285 23.3553 37.3045 23.6151 37.3049 23.8753C37.3049 23.9889 37.3049 24.0934 37.3049 24.1825C37.3049 24.2716 37.3049 24.3637 37.2864 24.4405C37.2742 24.588 37.2649 24.7047 37.2588 24.7908C37.257 24.825 37.2519 24.8589 37.2434 24.8922Z" fill="white"/>
<path d="M29.3879 27.531L25.566 24.3267L26.6843 22.9934L29.2465 25.1408L33.182 20.9626L34.4478 22.1547L29.3879 27.531Z" fill="white"/>
<path d="M40.5554 12.6033C39.9922 13.2857 39.3879 13.9331 38.7458 14.5418C38.1429 15.1949 37.5007 15.8105 36.8226 16.3852C37.3869 15.7037 37.9911 15.0563 38.6322 14.4466C39.236 13.7944 39.8782 13.1789 40.5554 12.6033Z" fill="#E0E0E0"/>
<path d="M47.136 18.1116C47.0392 18.1715 46.9362 18.2209 46.8288 18.259C46.6261 18.3481 46.3281 18.4649 45.9563 18.6001C45.2159 18.8766 44.1806 19.2145 43.0193 19.5432C41.858 19.8719 40.7889 20.0993 40.0116 20.2468C39.6245 20.3174 39.3081 20.3727 39.0899 20.4004C38.9767 20.4235 38.8614 20.4348 38.7458 20.4342C38.8515 20.3872 38.9632 20.3551 39.0777 20.3389L39.9993 20.1362C40.7704 19.961 41.8273 19.7091 42.9886 19.3896C44.1499 19.0701 45.1852 18.7414 45.9317 18.4956L46.8196 18.1884C46.9219 18.1511 47.028 18.1253 47.136 18.1116Z" fill="#E0E0E0"/>
<path d="M43.3848 28.2898C42.6036 27.9455 41.8452 27.5515 41.1144 27.1101C40.3564 26.716 39.6238 26.2748 38.9209 25.7891C39.7019 26.1371 40.4611 26.532 41.1943 26.9719C41.9512 27.3652 42.6828 27.8054 43.3848 28.2898Z" fill="#E0E0E0"/>
<path d="M32.1713 8.809C32.6876 8.60739 33.1173 8.23173 33.3861 7.74694C33.6549 7.26214 33.7459 6.69868 33.6433 6.15394C33.5407 5.6092 33.2511 5.11741 32.8244 4.76356C32.3977 4.40972 31.8608 4.21606 31.3065 4.21606C30.7521 4.21606 30.2152 4.40972 29.7886 4.76356C29.3619 5.11741 29.0722 5.6092 28.9696 6.15394C28.8671 6.69868 28.958 7.26214 29.2268 7.74694C29.4956 8.23173 29.9253 8.60739 30.4416 8.809C26.7888 9.32513 26.9485 13.0517 26.9485 13.0517L35.5876 13.0886C35.5876 13.0886 35.7934 9.32205 32.1713 8.809Z" fill="#EBEBEB"/>
<path d="M49.7071 92.5542H4.8375C3.13738 92.5542 1.75916 93.9324 1.75916 95.6325V110.004C1.75916 111.704 3.13738 113.083 4.8375 113.083H49.7071C51.4072 113.083 52.7854 111.704 52.7854 110.004V95.6325C52.7854 93.9324 51.4072 92.5542 49.7071 92.5542Z" fill="white"/>
<path d="M49.7101 113.083H49.7992C49.8576 113.083 49.9467 113.083 50.0634 113.061C50.4091 113.015 50.7445 112.911 51.0557 112.754C51.561 112.504 51.9865 112.117 52.2846 111.639C52.4773 111.336 52.6137 111.001 52.6871 110.65C52.7533 110.243 52.7749 109.831 52.7516 109.421C52.7516 107.679 52.7516 105.544 52.7516 103.067C52.7516 101.838 52.7516 100.516 52.7516 99.1011C52.7516 98.3976 52.7516 97.6756 52.7516 96.9352V95.8077C52.7634 95.428 52.7115 95.0489 52.598 94.6864C52.409 94.1193 52.0564 93.6209 51.5846 93.2541C51.1127 92.8872 50.5428 92.6683 49.9467 92.6249C49.5412 92.6034 49.111 92.6249 48.6901 92.6249H43.3845H31.6793H4.85901C4.27949 92.6262 3.71265 92.7947 3.22655 93.1103C2.74045 93.4258 2.35574 93.8749 2.1186 94.4037C2.00278 94.6646 1.92518 94.9409 1.88819 95.224C1.86086 95.5119 1.85061 95.8012 1.85747 96.0903V109.654C1.81881 110.187 1.90726 110.722 2.11554 111.215C2.3293 111.692 2.66342 112.105 3.08514 112.415C3.50685 112.724 4.00167 112.918 4.52107 112.978C4.77606 113.003 5.0372 113 5.30141 113H7.64243L29.5472 113.018L44.3153 113.043L48.3276 113.058L44.3153 113.073L29.5472 113.098L7.64243 113.117H5.30141C5.03604 113.124 4.77045 113.118 4.50571 113.098C3.96028 113.036 3.44025 112.834 2.9965 112.511C2.55275 112.188 2.2005 111.755 1.97421 111.255C1.75997 110.742 1.66643 110.187 1.70079 109.633V96.0996C1.69019 95.8043 1.69943 95.5087 1.72844 95.2148C1.76831 94.9157 1.85108 94.6239 1.97421 94.3484C2.22278 93.7909 2.62747 93.3172 3.13938 92.9846C3.6513 92.6521 4.24856 92.4749 4.85901 92.4744H31.6793H43.3845H48.6901C49.1172 92.4744 49.5319 92.4744 49.9559 92.4744C50.5755 92.5195 51.1677 92.7481 51.6568 93.1311C52.146 93.5142 52.51 94.0342 52.7025 94.6249C52.8203 94.9982 52.8743 95.3888 52.8622 95.7801C52.8622 96.161 52.8622 96.5358 52.8622 96.9076C52.8622 97.648 52.8622 98.3699 52.8622 99.0735C52.8622 100.478 52.8622 101.801 52.8622 103.04C52.8622 105.516 52.8622 107.648 52.8622 109.393C52.8802 109.804 52.8555 110.216 52.7885 110.622C52.713 110.98 52.5713 111.321 52.3706 111.626C52.0636 112.11 51.6273 112.499 51.111 112.748C50.7963 112.901 50.4574 112.997 50.1095 113.034C49.8299 113.086 49.7101 113.083 49.7101 113.083Z" fill="#263238"/>
<path d="M45.535 107.252C44.7888 107.252 44.0594 107.03 43.439 106.616C42.8186 106.201 42.335 105.612 42.0495 104.923C41.764 104.233 41.6893 103.475 41.8348 102.743C41.9804 102.011 42.3397 101.339 42.8673 100.811C43.3949 100.284 44.0672 99.9244 44.799 99.7788C45.5308 99.6332 46.2894 99.7079 46.9787 99.9935C47.6681 100.279 48.2573 100.763 48.6719 101.383C49.0864 102.003 49.3077 102.733 49.3077 103.479C49.306 104.479 48.908 105.438 48.2009 106.145C47.4937 106.852 46.5351 107.25 45.535 107.252ZM45.535 100.321C44.9104 100.321 44.2997 100.506 43.7804 100.853C43.261 101.2 42.8562 101.693 42.6172 102.27C42.3781 102.847 42.3156 103.482 42.4375 104.095C42.5593 104.708 42.8601 105.27 43.3018 105.712C43.7435 106.154 44.3062 106.455 44.9189 106.577C45.5315 106.698 46.1665 106.636 46.7436 106.397C47.3207 106.158 47.8139 105.753 48.161 105.234C48.508 104.714 48.6932 104.104 48.6932 103.479C48.6908 102.643 48.3571 101.841 47.7651 101.251C47.1732 100.66 46.3713 100.328 45.535 100.327V100.321Z" fill="#28C76F"/>
<path d="M37.5289 106.054H24.4935C24.2193 106.054 23.9477 106 23.6943 105.896C23.4408 105.791 23.2105 105.637 23.0165 105.444C22.8225 105.25 22.6685 105.02 22.5635 104.767C22.4585 104.513 22.4044 104.242 22.4044 103.968C22.404 103.693 22.4578 103.421 22.5626 103.168C22.6675 102.914 22.8213 102.683 23.0154 102.489C23.2095 102.295 23.4399 102.141 23.6936 102.037C23.9472 101.932 24.2191 101.878 24.4935 101.878H37.5289C38.0829 101.878 38.6143 102.099 39.0061 102.49C39.3979 102.882 39.618 103.413 39.618 103.968C39.6172 104.521 39.3967 105.052 39.005 105.443C38.6133 105.834 38.0824 106.054 37.5289 106.054Z" fill="#E0E0E0"/>
<path d="M15.1301 110.838C19.2335 109.471 21.4521 105.037 20.0855 100.934C18.7189 96.8302 14.2846 94.6116 10.1812 95.9782C6.0778 97.3448 3.85919 101.779 5.2258 105.882C6.5924 109.986 11.0267 112.204 15.1301 110.838Z" fill="white"/>
<path d="M20.4689 103.918C20.4689 103.918 20.4689 103.875 20.4689 103.789V103.144C20.4689 103.043 20.4505 102.932 20.4412 102.815C20.4244 102.541 20.3874 102.268 20.3306 101.998C20.1943 101.256 19.9467 100.538 19.5964 99.8692C19.0908 98.8878 18.3832 98.0245 17.5201 97.3361C16.657 96.6478 15.658 96.1499 14.5887 95.8753C14.2675 95.7936 13.9411 95.734 13.6117 95.6971C13.4458 95.6818 13.2799 95.6541 13.1079 95.6449H12.5918C12.5057 95.6449 12.4197 95.6449 12.3337 95.6449L12.0726 95.6695C11.8974 95.6848 11.7193 95.6941 11.5441 95.7186C10.8221 95.8318 10.1177 96.0384 9.4489 96.3331C9.27992 96.4099 9.11402 96.502 8.94812 96.5881C8.77812 96.6746 8.61392 96.7721 8.45657 96.8799C8.13556 97.0914 7.82776 97.3222 7.53491 97.5712C7.24404 97.8365 6.97104 98.1208 6.7177 98.4222C6.19343 99.0387 5.77223 99.7358 5.47039 100.487C4.8382 102.041 4.73034 103.759 5.16317 105.381C5.36648 106.164 5.69315 106.909 6.13091 107.59C6.3452 107.921 6.58018 108.238 6.83445 108.539C7.09243 108.826 7.36957 109.095 7.66395 109.344C7.80512 109.472 7.95499 109.59 8.11248 109.697C8.26917 109.805 8.41971 109.918 8.57639 110.004C8.89136 110.198 9.21992 110.368 9.55949 110.514C9.88928 110.659 10.2279 110.784 10.5733 110.886C10.7454 110.935 10.9205 110.966 11.0895 111.006L11.3475 111.061C11.4329 111.077 11.519 111.088 11.6056 111.095L12.1156 111.156C12.2876 111.156 12.4566 111.156 12.6256 111.156C12.956 111.163 13.2866 111.147 13.6148 111.107C14.711 110.974 15.7664 110.61 16.7117 110.039C17.6569 109.468 18.4704 108.704 19.0987 107.795C19.5325 107.178 19.8702 106.499 20.1002 105.78C20.1921 105.521 20.264 105.255 20.3153 104.984C20.3429 104.868 20.3706 104.763 20.3859 104.662C20.4013 104.56 20.4105 104.471 20.4228 104.391C20.4443 104.232 20.4597 104.109 20.472 104.023C20.4843 103.937 20.4904 103.897 20.4904 103.897C20.4904 103.897 20.4904 103.94 20.4904 104.023C20.4904 104.106 20.4689 104.235 20.4535 104.395C20.4535 104.477 20.4351 104.567 20.4228 104.668C20.4105 104.769 20.3829 104.877 20.3583 104.994C20.3098 105.266 20.241 105.534 20.1525 105.795C19.9276 106.521 19.5941 107.209 19.1632 107.835C18.5334 108.758 17.7147 109.537 16.7614 110.119C15.808 110.702 14.7418 111.075 13.6332 111.215C13.301 111.256 12.9663 111.273 12.6317 111.267C12.4627 111.267 12.2907 111.267 12.1186 111.267L11.5994 111.209C11.5134 111.209 11.4243 111.193 11.3383 111.175L11.0772 111.12C10.9051 111.077 10.7269 111.046 10.5549 111C10.2032 110.897 9.85844 110.772 9.52262 110.625C9.17884 110.475 8.8453 110.303 8.52416 110.109C8.3644 110.007 8.21694 109.891 8.05411 109.783C7.89402 109.676 7.74205 109.557 7.59942 109.427C6.98615 108.923 6.45993 108.322 6.04182 107.648C5.59365 106.959 5.26056 106.201 5.05564 105.405C4.84717 104.585 4.76431 103.738 4.80987 102.892C4.87576 102.049 5.06733 101.221 5.37822 100.434C5.68471 99.6719 6.11325 98.9642 6.64705 98.3392C6.90393 98.0322 7.18214 97.7438 7.47961 97.4759C7.77825 97.222 8.09332 96.988 8.42278 96.7755C8.58141 96.6617 8.74771 96.5591 8.92048 96.4683C9.08945 96.3822 9.25534 96.287 9.42739 96.2102C9.77051 96.0583 10.1236 95.93 10.4842 95.8262C10.8361 95.724 11.1942 95.6449 11.5564 95.5896C11.7346 95.565 11.9128 95.5558 12.091 95.5374L12.3552 95.5159C12.4443 95.5159 12.5334 95.5159 12.6194 95.5159H13.1417C13.3137 95.5159 13.4858 95.5527 13.6547 95.5712C13.9872 95.6094 14.3166 95.6699 14.6409 95.7524C15.7213 96.0339 16.7296 96.5415 17.5992 97.2417C18.4688 97.9418 19.1799 98.8185 19.6855 99.8139C20.0346 100.489 20.2771 101.215 20.4044 101.964C20.4583 102.236 20.4922 102.511 20.5058 102.788C20.5058 102.908 20.5242 103.018 20.5273 103.12V103.393C20.5273 103.553 20.5273 103.679 20.5273 103.768C20.5273 103.857 20.4689 103.918 20.4689 103.918Z" fill="#263238"/>
<path d="M6.0387 107.467L9.48571 106.422L15.0894 107.285L18.8529 108.124C18.1273 109.081 17.1881 109.856 16.11 110.385C15.032 110.915 13.845 111.185 12.6439 111.175C10.8128 111.162 9.04365 110.51 7.64239 109.331C7.00565 108.806 6.4633 108.175 6.0387 107.467Z" fill="#28C76F"/>
<path d="M17.0925 103.249C17.0741 102.195 16.8621 100.032 16.647 98.075C16.5355 97.0602 16.0458 96.1246 15.2755 95.4545C14.5053 94.7844 13.5109 94.429 12.4903 94.459H12.2814C10.0172 94.6557 8.92351 96.6895 9.18464 98.9445L9.67312 106.779L12.8099 108.776L14.9819 107.854L14.9604 105.811C14.9604 105.811 17.1294 105.427 17.0925 103.249Z" fill="#FFBF9D"/>
<path d="M15.8882 100.183C15.8924 100.264 15.8644 100.343 15.8103 100.403C15.7562 100.464 15.6804 100.5 15.5994 100.505C15.5198 100.511 15.441 100.486 15.3797 100.435C15.3183 100.384 15.2792 100.311 15.2707 100.232C15.2665 100.151 15.2945 100.071 15.3486 100.011C15.4027 99.9504 15.4785 99.9138 15.5595 99.9091C15.639 99.903 15.7178 99.9282 15.7792 99.9792C15.8406 100.03 15.8796 100.103 15.8882 100.183Z" fill="#263238"/>
<path d="M16.2446 99.0396C16.2077 99.0796 15.9681 98.9137 15.6301 98.9229C15.2922 98.9321 15.0526 99.1072 15.0157 99.0673C14.9788 99.0274 15.0341 98.9751 15.1386 98.8952C15.282 98.7917 15.4533 98.7339 15.6301 98.7293C15.8037 98.7244 15.9745 98.7738 16.1186 98.8707C16.22 98.9475 16.2446 99.0181 16.2446 99.0396Z" fill="#263238"/>
<path d="M12.8068 100.183C12.811 100.264 12.783 100.343 12.7289 100.403C12.6748 100.464 12.599 100.5 12.518 100.505C12.4384 100.511 12.3596 100.486 12.2982 100.435C12.2369 100.384 12.1978 100.311 12.1893 100.232C12.1851 100.151 12.2131 100.071 12.2672 100.011C12.3213 99.9504 12.3971 99.9138 12.478 99.9091C12.5576 99.903 12.6364 99.9282 12.6978 99.9792C12.7591 100.03 12.7982 100.103 12.8068 100.183Z" fill="#263238"/>
<path d="M12.899 99.0397C12.8683 99.0858 12.6102 98.9475 12.2846 98.9936C11.9589 99.0397 11.7316 99.2394 11.6916 99.2025C11.6517 99.1657 11.6916 99.1104 11.7961 99.0182C11.9206 98.8974 12.0794 98.818 12.2508 98.7909C12.4229 98.7663 12.5984 98.7975 12.7515 98.88C12.8652 98.9537 12.9174 99.0213 12.899 99.0397Z" fill="#263238"/>
<path d="M14.2077 101.759C14.3825 101.698 14.5641 101.66 14.7484 101.645C14.8344 101.645 14.9143 101.614 14.9266 101.556C14.932 101.467 14.9095 101.379 14.8621 101.304L14.5917 100.662C14.3426 100.117 14.1371 99.5527 13.9773 98.9751C14.2699 99.4982 14.5206 100.044 14.7269 100.606L14.9881 101.255C15.0462 101.356 15.0658 101.475 15.0434 101.59C15.0319 101.62 15.0134 101.648 14.9894 101.67C14.9654 101.693 14.9366 101.709 14.9051 101.719C14.8584 101.733 14.8098 101.742 14.7607 101.743C14.5778 101.772 14.3919 101.777 14.2077 101.759Z" fill="#263238"/>
<path d="M12.9051 97.5957C12.8744 97.6879 12.5365 97.6541 12.1463 97.7125C11.7561 97.7708 11.4397 97.8876 11.3844 97.8077C11.3291 97.7278 11.4151 97.6817 11.5411 97.5896C11.7075 97.474 11.8993 97.4002 12.1002 97.3745C12.3005 97.3455 12.5047 97.3645 12.6962 97.4298C12.8406 97.4821 12.9174 97.5619 12.9051 97.5957Z" fill="#263238"/>
<path d="M16.1463 97.7463C16.091 97.8231 15.8575 97.7463 15.581 97.7463C15.3045 97.7463 15.068 97.8108 15.0127 97.7463C14.9574 97.6818 15.0127 97.6296 15.1233 97.5558C15.258 97.4637 15.4178 97.4154 15.581 97.4176C15.7438 97.4149 15.9031 97.4644 16.0357 97.5589C16.1371 97.6296 16.1709 97.7064 16.1463 97.7463Z" fill="#263238"/>
<path d="M9.40898 100.56C9.37211 100.545 7.89745 100.161 7.98962 101.648C8.08179 103.135 9.55645 102.739 9.55645 102.696C9.55645 102.653 9.40898 100.56 9.40898 100.56Z" fill="#FFBF9D"/>
<path d="M9.06792 102.17C9.06792 102.17 9.04027 102.189 9.00033 102.213C8.9401 102.243 8.87091 102.248 8.80678 102.229C8.7065 102.174 8.62281 102.093 8.56445 101.994C8.50608 101.896 8.47519 101.784 8.47498 101.67C8.46229 101.542 8.47912 101.414 8.52413 101.295C8.53548 101.248 8.55782 101.204 8.58932 101.167C8.62082 101.13 8.6606 101.101 8.70539 101.083C8.73458 101.073 8.76619 101.074 8.79479 101.085C8.82338 101.096 8.84718 101.117 8.86208 101.144C8.88665 101.187 8.86207 101.215 8.88665 101.218C8.91123 101.221 8.91738 101.19 8.90202 101.132C8.89123 101.095 8.86856 101.063 8.8375 101.04C8.79336 101.013 8.74092 101.003 8.69003 101.012C8.63019 101.028 8.57539 101.059 8.53079 101.102C8.48619 101.145 8.45323 101.199 8.43503 101.258C8.37872 101.391 8.35655 101.535 8.37052 101.679C8.37173 101.811 8.41206 101.94 8.48641 102.049C8.56077 102.159 8.66582 102.243 8.78835 102.293C8.82888 102.303 8.87111 102.303 8.91164 102.293C8.95218 102.284 8.98991 102.265 9.02183 102.238C9.06484 102.195 9.07099 102.17 9.06792 102.17Z" fill="#FF9A6C"/>
<path d="M16.8161 95.5251C16.7861 95.3799 16.7143 95.2467 16.6095 95.1419C16.5047 95.037 16.3714 94.9652 16.2262 94.9353C16.2416 94.8892 15.919 94.7356 15.6702 94.5605C15.4213 94.3854 15.3629 93.9706 15.1417 94.1764C15.1342 94.0658 15.1004 93.9586 15.0431 93.8637C14.9859 93.7688 14.9068 93.6889 14.8125 93.6306C14.7182 93.5723 14.6114 93.5374 14.5009 93.5287C14.3904 93.5199 14.2794 93.5377 14.1771 93.5804C14.1771 93.3162 13.7961 93.2302 13.5411 93.1626C13.2861 93.095 13.1878 93.0582 13.068 93.2916C12.9794 93.1679 12.8641 93.0657 12.7306 92.9927C12.5971 92.9196 12.4488 92.8775 12.2969 92.8696C12.1449 92.8616 11.9931 92.8879 11.8527 92.9466C11.7123 93.0054 11.5869 93.0949 11.4858 93.2087C11.1814 93.122 10.8558 93.1494 10.5702 93.2857C10.2845 93.422 10.0584 93.6579 9.93436 93.9491C9.69109 93.9734 9.46059 94.0696 9.27233 94.2256C9.08406 94.3816 8.9466 94.5902 8.87752 94.8247C8.5703 94.8585 8.49349 95.1042 8.36753 95.393C8.24157 95.6818 8.06031 96.0075 8.25386 96.2502C8.16657 96.3038 8.09282 96.3769 8.03833 96.4636C7.98385 96.5504 7.95009 96.6486 7.93969 96.7505C7.92929 96.8524 7.94252 96.9554 7.97836 97.0514C8.0142 97.1473 8.07168 97.2338 8.14634 97.3039C8.063 97.3491 7.99062 97.412 7.93436 97.4883C7.85834 97.5403 7.79342 97.6068 7.74338 97.6841C7.69334 97.7614 7.65918 97.8479 7.64288 97.9386C7.62658 98.0292 7.62848 98.1222 7.64846 98.212C7.66843 98.3019 7.70609 98.387 7.75924 98.4622C7.64558 98.5537 7.56379 98.6788 7.52558 98.8196C7.48737 98.9604 7.49471 99.1097 7.54655 99.2462C7.59838 99.3826 7.69205 99.4991 7.81413 99.579C7.93622 99.6589 8.08047 99.6981 8.22621 99.691C7.98658 100.038 8.29687 100.505 8.47813 100.613C8.47813 100.613 9.09258 100.355 9.19089 100.803C9.18727 100.85 9.19548 100.896 9.21478 100.939C9.23407 100.981 9.26381 101.018 9.30123 101.046C9.33865 101.074 9.38252 101.092 9.42877 101.099C9.47501 101.105 9.52212 101.099 9.5657 101.083C9.73173 100.979 9.8616 100.827 9.93743 100.647C10.0702 100.464 10.1738 100.262 10.2447 100.047C10.2753 99.9399 10.27 99.8252 10.2295 99.721C10.1891 99.6167 10.1156 99.5285 10.0204 99.4698C10.1449 99.4142 10.2526 99.3267 10.3324 99.2161C10.4123 99.1055 10.4615 98.9758 10.4751 98.84C10.5015 98.5699 10.4786 98.2971 10.4075 98.0351C10.3245 97.645 10.2416 97.2517 10.1617 96.8615C10.4321 96.8433 10.6923 96.7515 10.9143 96.5961C11.1363 96.4407 11.3116 96.2276 11.4213 95.9798C11.5224 96.0452 11.6361 96.0884 11.755 96.1067C11.874 96.125 11.9954 96.118 12.1114 96.0861C12.2275 96.0542 12.3354 95.9981 12.4283 95.9215C12.5211 95.845 12.5967 95.7497 12.6502 95.6419C12.7543 95.9031 12.9537 96.115 13.208 96.2348C13.4624 96.3545 13.7528 96.3732 14.0204 96.287C13.9712 96.5943 14.5304 96.8677 14.8376 96.9414C15.0746 96.966 15.3132 96.912 15.5166 96.7878C15.5166 96.7878 16.048 97.095 16.3307 96.9599C16.6133 96.8247 16.9728 96.4714 16.7823 96.1795C16.8458 95.9672 16.8574 95.7428 16.8161 95.5251Z" fill="#263238"/>
<path d="M13.9804 93.5435C13.9287 93.5032 13.8705 93.4721 13.8084 93.4513C13.7357 93.4321 13.6586 93.4386 13.5902 93.4697C13.5467 93.4917 13.5085 93.5228 13.4783 93.561C13.448 93.5992 13.4265 93.6436 13.4151 93.6909L13.3998 93.777L13.3506 93.7002C13.3002 93.6237 13.2311 93.5614 13.15 93.5189C13.0689 93.4765 12.9783 93.4553 12.8867 93.4575C12.7757 93.4627 12.6692 93.503 12.5825 93.5725C12.4959 93.6421 12.4335 93.7373 12.4044 93.8446L12.3798 93.9429L12.3153 93.863C12.2507 93.7883 12.1704 93.7289 12.08 93.6891C11.9897 93.6492 11.8917 93.6299 11.793 93.6326C11.6873 93.6348 11.584 93.6643 11.4931 93.7181C11.4021 93.7719 11.3266 93.8483 11.2738 93.9398C11.2267 94.0132 11.1963 94.0961 11.1847 94.1825V94.244H11.1263C10.9872 94.2158 10.8427 94.235 10.7158 94.2985C10.5889 94.3619 10.4868 94.466 10.4259 94.5942C10.3772 94.7096 10.3631 94.8368 10.3855 94.9601C10.4079 95.0834 10.4657 95.1975 10.5518 95.2885L10.6102 95.3469L10.5273 95.3653C10.4378 95.3851 10.3532 95.4224 10.2783 95.4751C10.2034 95.5279 10.1397 95.595 10.091 95.6725C10.0121 95.7904 9.97237 95.9301 9.97733 96.0719C9.98281 96.1955 10.0131 96.3167 10.0664 96.4283C10.0664 96.4283 10.0388 96.4068 10.005 96.3484C9.95925 96.2629 9.93203 96.1687 9.9251 96.0719C9.91269 95.9181 9.94925 95.7643 10.0296 95.6326C10.0825 95.5459 10.1521 95.4706 10.2344 95.411C10.3167 95.3514 10.4099 95.3087 10.5088 95.2854L10.4873 95.3622C10.3708 95.2533 10.2936 95.1087 10.2679 94.9513C10.2422 94.7938 10.2694 94.6322 10.3452 94.4919C10.421 94.3515 10.5412 94.2401 10.6869 94.1753C10.8327 94.1104 10.9959 94.0957 11.1509 94.1333L11.0833 94.1825C11.0971 94.0803 11.1316 93.9821 11.1847 93.8937C11.2483 93.7864 11.338 93.6969 11.4454 93.6336C11.5528 93.5702 11.6745 93.535 11.7991 93.5312C11.9159 93.5271 12.032 93.5499 12.1386 93.5978C12.2451 93.6458 12.3392 93.7176 12.4136 93.8077L12.3245 93.8292C12.3584 93.7167 12.4239 93.6162 12.5132 93.5398C12.6025 93.4633 12.7118 93.4141 12.8283 93.3979C12.9447 93.3818 13.0633 93.3993 13.17 93.4485C13.2768 93.4978 13.3672 93.5766 13.4305 93.6756H13.366C13.3803 93.6187 13.4078 93.5661 13.4462 93.5218C13.4847 93.4775 13.5329 93.4428 13.5872 93.4206C13.6683 93.3899 13.7579 93.3899 13.8391 93.4206C13.8888 93.4378 13.9332 93.4674 13.9681 93.5066C13.9741 93.5182 13.9782 93.5306 13.9804 93.5435Z" fill="#455A64"/>
<path d="M17.0311 102.06C16.9728 102.022 16.9067 101.997 16.8377 101.988C16.7686 101.979 16.6985 101.986 16.6324 102.008C16.5663 102.03 16.506 102.066 16.4559 102.115C16.4058 102.163 16.3672 102.222 16.343 102.287C16.279 102.199 16.1916 102.13 16.0907 102.088C15.9899 102.046 15.8794 102.033 15.7715 102.051C15.6657 102.076 15.5683 102.128 15.4895 102.203C15.4107 102.278 15.3533 102.373 15.323 102.478C15.292 102.404 15.2428 102.339 15.1801 102.289C15.1173 102.239 15.0429 102.206 14.9638 102.192C14.8848 102.179 14.8036 102.185 14.7278 102.212C14.652 102.238 14.5841 102.283 14.5304 102.342C14.384 102.339 14.2435 102.284 14.1343 102.187C14.025 102.089 13.9541 101.956 13.9344 101.811C13.8695 101.777 13.7962 101.764 13.7236 101.771C13.6511 101.779 13.5823 101.808 13.5258 101.854C13.4792 101.783 13.4186 101.723 13.3477 101.677C13.2768 101.631 13.1973 101.601 13.114 101.587C13.0306 101.573 12.9454 101.576 12.8635 101.597C12.7815 101.618 12.7048 101.655 12.6379 101.706C12.6168 101.636 12.5729 101.574 12.5131 101.532C12.4532 101.489 12.3808 101.467 12.3073 101.47C12.2338 101.473 12.1633 101.5 12.1069 101.547C12.0505 101.594 12.0114 101.659 11.9958 101.731C11.9243 101.642 11.826 101.578 11.7154 101.548C11.6048 101.519 11.4877 101.526 11.3814 101.568C11.3784 101.515 11.3637 101.463 11.3384 101.416C11.3131 101.369 11.2778 101.329 11.235 101.297C11.1922 101.265 11.1429 101.243 11.0907 101.233C11.0384 101.223 10.9845 101.224 10.9328 101.236C10.985 101.055 10.7147 100.972 10.5764 100.84C10.5238 100.769 10.4674 100.7 10.4075 100.634C10.343 100.579 10.2262 100.57 10.1832 100.634C10.2101 100.557 10.2053 100.473 10.1699 100.399C10.1344 100.326 10.0713 100.269 9.99426 100.243C9.91726 100.216 9.83274 100.22 9.75928 100.256C9.68582 100.291 9.62945 100.354 9.60256 100.431C9.57381 100.517 9.55726 100.606 9.5534 100.696C9.51346 100.981 9.35064 101.31 9.5534 101.519C9.59027 101.556 9.63635 101.587 9.65172 101.633C9.66708 101.679 9.59949 101.796 9.59334 101.882C9.5872 101.968 9.67937 102.06 9.7193 102.152C9.75611 102.297 9.75611 102.449 9.7193 102.594C9.7193 102.745 9.79303 102.935 9.94357 102.92C9.89126 103.03 9.8789 103.155 9.90861 103.273C9.93832 103.392 10.0082 103.496 10.1064 103.568C10.0814 103.632 10.0696 103.701 10.0716 103.77C10.0736 103.839 10.0894 103.907 10.118 103.969C10.1466 104.032 10.1876 104.088 10.2383 104.135C10.2891 104.182 10.3487 104.218 10.4136 104.241C10.3693 104.286 10.343 104.346 10.3396 104.41C10.3362 104.473 10.356 104.535 10.3952 104.585C10.4766 104.684 10.5825 104.761 10.7024 104.806C10.6786 104.823 10.6583 104.844 10.6427 104.868C10.6271 104.893 10.6166 104.92 10.6117 104.949C10.6069 104.978 10.6078 105.007 10.6144 105.035C10.621 105.063 10.6331 105.09 10.6502 105.114C10.7277 105.208 10.8369 105.271 10.9574 105.292C11.0078 105.299 11.0543 105.323 11.0895 105.359C11.1417 105.436 11.0711 105.544 11.0895 105.636C11.1141 105.777 11.3138 105.817 11.3722 105.943C11.4305 106.069 11.3568 106.223 11.449 106.312C11.5411 106.401 11.6056 106.358 11.6855 106.385C11.8238 106.435 11.8852 106.591 11.9743 106.708C12.1639 106.918 12.42 107.055 12.6993 107.098C12.8345 107.132 12.9758 107.163 13.1141 107.19C13.3937 107.239 13.6732 107.273 13.9559 107.31C14.0972 107.326 14.2631 107.329 14.3399 107.209C14.3922 107.263 14.4565 107.305 14.5277 107.33C14.5988 107.356 14.6749 107.364 14.7499 107.355C14.825 107.347 14.8969 107.32 14.9601 107.279C15.0233 107.237 15.076 107.182 15.1141 107.117C15.3741 107.154 15.6391 107.103 15.8668 106.972L16.1126 106.865C16.3583 106.757 16.6348 106.622 16.7055 106.364C16.7841 106.348 16.8581 106.314 16.9221 106.266C16.9862 106.217 17.0387 106.155 17.076 106.084C17.1133 106.013 17.1344 105.935 17.1378 105.855C17.1412 105.774 17.1268 105.694 17.0957 105.62C17.2063 105.654 17.3169 105.541 17.3322 105.424C17.3376 105.307 17.3231 105.191 17.2892 105.08C17.2032 104.613 17.452 104.137 17.3875 103.667C17.3414 103.338 17.1448 103.012 17.2401 102.696C17.2669 102.632 17.2826 102.565 17.2861 102.496C17.2861 102.428 17.2185 102.358 17.154 102.376C17.1695 102.329 17.1733 102.278 17.165 102.229C17.1567 102.18 17.1365 102.134 17.1063 102.094C17.076 102.055 17.0366 102.023 16.9914 102.002C16.9462 101.981 16.8966 101.971 16.8468 101.974" fill="#263238"/>
<path d="M13.1017 102.094C13.1539 102.094 13.1662 102.453 13.4857 102.708C13.8052 102.963 14.1893 102.908 14.1923 102.957C14.1954 103.006 14.1094 103.031 13.9466 103.04C13.7332 103.048 13.5236 102.982 13.3536 102.852C13.1896 102.728 13.0796 102.545 13.0464 102.342C13.0372 102.186 13.0771 102.094 13.1017 102.094Z" fill="white"/>
<path d="M11.1048 104.579C11.0266 104.329 10.9791 104.072 10.9635 103.811C10.9678 103.548 11.0039 103.287 11.071 103.033C11.0278 103.099 10.9966 103.172 10.9788 103.249C10.9248 103.431 10.8999 103.621 10.9051 103.811C10.9092 104.001 10.9423 104.19 11.0034 104.37C11.0245 104.445 11.0589 104.516 11.1048 104.579Z" fill="#455A64"/>
<path d="M10.7607 104.053C10.7607 104.053 10.7147 103.995 10.6778 103.891C10.635 103.747 10.6225 103.597 10.6409 103.448C10.6686 103.098 10.7669 102.834 10.7484 102.818C10.6492 103.009 10.5926 103.218 10.5826 103.433C10.5639 103.589 10.584 103.747 10.6409 103.894C10.6901 104.013 10.7577 104.06 10.7607 104.053Z" fill="#455A64"/>
<path d="M10.4074 103.752C10.3229 103.545 10.2701 103.327 10.2508 103.104C10.2516 102.88 10.2858 102.658 10.3521 102.444C10.3088 102.497 10.2774 102.559 10.26 102.625C10.2079 102.78 10.185 102.944 10.1924 103.107C10.1983 103.271 10.2358 103.431 10.303 103.58C10.3246 103.645 10.3603 103.703 10.4074 103.752Z" fill="#455A64"/>
<path d="M16.4597 105.98C16.5412 105.96 16.6136 105.914 16.6655 105.848C16.7958 105.694 16.8856 105.51 16.9267 105.313C16.9739 105.12 16.9905 104.921 16.9758 104.723C16.9745 104.641 16.9579 104.56 16.9267 104.484C16.9453 104.757 16.9257 105.032 16.8683 105.301C16.8292 105.489 16.7495 105.666 16.6348 105.82C16.5803 105.877 16.5218 105.931 16.4597 105.98Z" fill="#455A64"/>
<path d="M16.1402 105.9C16.2043 105.874 16.262 105.834 16.3092 105.783C16.4289 105.667 16.5222 105.527 16.5826 105.371C16.6451 105.217 16.6723 105.05 16.6625 104.883C16.663 104.813 16.6483 104.744 16.6195 104.68C16.6156 104.748 16.6156 104.815 16.6195 104.883C16.6181 105.043 16.5879 105.201 16.5304 105.35C16.4703 105.498 16.3851 105.634 16.2784 105.752C16.1955 105.857 16.134 105.891 16.1402 105.9Z" fill="#455A64"/>
<path d="M16.6962 96.7664C16.3347 96.2597 15.8182 95.8844 15.2246 95.6972C13.4212 95.1627 10.8928 94.9599 8.22305 97.5928L7.83287 97.7679C7.78912 97.2473 7.80768 96.7234 7.88817 96.2072C7.98034 95.7648 8.78833 93.1811 11.6762 92.9107C11.6762 92.9107 16.0879 92.1919 16.6962 96.7664Z" fill="#455A64"/>
<g opacity="0.3">
<path d="M16.6962 96.7664C16.3347 96.2597 15.8182 95.8844 15.2246 95.6972C13.4212 95.1627 10.8928 94.9599 8.22305 97.5928L7.83287 97.7679C7.78912 97.2473 7.80768 96.7234 7.88817 96.2072C7.98034 95.7648 8.78833 93.1811 11.6762 92.9107C11.6762 92.9107 16.0879 92.1919 16.6962 96.7664Z" fill="black"/>
</g>
<path d="M8.2231 97.5928C9.31988 96.3915 10.73 95.7034 12.217 95.135C13.7039 94.5666 16.0388 94.2133 17.6179 94.1335C18.0914 94.077 18.5715 94.1242 19.025 94.2717C19.25 94.3488 19.4489 94.4877 19.5988 94.6723C19.7487 94.857 19.8437 95.0802 19.8729 95.3163C19.8975 95.9123 18.7178 96.5759 18.177 96.8216C17.6363 97.0674 16.5303 97.4975 16.5303 97.4975C16.5303 97.4975 16.2231 96.1488 15.1694 95.7648C12.9512 94.9875 8.14016 97.6358 8.2231 97.5928Z" fill="#455A64"/>
<path d="M16.8283 95.8906C16.7584 95.7101 16.6289 95.559 16.4612 95.4623C16.2935 95.3656 16.0979 95.3292 15.9066 95.3591C15.9485 95.3033 15.9712 95.2354 15.9712 95.1656C15.9712 95.0958 15.9485 95.0279 15.9066 94.972C15.8167 94.8646 15.6914 94.7927 15.5533 94.7693C15.314 94.7207 15.0652 94.7551 14.848 94.8668C14.6308 94.9785 14.458 95.1608 14.3582 95.3837C14.233 95.2615 14.0788 95.1732 13.9101 95.1269C13.7413 95.0807 13.5636 95.0782 13.3936 95.1195C13.2231 95.1474 13.0663 95.2299 12.9466 95.3546C12.827 95.4792 12.751 95.6392 12.73 95.8107C12.7299 95.9369 12.7668 96.0603 12.8362 96.1657C12.9055 96.2711 13.0043 96.3538 13.1201 96.4037C13.2633 96.4577 13.4172 96.4772 13.5693 96.4607C13.7214 96.4441 13.8675 96.392 13.9957 96.3084C14.0457 96.4446 14.1276 96.5667 14.2347 96.6645C14.3418 96.7623 14.4709 96.8328 14.611 96.8702C14.7511 96.9075 14.8982 96.9106 15.0397 96.8791C15.1813 96.8477 15.3132 96.7826 15.4243 96.6894C15.5472 96.8398 15.7195 96.9417 15.9105 96.9769C16.1016 97.0122 16.2989 96.9785 16.4674 96.8819C16.6359 96.7853 16.7647 96.632 16.8308 96.4494C16.8969 96.2667 16.896 96.0665 16.8283 95.8845V95.8906Z" fill="#263238"/>
<path d="M49.7636 64.4097H3.80649C2.10637 64.4097 0.728149 65.7879 0.728149 67.488V82.296C0.728149 83.9962 2.10637 85.3744 3.80649 85.3744H49.7636C51.4637 85.3744 52.8419 83.9962 52.8419 82.296V67.488C52.8419 65.7879 51.4637 64.4097 49.7636 64.4097Z" fill="white"/>
<path d="M49.7637 85.3743H49.8558C49.9142 85.3743 50.0064 85.3743 50.1262 85.3498C50.4781 85.3055 50.8199 85.2016 51.1369 85.0425C51.6475 84.7772 52.0733 84.3737 52.3658 83.8782C52.5543 83.5641 52.6844 83.2186 52.7499 82.8582C52.8016 82.4425 52.8171 82.0231 52.7959 81.6047C52.7959 79.8229 52.7959 77.6416 52.7959 75.1101C52.7959 73.8444 52.7959 72.4895 52.7959 71.0548C52.7959 70.339 52.7959 69.5986 52.7959 68.8428V67.6907C52.809 67.3024 52.7549 66.9147 52.6362 66.5448C52.5097 66.1645 52.3087 65.8133 52.045 65.5116C51.7812 65.2098 51.46 64.9637 51.1001 64.7875C50.7277 64.6052 50.3222 64.5006 49.9081 64.4803C49.4872 64.4803 49.054 64.4803 48.6177 64.4803H43.1953H31.2321H3.81886C3.52374 64.4861 3.23055 64.5295 2.94636 64.6093C2.6648 64.7 2.39628 64.827 2.14758 64.9872C1.65955 65.3197 1.27769 65.7858 1.04773 66.3297C0.939537 66.6008 0.867245 66.8848 0.832681 67.1746C0.814248 67.4634 0.832676 67.7645 0.817315 68.0625V81.9273C0.776344 82.4723 0.866964 83.0191 1.08153 83.5218C1.30153 84.0091 1.64756 84.4288 2.08392 84.7377C2.52029 85.0466 3.03117 85.2335 3.56387 85.2791C4.62992 85.3037 5.71442 85.2791 6.75897 85.2791L29.1461 85.2975L44.2429 85.3221H48.3443L44.2429 85.3375L29.1461 85.362L6.75897 85.3774C5.70213 85.3774 4.64222 85.3928 3.55158 85.3774C2.99223 85.3297 2.45569 85.1338 1.99724 84.8098C1.53878 84.4858 1.17497 84.0454 0.943276 83.5341C0.720153 83.012 0.623323 82.4447 0.660639 81.8782V68.0686C0.660639 67.7614 0.660635 67.4757 0.675996 67.1654C0.723036 66.7033 0.871302 66.2573 1.11025 65.8591C1.34919 65.4609 1.67295 65.1202 2.05849 64.8612C2.31818 64.6906 2.6005 64.5572 2.8972 64.4649C3.19685 64.3778 3.50684 64.3313 3.81886 64.3267H31.2321H43.1953H48.6177C49.054 64.3267 49.481 64.3267 49.9111 64.3267C50.5461 64.3552 51.1574 64.5762 51.6639 64.9603C52.1703 65.3444 52.548 65.8734 52.7468 66.4772C52.8672 66.8595 52.9223 67.2594 52.9096 67.66C52.9096 68.0471 52.9096 68.4311 52.9096 68.8121C52.9096 69.5678 52.9096 70.3082 52.9096 71.0241C52.9096 72.4588 52.9096 73.8136 52.9096 75.0794C52.9096 77.6109 52.9096 79.7921 52.9096 81.574C52.9266 81.9958 52.9071 82.4183 52.8512 82.8367C52.7628 83.3076 52.5664 83.7515 52.2775 84.1337C51.9886 84.5159 51.615 84.8259 51.1861 85.0395C50.8652 85.1997 50.5192 85.3036 50.1631 85.3467C50.0306 85.3642 49.8972 85.3734 49.7637 85.3743Z" fill="#263238"/>
<path d="M45.1768 79.0981C44.7131 79.065 44.2605 78.9408 43.8449 78.7326C43.4292 78.5243 43.0587 78.2362 42.7545 77.8847C42.4503 77.5331 42.2184 77.125 42.0721 76.6838C41.9258 76.2425 41.868 75.7767 41.9019 75.3131C41.935 74.8493 42.0592 74.3965 42.2673 73.9807C42.4755 73.5649 42.7636 73.1942 43.1151 72.8898C43.4666 72.5853 43.8746 72.3531 44.3159 72.2065C44.7572 72.0598 45.223 72.0016 45.6868 72.0351C46.6227 72.1035 47.4932 72.5405 48.1072 73.2501C48.7212 73.9597 49.0286 74.884 48.9618 75.82C48.9287 76.2838 48.8045 76.7366 48.5963 77.1524C48.3882 77.5682 48.1001 77.9389 47.7486 78.2434C47.3971 78.5478 46.989 78.78 46.5478 78.9266C46.1065 79.0733 45.6406 79.1315 45.1768 79.0981Z" fill="#28C76F"/>
<path d="M45.2168 77.4266L43.0939 75.7738L43.6714 75.0334L45.0969 76.1424L47.1338 73.8137L47.8404 74.4312L45.2168 77.4266Z" fill="white"/>
<path d="M37.2566 78.2071H23.9417C23.3762 78.2071 22.8339 77.9825 22.4341 77.5826C22.0342 77.1828 21.8096 76.6405 21.8096 76.075C21.8096 75.5095 22.0342 74.9672 22.4341 74.5674C22.8339 74.1675 23.3762 73.9429 23.9417 73.9429H37.2566C37.8221 73.9429 38.3644 74.1675 38.7642 74.5674C39.1641 74.9672 39.3887 75.5095 39.3887 76.075C39.3887 76.6405 39.1641 77.1828 38.7642 77.5826C38.3644 77.9825 37.8221 78.2071 37.2566 78.2071Z" fill="#E0E0E0"/>
<path d="M16.8633 81.089C20.2947 78.3084 20.8222 73.2725 18.0416 69.8412C15.2609 66.4098 10.2251 65.8823 6.79373 68.6629C3.36236 71.4436 2.83485 76.4794 5.6155 79.9108C8.39615 83.3422 13.432 83.8697 16.8633 81.089Z" fill="white"/>
<path d="M4.72821 78.4498C4.75366 78.4854 4.77725 78.5223 4.79888 78.5604C4.84189 78.6403 4.9064 78.7509 4.98935 78.8922L5.1276 79.138C5.1829 79.224 5.25356 79.3162 5.32115 79.4145C5.47827 79.6506 5.65176 79.8754 5.84035 80.0873C6.34049 80.6776 6.92668 81.1892 7.57922 81.605C8.53249 82.2199 9.6052 82.626 10.7267 82.7965C11.8483 82.967 12.9932 82.8981 14.0861 82.5942C14.4131 82.5026 14.7333 82.3886 15.0447 82.2532C15.2014 82.1825 15.3519 82.118 15.5209 82.0412L15.9848 81.7801C16.0616 81.7371 16.1415 81.6971 16.2152 81.648L16.4364 81.4944C16.5839 81.3899 16.7436 81.2885 16.8788 81.1871C17.1672 80.9553 17.4401 80.7049 17.696 80.4375C17.9593 80.1628 18.2046 79.8714 18.4302 79.565C18.5408 79.4083 18.6392 79.2424 18.7375 79.0796C18.8452 78.9169 18.9407 78.7465 19.0232 78.5696C19.4023 77.8616 19.6608 77.0953 19.7882 76.3023C19.9394 75.4852 19.957 74.6489 19.8404 73.8261C19.718 72.9793 19.4684 72.1559 19.1 71.3837C18.7116 70.6204 18.2115 69.9194 17.6161 69.3038L17.1614 68.8707L16.6699 68.4836C16.5894 68.418 16.5042 68.3584 16.4149 68.3054L16.1537 68.1395L15.8957 67.9736L15.6222 67.8353C15.2625 67.6495 14.891 67.4874 14.5101 67.3499C14.1329 67.2275 13.748 67.13 13.358 67.0581C13.1667 67.0167 12.9727 66.989 12.7774 66.9751C12.5838 66.9598 12.3934 66.9352 12.1998 66.926C11.8202 66.9171 11.4403 66.9345 11.0631 66.9782C10.6949 67.0169 10.3295 67.0795 9.96939 67.1656C9.79428 67.2117 9.62223 67.2731 9.45019 67.3253L9.19212 67.4052C9.10917 67.436 9.0293 67.4759 8.94635 67.5097L8.45787 67.7186C8.30119 67.7923 8.15065 67.8845 8.00011 67.9644C7.70372 68.13 7.41842 68.3147 7.14603 68.5174C6.23863 69.1984 5.48564 70.0638 4.93655 71.0566C4.38746 72.0494 4.0547 73.1472 3.96016 74.2777C3.89121 75.0487 3.9399 75.8256 4.10456 76.5819C4.15626 76.8602 4.22814 77.1343 4.31961 77.4022C4.35648 77.5189 4.3872 77.6265 4.42099 77.7094L4.5316 77.9675C4.59304 78.1211 4.6422 78.2378 4.67599 78.3208C4.69357 78.3609 4.70895 78.4019 4.72207 78.4437C4.70145 78.4058 4.68299 78.3668 4.66677 78.3269L4.51009 77.9767L4.39334 77.7186C4.35648 77.6234 4.32575 77.5128 4.28581 77.396C4.18939 77.1288 4.11339 76.8545 4.05847 76.5758C3.88651 75.8154 3.83161 75.0332 3.89565 74.2562C3.98305 73.1125 4.3129 72.0004 4.86326 70.994C5.41362 69.9876 6.17188 69.1098 7.08766 68.4191C7.36159 68.2112 7.6501 68.0233 7.95095 67.8568C8.10456 67.7739 8.25817 67.6817 8.41486 67.6049L8.90641 67.3929C8.98936 67.3591 9.07231 67.3161 9.15833 67.2885L9.4164 67.2055C9.59151 67.1533 9.76663 67.0888 9.94482 67.0427C10.3099 66.9543 10.6804 66.8897 11.0539 66.8492C11.4361 66.8038 11.8212 66.7864 12.206 66.7969C12.3995 66.7969 12.5931 66.8277 12.7897 66.843C12.9872 66.8564 13.1834 66.8852 13.3765 66.929C13.7728 66.9995 14.1639 67.097 14.547 67.2209C14.9332 67.3598 15.3098 67.524 15.6745 67.7124L15.951 67.8538L16.2152 68.0197L16.4794 68.1886C16.5702 68.242 16.6565 68.3026 16.7375 68.3699L17.2382 68.7601L17.6991 69.2025C18.9333 70.4419 19.7266 72.0523 19.9571 73.7862C20.0744 74.6214 20.0557 75.47 19.9018 76.2993C19.8252 76.7028 19.7226 77.101 19.5946 77.4913C19.459 77.8704 19.2979 78.2399 19.1123 78.5973C19.0276 78.7765 18.9311 78.95 18.8235 79.1165C18.716 79.2793 18.6146 79.4483 18.5163 79.608C18.2883 79.9181 18.0399 80.2127 17.7728 80.4897C17.5118 80.7602 17.2337 81.0137 16.9402 81.2486C16.7958 81.3623 16.633 81.4606 16.4917 81.5558L16.2674 81.7125C16.1906 81.7616 16.1107 81.8016 16.0339 81.8446L15.5639 82.1057C15.4072 82.1856 15.2413 82.2471 15.0815 82.3208C13.6049 82.9566 11.9701 83.129 10.3934 82.8154C9.37805 82.6156 8.41098 82.2212 7.54543 81.6541C6.88987 81.2339 6.30243 80.7159 5.80348 80.118C5.61723 79.9044 5.44678 79.6775 5.2935 79.4391C5.22591 79.3377 5.15832 79.2455 5.10302 79.1564L4.96784 78.9076L4.78658 78.5696L4.72821 78.4498Z" fill="#263238"/>
<path d="M6.91248 81.1225C6.91248 81.1225 7.29343 80.9966 8.60833 80.5911C9.92323 80.1855 14.2397 80.7907 14.2397 80.7907L16.7128 81.3007C16.7128 81.3007 14.9555 83.1072 11.5792 82.8798C8.2028 82.6525 6.91248 81.1225 6.91248 81.1225Z" fill="#28C76F"/>
<path d="M16.123 70.8336C16.3721 70.8519 16.619 70.7773 16.8163 70.6242C17.0136 70.4712 17.1473 70.2505 17.1915 70.0048C17.2358 69.759 17.1875 69.5056 17.056 69.2933C16.9246 69.0811 16.7191 68.925 16.4794 68.8551C16.6285 68.6917 16.7222 68.4854 16.7472 68.2657C16.7721 68.0459 16.7271 67.8238 16.6185 67.6311C16.5099 67.4384 16.3433 67.2849 16.1423 67.1925C15.9414 67.1 15.7164 67.0734 15.4994 67.1163C15.482 66.8997 15.4089 66.6914 15.2873 66.5114C15.1656 66.3315 14.9994 66.1861 14.805 66.0893C14.6105 65.9925 14.3943 65.9477 14.1774 65.9591C13.9604 65.9706 13.7502 66.038 13.567 66.1547C13.3148 65.965 13.0067 65.8648 12.6913 65.8698C12.3758 65.8748 12.071 65.9848 11.825 66.1823C11.612 66.1515 11.3948 66.1898 11.205 66.2914C11.0153 66.393 10.8632 66.5527 10.7708 66.7471C10.6784 66.9415 10.6507 67.1603 10.6917 67.3716C10.7327 67.5829 10.8402 67.7755 10.9986 67.9212" fill="#263238"/>
<path d="M14.4886 80.9534L14.4487 79.1808C14.4487 79.1808 16.8266 78.7414 16.7774 76.4404C16.7498 75.3282 16.5132 73.0425 16.2736 70.978C16.1458 69.9096 15.6221 68.9278 14.806 68.2266C13.9898 67.5253 12.9404 67.1554 11.865 67.19H11.6438C9.25665 67.4142 8.11072 69.5678 8.39951 71.9457L8.74359 80.5878C8.74359 80.5878 11.7636 82.1915 12.4302 81.958C13.1363 81.6656 13.8237 81.3301 14.4886 80.9534Z" fill="#AE7461"/>
<path d="M14.4548 79.1809C13.4217 79.2085 12.4027 78.9364 11.5209 78.3975C11.5209 78.3975 12.1691 80.081 14.4548 79.7953V79.1809Z" fill="#6F4439"/>
<path d="M15.3426 73.2699C15.3469 73.3561 15.317 73.4405 15.2595 73.5049C15.202 73.5693 15.1216 73.6084 15.0354 73.614C14.9934 73.62 14.9505 73.6172 14.9096 73.6059C14.8687 73.5945 14.8306 73.5748 14.7977 73.5479C14.7648 73.5211 14.7378 73.4877 14.7184 73.4499C14.699 73.4121 14.6877 73.3707 14.6852 73.3283C14.6818 73.2426 14.712 73.159 14.7694 73.0953C14.8268 73.0316 14.9068 72.9928 14.9924 72.9873C15.0342 72.9812 15.0768 72.9839 15.1175 72.9951C15.1583 73.0063 15.1962 73.0257 15.2291 73.0523C15.262 73.0788 15.289 73.1118 15.3086 73.1493C15.3281 73.1867 15.3397 73.2278 15.3426 73.2699Z" fill="#263238"/>
<path d="M15.8189 72.1241C15.7789 72.1671 15.5116 71.992 15.1706 72.0042C14.8296 72.0165 14.5562 72.2039 14.5255 72.1609C14.4948 72.1179 14.5439 72.0657 14.6545 71.9797C14.8038 71.8679 14.9842 71.8056 15.1706 71.8015C15.3542 71.7928 15.5355 71.8446 15.6868 71.949C15.8004 72.0258 15.8373 72.1026 15.8189 72.1241Z" fill="#263238"/>
<path d="M12.1598 73.3222C12.1632 73.4082 12.1331 73.4922 12.0757 73.5564C12.0184 73.6206 11.9384 73.66 11.8526 73.6663C11.8107 73.6719 11.7682 73.6688 11.7277 73.6572C11.6871 73.6456 11.6494 73.6258 11.6168 73.599C11.5842 73.5722 11.5575 73.539 11.5384 73.5014C11.5192 73.4638 11.508 73.4227 11.5054 73.3806C11.5012 73.2947 11.5312 73.2106 11.5887 73.1468C11.6463 73.0829 11.7268 73.0443 11.8126 73.0396C11.8542 73.034 11.8964 73.037 11.9368 73.0484C11.9772 73.0598 12.0148 73.0794 12.0473 73.1058C12.0798 73.1323 12.1066 73.1652 12.1259 73.2024C12.1453 73.2396 12.1568 73.2804 12.1598 73.3222Z" fill="#263238"/>
<path d="M12.3472 72.3114C12.3073 72.3544 12.04 72.1793 11.699 72.1916C11.3579 72.2039 11.0845 72.3913 11.0538 72.3483C11.0231 72.3053 11.0722 72.2531 11.1828 72.167C11.3326 72.0558 11.5125 71.9926 11.699 71.9858C11.8822 71.9801 12.0626 72.0316 12.2151 72.1332C12.3257 72.2131 12.3656 72.2899 12.3472 72.3114Z" fill="#263238"/>
<path d="M13.7205 74.8859C13.9057 74.8234 14.0974 74.7822 14.2919 74.763C14.381 74.763 14.467 74.7292 14.4793 74.6678C14.4839 74.5735 14.4592 74.4802 14.4087 74.4005L14.1199 73.7246C13.8524 73.15 13.6305 72.5552 13.4563 71.9458C13.7701 72.4969 14.0392 73.0722 14.2612 73.6662L14.5408 74.3483C14.6015 74.4554 14.6222 74.5806 14.5992 74.7016C14.587 74.734 14.5677 74.7632 14.5427 74.7872C14.5177 74.8111 14.4877 74.8291 14.4548 74.8398C14.4059 74.8545 14.3553 74.8628 14.3042 74.8644C14.1115 74.8981 13.9151 74.9053 13.7205 74.8859Z" fill="#263238"/>
<path d="M12.4117 71.104C12.3687 71.1931 12.0646 71.104 11.6897 71.104C11.3149 71.104 11.0046 71.1778 10.9678 71.0856C10.9678 71.0395 11.0139 70.9566 11.146 70.8828C11.316 70.7887 11.5078 70.741 11.702 70.7446C11.8942 70.7443 12.0829 70.7952 12.2489 70.892C12.3748 70.975 12.4332 71.061 12.4117 71.104Z" fill="#263238"/>
<path d="M15.8188 70.8707C15.7451 70.9536 15.4532 70.8707 15.0999 70.8891C14.7466 70.9075 14.4548 70.9659 14.3841 70.8891C14.3134 70.8123 14.3841 70.7693 14.5224 70.6863C14.6994 70.5862 14.8996 70.5343 15.103 70.5358C15.3047 70.5305 15.5041 70.5793 15.6806 70.6771C15.8065 70.7478 15.8495 70.8338 15.8188 70.8707Z" fill="#263238"/>
<path d="M8.84802 74.1793C8.84367 74.0946 8.82181 74.0117 8.78383 73.9358C8.74585 73.8599 8.69257 73.7928 8.62734 73.7385C8.56211 73.6842 8.48635 73.6441 8.40484 73.6205C8.32332 73.597 8.23781 73.5906 8.1537 73.6018C7.72666 73.6571 7.25662 73.909 7.315 74.803C7.42252 76.3729 8.97706 75.9428 8.97706 75.8967C8.97706 75.8506 8.89718 74.8276 8.84802 74.1793Z" fill="#AE7461"/>
<path d="M8.5961 75.3283C8.5961 75.3283 8.56846 75.3498 8.52545 75.3744C8.46171 75.4066 8.38805 75.4132 8.3196 75.3928C8.2142 75.3348 8.126 75.25 8.06395 75.147C8.0019 75.0439 7.96821 74.9263 7.9663 74.806C7.95216 74.6719 7.96898 74.5363 8.01546 74.4097C8.0262 74.359 8.04957 74.3119 8.08341 74.2727C8.11725 74.2335 8.16046 74.2035 8.20901 74.1854C8.23983 74.1749 8.27337 74.1756 8.30372 74.1874C8.33407 74.1992 8.35928 74.2214 8.3749 74.2499C8.39948 74.293 8.39027 74.3237 8.39948 74.3268C8.4087 74.3298 8.43021 74.2991 8.39948 74.2346C8.38748 74.1965 8.36384 74.1632 8.3319 74.1394C8.28531 74.11 8.22944 74.099 8.17521 74.1086C8.11175 74.1261 8.05384 74.1595 8.00704 74.2058C7.96024 74.2521 7.92611 74.3096 7.90793 74.3728C7.8494 74.5125 7.82618 74.6645 7.84034 74.8152C7.8426 74.9555 7.88603 75.092 7.96522 75.2078C8.04442 75.3236 8.15591 75.4136 8.28581 75.4665C8.32899 75.4766 8.37389 75.4765 8.41704 75.4664C8.4602 75.4563 8.50044 75.4363 8.53466 75.4082C8.59611 75.3682 8.59917 75.3314 8.5961 75.3283Z" fill="#6F4439"/>
<path d="M14.8542 67.7616C14.8378 67.7232 14.8183 67.6862 14.7958 67.651C14.7034 67.5249 14.5834 67.4218 14.4449 67.3493C14.3065 67.2769 14.1532 67.2372 13.997 67.2331C13.816 67.149 13.6292 67.0781 13.4379 67.0212C13.316 66.8227 13.1456 66.6586 12.9429 66.5441C12.7401 66.4296 12.5115 66.3686 12.2786 66.3667C12.0458 66.3649 11.8163 66.4223 11.6117 66.5336C11.4071 66.6448 11.2342 66.8063 11.1092 67.0027L10.9187 67.0427C10.7425 66.9226 10.5413 66.8444 10.3304 66.8138C10.1194 66.7833 9.90427 66.8013 9.70133 66.8665C9.49838 66.9317 9.31299 67.0423 9.15926 67.19C9.00553 67.3376 8.88752 67.5184 8.81422 67.7185C8.61991 67.6738 8.41673 67.6874 8.2301 67.7576C8.04346 67.8277 7.88165 67.9514 7.76492 68.113C7.6482 68.2747 7.58172 68.4672 7.57382 68.6664C7.56592 68.8656 7.61695 69.0628 7.72051 69.2332C7.57699 69.3111 7.45552 69.4241 7.36743 69.5616C7.27933 69.6991 7.22747 69.8567 7.21667 70.0196C7.21782 70.0951 7.23413 70.1695 7.26465 70.2385C7.29517 70.3075 7.33926 70.3697 7.39431 70.4213C7.44935 70.4729 7.5142 70.5129 7.58502 70.5389C7.65585 70.5649 7.73118 70.5763 7.80653 70.5726C7.80904 71.3807 7.85828 72.188 7.954 72.9905C8.00316 73.5404 8.71591 73.8445 8.77735 74.2193C9.08457 76.118 9.67443 75.0427 9.77582 71.0857L9.89256 70.9812C9.97244 70.9044 9.99088 70.8092 10.0585 70.7201C10.1261 70.631 10.3012 70.6433 10.4333 70.6525C10.6638 70.6625 10.8907 70.5928 11.0759 70.4551C11.2611 70.3175 11.3932 70.1203 11.4502 69.8967C11.5229 69.9723 11.6215 70.0178 11.7262 70.024C11.8309 70.0303 11.9342 69.9969 12.0155 69.9305C12.174 69.7927 12.3126 69.6335 12.4271 69.4574C12.4858 69.3699 12.5647 69.2979 12.6573 69.2476C12.7499 69.1973 12.8533 69.1702 12.9586 69.1686C13.0708 69.2019 13.1861 69.2236 13.3027 69.2332C13.5085 69.2055 13.6099 68.9628 13.6253 68.757C13.627 68.5804 13.6758 68.4076 13.7666 68.2562C13.8903 68.1914 14.0245 68.1487 14.1629 68.1302C14.2428 68.1302 14.3227 68.1487 14.3964 68.1579H14.5101C14.5593 68.1722 14.6075 68.1896 14.6545 68.2101C15.358 68.5173 16.0155 69.9398 16.0155 69.9398C16.0039 69.5115 15.8929 69.0919 15.6914 68.7139C15.4899 68.3359 15.2032 68.0099 14.8542 67.7616Z" fill="#263238"/>
<path d="M10.1537 67.5158L10.1721 67.4728C10.1905 67.4332 10.2121 67.3952 10.2366 67.3591C10.3272 67.2221 10.4467 67.1067 10.5869 67.0212C10.7981 66.8873 11.0472 66.8258 11.2965 66.846C11.6096 66.8745 11.8999 67.0218 12.1076 67.2577H12.0615C12.1686 67.1401 12.2905 67.0368 12.424 66.9505C12.5786 66.8525 12.7512 66.7865 12.9316 66.7564C13.1121 66.7263 13.2968 66.7328 13.4747 66.7754C13.6216 66.8097 13.7593 66.8752 13.8786 66.9674C13.9978 67.0596 14.0959 67.1765 14.166 67.3099C14.2589 67.4895 14.2902 67.6946 14.2551 67.8937C14.246 67.9465 14.2305 67.9981 14.209 68.0473L14.1844 68.0995C14.2044 68.031 14.2198 67.9612 14.2305 67.8906C14.2526 67.6966 14.2151 67.5005 14.123 67.3284C14.054 67.204 13.9595 67.0956 13.8457 67.0103C13.7318 66.9251 13.6012 66.8649 13.4624 66.8338C13.292 66.7938 13.1153 66.7884 12.9427 66.818C12.7701 66.8475 12.6053 66.9114 12.4578 67.0058C12.329 67.0839 12.2111 67.1789 12.1076 67.2884L12.083 67.3161L12.0585 67.2884C11.8622 67.0634 11.5875 66.9217 11.2904 66.8921C11.0521 66.8692 10.8128 66.9241 10.6084 67.0488C10.4714 67.1267 10.3512 67.2312 10.2551 67.356C10.1721 67.4543 10.1537 67.5189 10.1537 67.5158Z" fill="white"/>
<path d="M7.5177 69.3191L7.53306 69.2945L7.57914 69.23C7.64869 69.1561 7.72959 69.0939 7.81877 69.0456C7.9617 68.9698 8.12088 68.9297 8.28268 68.9289C8.49614 68.9241 8.70462 68.9936 8.87253 69.1255L8.82953 69.1409C8.87026 68.9705 8.94589 68.8105 9.05166 68.6709C9.15742 68.5313 9.29101 68.4151 9.44397 68.3298C9.61698 68.2323 9.80656 68.1677 10.0031 68.1393C10.2078 68.1134 10.4152 68.1207 10.6176 68.1608C11.0011 68.2445 11.3651 68.4009 11.6897 68.6217L11.6437 68.637C11.7648 68.3034 12.0087 68.0287 12.3257 67.869C12.5746 67.745 12.8557 67.701 13.1306 67.743C13.3081 67.7688 13.4785 67.8305 13.6314 67.9243C13.6725 67.9486 13.7116 67.9764 13.7481 68.0072C13.7727 68.0287 13.785 68.0379 13.785 68.041C13.785 68.0441 13.7297 68.0011 13.6222 67.9427C13.4682 67.8571 13.2992 67.8019 13.1245 67.7799C12.8587 67.7457 12.5888 67.7929 12.3503 67.9151C12.0488 68.0716 11.8174 68.336 11.702 68.6555V68.6923L11.6682 68.6708C11.3481 68.4595 10.992 68.3085 10.6176 68.2253C10.4205 68.1846 10.218 68.1774 10.0185 68.2038C9.82939 68.2296 9.64694 68.2911 9.48083 68.3851C9.33011 68.4619 9.1974 68.5697 9.09148 68.7016C8.98556 68.8335 8.90884 68.9863 8.86639 69.1501V69.1931L8.8326 69.1654C8.67531 69.038 8.47897 68.9686 8.27654 68.9688C8.12112 68.9668 7.96742 69.0015 7.82799 69.0702C7.7099 69.133 7.60465 69.2174 7.5177 69.3191Z" fill="white"/>
<path d="M13.7789 68.1455C13.7789 68.1455 13.7789 68.167 13.7543 68.207C13.7316 68.2668 13.7141 68.3284 13.7021 68.3913C13.6837 68.4742 13.6683 68.5756 13.6437 68.6985C13.6259 68.8379 13.5788 68.9719 13.5055 69.0917C13.4519 69.1605 13.3737 69.2057 13.2874 69.2177C13.1986 69.2284 13.1088 69.2284 13.0201 69.2177C12.9298 69.2047 12.8377 69.2153 12.7528 69.2484C12.6663 69.2928 12.5908 69.3557 12.5316 69.4328C12.464 69.5096 12.4026 69.5956 12.335 69.6847C12.2731 69.782 12.1964 69.8691 12.1076 69.9427C12.0064 70.0134 11.8892 70.0577 11.7666 70.0718C11.7034 70.0809 11.6393 70.0809 11.5761 70.0718C11.5415 70.0657 11.5085 70.0528 11.479 70.0338C11.4494 70.0148 11.424 69.9901 11.4041 69.9612H11.4625C11.4426 70.0545 11.4094 70.1445 11.3642 70.2285C11.3172 70.315 11.2559 70.3929 11.1829 70.4589C11.0283 70.5907 10.84 70.6769 10.6391 70.7077C10.5559 70.7215 10.4716 70.7277 10.3872 70.7262C10.3124 70.7088 10.2346 70.7088 10.1598 70.7262C10.0896 70.7506 10.0307 70.7998 9.99395 70.8644C9.94704 70.9293 9.89571 70.9909 9.84034 71.0487C9.63535 71.2789 9.35135 71.4237 9.04464 71.4543C8.77012 71.4417 8.50935 71.3305 8.31038 71.1409C8.13298 70.9877 8.00651 70.7841 7.94786 70.5572H7.97551C7.88704 70.5781 7.79509 70.5795 7.706 70.5615C7.61691 70.5435 7.53278 70.5064 7.45938 70.4527C7.34973 70.3701 7.27254 70.2516 7.24125 70.1179C7.22297 70.0359 7.22297 69.951 7.24125 69.869L7.25662 69.8076V69.7861C7.23137 69.8931 7.23137 70.0046 7.25662 70.1117C7.28954 70.2356 7.36447 70.3442 7.4686 70.4189C7.53803 70.4685 7.61739 70.5024 7.70119 70.5183C7.78499 70.5342 7.87124 70.5318 7.954 70.5111H7.97551V70.5326C8.03561 70.7496 8.15982 70.9434 8.33189 71.0887C8.52724 71.2632 8.7796 71.3605 9.04157 71.3621C9.33267 71.3293 9.60105 71.1891 9.79425 70.9689C9.84853 70.9141 9.89885 70.8556 9.9448 70.7937C9.98869 70.7188 10.057 70.6614 10.1383 70.6309C10.1797 70.6161 10.2234 70.6088 10.2674 70.6094H10.3903C10.4695 70.611 10.5488 70.6049 10.6268 70.591C10.8163 70.5627 10.9941 70.4818 11.1399 70.3575C11.2071 70.2962 11.2641 70.2247 11.3089 70.1455C11.3516 70.0678 11.3817 69.9838 11.3979 69.8967L11.4164 69.8229L11.4563 69.8844C11.4944 69.926 11.5432 69.9563 11.5974 69.9721C11.6516 69.9878 11.7091 69.9883 11.7635 69.9735C11.8738 69.9598 11.9792 69.9198 12.0708 69.8567C12.155 69.7867 12.2275 69.7037 12.2858 69.6109C12.3534 69.5249 12.4179 69.4389 12.4855 69.359C12.5533 69.2788 12.6356 69.212 12.7282 69.1624C12.8214 69.1278 12.922 69.1183 13.0201 69.1348C13.1059 69.1437 13.1923 69.1437 13.2781 69.1348C13.3154 69.1302 13.3514 69.1184 13.3841 69.0999C13.4168 69.0815 13.4455 69.0568 13.4686 69.0272C13.5421 68.9139 13.5903 68.7861 13.6099 68.6524C13.6376 68.5357 13.656 68.4343 13.6775 68.3452C13.6939 68.2831 13.7155 68.2225 13.742 68.1639C13.7539 68.1569 13.7662 68.1508 13.7789 68.1455Z" fill="#455A64"/>
<path d="M12.6422 75.5435C12.5697 75.7331 12.5666 75.9424 12.6335 76.1341C12.7004 76.3258 12.833 76.4877 13.0078 76.5911C13.0808 76.6276 13.1605 76.6492 13.242 76.6545C13.3235 76.6599 13.4053 76.649 13.4825 76.6224C13.5597 76.5958 13.6309 76.554 13.6918 76.4996C13.7527 76.4452 13.8022 76.3791 13.8373 76.3054C13.91 76.1392 13.9417 75.9579 13.9294 75.7769C13.5669 75.7001 13.0016 75.6203 12.6422 75.5435Z" fill="#6F4439"/>
<path d="M13.7851 76.4127C13.7629 76.4517 13.7312 76.4845 13.6929 76.508C13.5951 76.5805 13.4793 76.6251 13.3581 76.637C13.1745 76.6549 12.9912 76.5997 12.8481 76.4834C12.7597 76.4136 12.6868 76.3262 12.6339 76.2268C12.581 76.1274 12.5493 76.0181 12.5409 75.9058C12.5323 75.7892 12.5427 75.672 12.5716 75.5587V75.531H12.5992C12.971 75.5955 13.2936 75.657 13.5209 75.703C13.6452 75.7252 13.7683 75.7539 13.8896 75.7891C13.7699 75.7852 13.6507 75.7718 13.5332 75.7491C13.2997 75.7123 12.974 75.66 12.6115 75.5955L12.6484 75.5709C12.6222 75.6774 12.6129 75.7873 12.6207 75.8966C12.6284 76.0002 12.6568 76.1012 12.7043 76.1935C12.7518 76.2859 12.8174 76.3677 12.8972 76.4342C13.0281 76.5444 13.1966 76.5994 13.3673 76.5878C13.4827 76.5801 13.5945 76.5442 13.6929 76.4834C13.7482 76.4435 13.782 76.4066 13.7851 76.4127Z" fill="#263238"/>
<path d="M49.6793 37.0979H4.84666C3.14653 37.0979 1.76831 38.4761 1.76831 40.1763V54.5327C1.76831 56.2328 3.14653 57.611 4.84666 57.611H49.6793C51.3795 57.611 52.7577 56.2328 52.7577 54.5327V40.1763C52.7577 38.4761 51.3795 37.0979 49.6793 37.0979Z" fill="white"/>
<path d="M49.6824 57.6233H49.7715C49.8329 57.6233 49.922 57.6233 50.0357 57.6018C50.3811 57.5546 50.7163 57.4508 51.028 57.2946C51.5322 57.0426 51.9573 56.6568 52.2569 56.1794C52.4496 55.8766 52.5859 55.5415 52.6593 55.1902C52.7253 54.7841 52.748 54.3721 52.7269 53.9613C52.7269 52.2163 52.7269 50.0872 52.7116 47.611C52.7116 46.3821 52.7116 45.0611 52.7116 43.6479C52.7116 42.9443 52.7116 42.2255 52.7116 41.482V40.3576C52.7234 39.9778 52.6714 39.5988 52.558 39.2362C52.3701 38.6696 52.0186 38.1715 51.5478 37.8046C51.077 37.4377 50.5081 37.2185 49.9128 37.1748C49.5042 37.1532 49.0772 37.1748 48.6532 37.1748H43.3536H31.6578H4.85585C4.27667 37.1741 3.70975 37.3415 3.22386 37.6567C2.73797 37.9719 2.35399 38.4213 2.11851 38.9505C2.00172 39.2113 1.92309 39.4875 1.88503 39.7708C1.85771 40.0577 1.84745 40.3459 1.85431 40.6341V52.5481C1.85431 53.098 1.85431 53.6448 1.85431 54.1917C1.81884 54.7241 1.90827 55.2575 2.11545 55.7493C2.32819 56.2266 2.66163 56.6403 3.08291 56.9495C3.50419 57.2587 3.99877 57.4528 4.51791 57.5127C4.77291 57.5373 5.03404 57.5342 5.29825 57.5342H7.6362L29.5257 57.5527L44.2722 57.5773H48.2845L44.2722 57.5926L29.5257 57.6172L7.6362 57.6356H5.29825C5.03287 57.6432 4.76729 57.637 4.50255 57.6172C3.95776 57.5546 3.43849 57.3519 2.99537 57.0288C2.55225 56.7058 2.2004 56.2734 1.97413 55.7739C1.76015 55.2623 1.66659 54.7083 1.7007 54.1548V49.2209C1.7007 46.9679 1.7007 44.6883 1.7007 42.3821V40.6371C1.69224 40.3418 1.70353 40.0462 1.73449 39.7523C1.77229 39.4542 1.85408 39.1632 1.9772 38.889C2.22685 38.3325 2.63189 37.8599 3.14363 37.528C3.65537 37.1961 4.25205 37.0191 4.862 37.0181L31.6547 37.0396H43.3506H48.6501C49.0772 37.0396 49.4919 37.0396 49.9159 37.0396C50.5355 37.0847 51.1277 37.3133 51.6168 37.6964C52.106 38.0794 52.47 38.5994 52.6624 39.1901C52.778 39.5639 52.831 39.9542 52.8191 40.3453C52.8191 40.7262 52.8191 41.101 52.8191 41.4697C52.8191 42.2132 52.8191 42.9321 52.8191 43.6356C52.8191 45.0386 52.8191 46.3596 52.8191 47.5987C52.8191 50.0749 52.8191 52.207 52.8191 53.949C52.8388 54.3601 52.8141 54.7721 52.7454 55.1779C52.6699 55.5358 52.5282 55.8766 52.3276 56.1825C52.0208 56.666 51.5844 57.0535 51.0679 57.3008C50.7527 57.4527 50.4141 57.5503 50.0664 57.5895C49.8053 57.6233 49.6824 57.6233 49.6824 57.6233Z" fill="#263238"/>
<path d="M45.6547 51.7616C44.7384 51.6947 43.886 51.2671 43.2847 50.5724C42.6834 49.8778 42.3822 48.973 42.4473 48.0565C42.5142 47.1405 42.942 46.2884 43.6367 45.6876C44.3314 45.0867 45.2363 44.7863 46.1524 44.8522C47.0654 44.9184 47.915 45.3433 48.5155 46.0342C49.1159 46.7251 49.4184 47.6256 49.3567 48.5389C49.3263 48.9939 49.2063 49.4385 49.0036 49.8471C48.8009 50.2556 48.5194 50.6201 48.1754 50.9195C47.8314 51.219 47.4317 51.4476 46.9991 51.5921C46.5665 51.7366 46.1096 51.7942 45.6547 51.7616Z" fill="#28C76F"/>
<path d="M45.6916 50.1272L43.6147 48.5112L44.177 47.7831L45.5717 48.8676L47.5656 46.5911L48.2569 47.1963L45.6916 50.1272Z" fill="white"/>
<path d="M37.9036 46.7078H24.8743C23.7223 46.7078 22.7883 47.6417 22.7883 48.7938C22.7883 49.9459 23.7223 50.8798 24.8743 50.8798H37.9036C39.0556 50.8798 39.9896 49.9459 39.9896 48.7938C39.9896 47.6417 39.0556 46.7078 37.9036 46.7078Z" fill="#E0E0E0"/>
<path d="M17.8203 53.7998C21.235 51.1511 21.856 46.2357 19.2072 42.821C16.5585 39.4063 11.6431 38.7853 8.22841 41.434C4.8137 44.0828 4.19275 48.9982 6.84147 52.4129C9.49019 55.8276 14.4056 56.4485 17.8203 53.7998Z" fill="white"/>
<path d="M6.07554 51.1285C6.07554 51.1285 6.10012 51.1623 6.14313 51.2361L6.33054 51.5617L6.46572 51.7983C6.52102 51.8843 6.58861 51.9734 6.65619 52.0717C6.80881 52.3022 6.97715 52.5219 7.16003 52.7292C7.65046 53.3068 8.2253 53.8071 8.86511 54.213C9.79767 54.8147 10.8471 55.212 11.9443 55.3788C13.0414 55.5456 14.1615 55.4781 15.2307 55.1808C15.5451 55.09 15.853 54.9782 16.1524 54.8459C16.306 54.7783 16.4596 54.7169 16.6193 54.6401L17.071 54.3882C17.1478 54.3421 17.2246 54.3052 17.2983 54.256L17.5134 54.1055C17.6578 54.0011 17.8206 53.9058 17.9496 53.7983C18.2312 53.5707 18.498 53.3255 18.7484 53.064C19.0056 52.7965 19.2447 52.5122 19.4642 52.213C19.5717 52.0594 19.6701 51.9058 19.7714 51.7368C19.8771 51.5772 19.9706 51.4098 20.051 51.2361C20.2299 50.8918 20.3849 50.5356 20.5149 50.17C20.6353 49.7927 20.7308 49.4078 20.8006 49.0179C20.9472 48.2189 20.9649 47.4016 20.8528 46.597C20.6277 44.9246 19.8629 43.3713 18.6747 42.1731L18.2292 41.746L17.7499 41.3712C17.6717 41.3064 17.5885 41.2478 17.5011 41.1961L17.2461 41.0333L16.9911 40.8705L16.7238 40.7353C16.3725 40.553 16.0091 40.3949 15.6362 40.2622C15.2671 40.1421 14.8905 40.0467 14.5087 39.9764C14.3215 39.9353 14.1316 39.9076 13.9404 39.8935C13.753 39.8781 13.5656 39.8536 13.3751 39.8474C13.0038 39.838 12.6322 39.8534 12.263 39.8935C11.903 39.9337 11.546 39.9963 11.1938 40.0809C11.0218 40.127 10.8528 40.1854 10.6838 40.2376L10.4319 40.3144C10.349 40.342 10.2722 40.382 10.1923 40.4158L9.71611 40.6216C9.55942 40.6923 9.40889 40.7844 9.26757 40.8612C8.97635 41.0227 8.69616 41.2034 8.42885 41.4019C7.5417 42.0691 6.80557 42.9162 6.26871 43.8877C5.73185 44.8593 5.40638 45.9333 5.31364 47.0394C5.24707 47.7939 5.29471 48.5542 5.45496 49.2944C5.5046 49.5655 5.57442 49.8325 5.66387 50.0932C5.70073 50.21 5.73146 50.3175 5.76526 50.4004L5.87278 50.6554L6.0141 51.0026C6.04483 51.0794 6.06019 51.1224 6.06019 51.1224C6.06019 51.1224 6.03868 51.0825 6.00489 51.0057C5.97109 50.9289 5.91579 50.8121 5.85128 50.6646C5.81748 50.5878 5.78062 50.5049 5.73761 50.4127C5.6946 50.3206 5.67001 50.21 5.63314 50.1055C5.53949 49.8439 5.46456 49.5759 5.40888 49.3037C5.24098 48.5593 5.18814 47.7936 5.25219 47.0333C5.33691 45.9147 5.65912 44.8269 6.19736 43.8426C6.73559 42.8583 7.47748 42.0001 8.37355 41.3251C8.64213 41.1235 8.92443 40.9407 9.21841 40.7783C9.36895 40.6953 9.52563 40.6062 9.6731 40.5294L10.1524 40.3236C10.2353 40.2898 10.3152 40.2499 10.3981 40.2192L10.6531 40.1393C10.8252 40.087 10.9941 40.0256 11.1693 39.9795C11.5265 39.8937 11.8887 39.83 12.2537 39.789C12.628 39.7463 13.0047 39.7299 13.3812 39.7399C13.5717 39.7399 13.7622 39.7706 13.9527 39.786C14.1459 39.7998 14.3379 39.8275 14.5272 39.8689C14.915 39.9391 15.2978 40.0345 15.6731 40.1546C16.0509 40.2911 16.4194 40.4522 16.776 40.637L17.0464 40.7752L17.3045 40.938L17.5625 41.1009C17.6513 41.1531 17.7356 41.2127 17.8144 41.2791L18.3029 41.6631L18.7576 42.0932C19.9639 43.3079 20.7388 44.8846 20.9635 46.5817C21.0801 47.3983 21.0624 48.2285 20.9112 49.0394C20.8408 49.4348 20.7433 49.8249 20.6194 50.2069C20.486 50.577 20.329 50.9383 20.1493 51.2883C20.0668 51.4632 19.9713 51.6316 19.8636 51.7921C19.7591 51.955 19.6608 52.1209 19.5564 52.2745C19.3355 52.5791 19.0932 52.8676 18.8313 53.1378C18.5765 53.4031 18.3045 53.6515 18.0172 53.8812C17.8759 53.9918 17.71 54.0902 17.5779 54.1885L17.3598 54.3421C17.286 54.3912 17.2061 54.4281 17.1293 54.4742L16.6685 54.7292C16.5149 54.806 16.3613 54.8674 16.1985 54.9381C15.8898 55.0706 15.5726 55.1824 15.2491 55.273C14.1678 55.5704 13.0357 55.6347 11.9276 55.4615C10.8196 55.2883 9.76104 54.8816 8.82209 54.2683C8.17953 53.855 7.60444 53.3452 7.11702 52.7568C6.93473 52.5473 6.76837 52.3245 6.61933 52.0901C6.55174 51.9918 6.48415 51.9027 6.43192 51.8136L6.29982 51.5709L6.12163 51.2422L6.07554 51.1285Z" fill="#263238"/>
<path d="M7.16003 52.7292L10.1646 51.6785L14.9573 51.4941L19.3659 52.3421C19.3659 52.3421 17.2154 55.6693 13.2584 55.5556C12.1027 55.5259 10.9654 55.2598 9.9166 54.7737C8.86776 54.2876 7.92963 53.5918 7.16003 52.7292Z" fill="#28C76F"/>
<path d="M16.2599 40.7629C17.2707 40.7844 18.137 42.299 17.9865 43.1347C17.9127 43.5464 17.7253 44.0164 18.0571 44.3236C18.3889 44.6308 19.0802 44.6001 19.3935 44.9104C19.6296 45.1584 19.7578 45.4898 19.7499 45.8321C19.7069 46.3513 19.7899 47.0425 20.2015 47.2269L18.137 47.958C17.925 47.743 17.8298 47.405 17.6301 47.19C17.8728 47.4143 18.1063 48.2161 17.0157 48.3052L16.3336 47.6908C14.4657 48.17 12.5026 48.766 11.0126 47.9519" fill="#263238"/>
<path d="M6.74221 45.2547C6.91204 44.8795 7.06277 44.4961 7.19382 44.1057C7.39352 43.2455 6.99106 42.2624 7.42424 41.4943C7.73146 40.9444 8.37662 40.6863 8.98185 40.5112C9.58707 40.3361 10.1646 40.2347 10.6224 39.8015C10.9573 39.4943 11.1508 39.0427 11.4857 38.7232C12.0015 38.3056 12.6503 38.0875 13.3136 38.1087C13.99 38.0581 14.6681 38.1818 15.2829 38.4682C15.5877 38.613 15.8542 38.8275 16.0607 39.0943C16.2673 39.3612 16.4081 39.6729 16.4719 40.0043C16.4797 40.334 16.5125 40.6627 16.5702 40.9874C16.7215 41.3157 16.8992 41.6311 17.1017 41.9306C17.263 42.2789 17.3041 42.671 17.2184 43.0452C17.1328 43.4194 16.9253 43.7546 16.6286 43.9981L11.8851 49.8906C10.9081 50.2409 9.84206 48.9936 9.12009 48.2624C8.39812 47.5312 6.4012 46.2347 6.74221 45.2547Z" fill="#263238"/>
<path d="M16.521 43.2331C16.3551 41.8721 15.3535 40.25 14.0018 40.4681L9.81435 41.7891C9.40268 41.8567 9.18148 42.1855 9.04016 42.124L10.269 51.866L13.1446 53.8998L14.9296 51.7492C14.9296 51.7492 14.7975 50.4128 14.7975 50.419C14.7975 50.4251 16.5271 50.0288 16.7575 47.7308C16.8681 46.6002 16.7053 44.7477 16.521 43.2331Z" fill="#FFBF9D"/>
<path d="M12.8528 45.3069C12.8579 45.3825 12.8331 45.4572 12.7836 45.5146C12.7342 45.5721 12.6642 45.6079 12.5886 45.6141C12.5153 45.6219 12.442 45.6005 12.3844 45.5544C12.3269 45.5084 12.2899 45.4415 12.2814 45.3684C12.2807 45.2938 12.3071 45.2215 12.3557 45.165C12.4043 45.1085 12.4718 45.0716 12.5456 45.0611C12.6189 45.0534 12.6922 45.0748 12.7498 45.1208C12.8073 45.1669 12.8443 45.2337 12.8528 45.3069Z" fill="#263238"/>
<path d="M15.7376 45.1593C15.7383 45.2338 15.7119 45.3061 15.6633 45.3626C15.6147 45.4192 15.5472 45.4561 15.4734 45.4665C15.4003 45.4735 15.3273 45.4517 15.27 45.4058C15.2126 45.36 15.1754 45.2936 15.1662 45.2207C15.1654 45.1462 15.1918 45.0739 15.2404 45.0174C15.289 44.9609 15.3565 44.9239 15.4304 44.9135C15.4667 44.9092 15.5035 44.9122 15.5387 44.9223C15.5739 44.9324 15.6067 44.9493 15.6353 44.9722C15.6639 44.9951 15.6877 45.0234 15.7052 45.0555C15.7228 45.0876 15.7338 45.1229 15.7376 45.1593Z" fill="#263238"/>
<path d="M16.2507 44.2745C16.2199 44.3267 15.9434 44.1516 15.6116 44.1946C15.2798 44.2376 15.0464 44.4649 14.9972 44.4219C14.948 44.3789 14.9972 44.3113 15.1016 44.2069C15.2257 44.0709 15.3949 43.9846 15.5778 43.9642C15.76 43.9431 15.9437 43.9866 16.097 44.0871C16.2199 44.1669 16.2691 44.2499 16.2507 44.2745Z" fill="#263238"/>
<path d="M13.1354 44.5603C13.0955 44.6064 12.8282 44.4098 12.4657 44.419C12.1032 44.4282 11.8512 44.6279 11.7959 44.5818C11.7406 44.5357 11.8174 44.4743 11.9311 44.379C12.0843 44.2603 12.2719 44.1945 12.4657 44.1916C12.6585 44.1851 12.8475 44.2459 13.0002 44.3637C13.117 44.4528 13.1569 44.5388 13.1354 44.5603Z" fill="#263238"/>
<path d="M14.3643 46.7261C14.5261 46.6631 14.6955 46.6218 14.8682 46.6032C14.948 46.6032 15.0248 46.5694 15.0341 46.5141C15.0354 46.4313 15.0118 46.35 14.9665 46.2806L14.6931 45.6662C14.4475 45.1608 14.2421 44.6369 14.0786 44.0994C14.3658 44.5931 14.6133 45.1088 14.819 45.6416C14.9112 45.8505 14.9972 46.0502 15.0801 46.2561C15.1366 46.3478 15.1584 46.4568 15.1416 46.5633C15.132 46.5927 15.1156 46.6194 15.0937 46.6413C15.0718 46.6632 15.0451 46.6796 15.0156 46.6892C14.9718 46.7035 14.9264 46.7128 14.8805 46.7169C14.7093 46.7391 14.5362 46.7422 14.3643 46.7261Z" fill="#263238"/>
<path d="M14.7945 50.4314C13.7192 50.512 12.6427 50.2918 11.6854 49.7954C11.6854 49.7954 12.5487 51.4175 14.816 51.0734L14.7945 50.4314Z" fill="#FF9A6C"/>
<path d="M14.2753 47.485C14.2115 47.4129 14.1302 47.3583 14.0393 47.3266C13.9484 47.2948 13.8509 47.287 13.7561 47.3038C13.6867 47.3132 13.62 47.3369 13.5603 47.3734C13.5005 47.4099 13.449 47.4584 13.4089 47.5158C13.3699 47.5704 13.3489 47.636 13.3489 47.7032C13.3489 47.7703 13.3699 47.8359 13.4089 47.8906C13.4622 47.9446 13.5308 47.9812 13.6054 47.9955C13.68 48.0098 13.7572 48.001 13.8267 47.9704C13.9721 47.9104 14.1037 47.8216 14.2138 47.7093C14.2482 47.682 14.2773 47.6487 14.2998 47.611C14.3111 47.5936 14.3171 47.5733 14.3171 47.5526C14.3171 47.5319 14.3111 47.5116 14.2998 47.4942" fill="#28C76F"/>
<path d="M13.452 46.9966C13.5011 46.9966 13.5226 47.3314 13.8298 47.5557C14.1371 47.78 14.4965 47.7247 14.4996 47.7708C14.5026 47.8169 14.4228 47.8414 14.2722 47.8537C14.0718 47.8691 13.8724 47.8124 13.71 47.694C13.5503 47.5832 13.4401 47.4146 13.4028 47.2239C13.3936 47.0826 13.4274 46.9966 13.452 46.9966Z" fill="#263238"/>
<path d="M13.1262 43.4912C13.1017 43.5803 12.7852 43.5588 12.4196 43.6233C12.054 43.6878 11.7591 43.8076 11.7069 43.7339C11.6547 43.6602 11.7284 43.6141 11.8451 43.525C11.999 43.4131 12.1767 43.3384 12.3643 43.3069C12.5518 43.2736 12.7444 43.2852 12.9266 43.3406C13.0648 43.3837 13.1385 43.4482 13.1262 43.4912Z" fill="#263238"/>
<path d="M16.1554 43.1409C16.097 43.2146 15.8481 43.1409 15.5409 43.1685C15.2337 43.1962 14.9941 43.2484 14.9265 43.1685C14.8589 43.0886 14.9265 43.061 15.0402 42.9872C15.1859 42.8931 15.3552 42.842 15.5286 42.8398C15.7002 42.8321 15.8704 42.8726 16.0202 42.9565C16.1431 43.0333 16.1799 43.104 16.1554 43.1409Z" fill="#263238"/>
<path d="M5.39653 44.8153C5.61159 44.419 5.19684 43.9766 5.52864 43.608C5.86043 43.2393 6.62234 43.2639 6.90499 42.9229C6.98657 42.8494 7.05051 42.7585 7.092 42.6569C7.1335 42.5553 7.15149 42.4456 7.14462 42.3361C7.14462 42.0288 7.29516 40.7109 9.21221 40.4467L9.4795 41.6387C9.59931 41.5834 9.7222 41.5342 9.84509 41.4912C11.4092 40.9214 13.0356 40.5398 14.69 40.3545C14.7673 40.5363 14.7789 40.7394 14.7228 40.9289C14.6668 41.1183 14.5465 41.2824 14.3827 41.3929C14.0472 41.6044 13.6801 41.761 13.2952 41.8568C13.1023 41.9055 12.9213 41.9927 12.7629 42.113C12.6045 42.2334 12.4721 42.3845 12.3735 42.5573C12.2045 42.9413 12.3305 43.4021 12.183 43.7861C11.925 44.4651 10.9695 44.6648 10.7145 45.3438C10.521 45.8568 11.0217 46.4436 11.0955 46.9874C11.1692 47.6018 11.2952 48.5573 10.8374 48.9751C10.495 49.2661 10.136 49.5369 9.76213 49.7862L4.10314 46.2285C3.80513 45.5189 5.1016 45.3591 5.39653 44.8153Z" fill="#263238"/>
<path d="M9.41504 49.1931C9.56784 49.1638 9.71574 49.1132 9.85437 49.0426C10.3362 48.8056 10.7159 48.4021 10.9232 47.9068C11.1305 47.4114 11.1513 46.8578 10.9819 46.3482C10.9296 46.1793 10.8651 46.0072 10.8221 45.8321C10.776 45.6533 10.7707 45.4664 10.8068 45.2853C10.8283 45.1945 10.868 45.1091 10.9235 45.0342C10.9789 44.9592 11.0489 44.8962 11.1293 44.849C11.306 44.7554 11.4899 44.6763 11.6793 44.6124C11.8792 44.5509 12.0586 44.4362 12.1985 44.2807C12.3203 44.1156 12.3889 43.9173 12.3951 43.7123C12.4258 43.3252 12.3582 42.9442 12.4903 42.6217L12.5149 42.5633L12.5456 42.508C12.5674 42.4723 12.5921 42.4383 12.6194 42.4066C12.6738 42.3454 12.7369 42.2927 12.8068 42.2499C12.9441 42.1688 13.0919 42.1068 13.2461 42.0656C13.5349 42.0034 13.8132 41.9 14.0725 41.7584C14.2808 41.6288 14.4597 41.4572 14.5979 41.2545C14.7023 41.1032 14.7822 40.9362 14.8344 40.7599C14.8681 40.6489 14.8897 40.5345 14.8989 40.4189C14.903 40.3791 14.903 40.3389 14.8989 40.2991C14.8817 40.4521 14.8509 40.6032 14.8068 40.7507C14.751 40.9229 14.6692 41.0856 14.5641 41.233C14.4247 41.4266 14.2482 41.5906 14.0449 41.7154C13.7881 41.8494 13.5142 41.9476 13.2307 42.0072C13.0703 42.0486 12.9163 42.1116 12.773 42.1946C12.6968 42.2397 12.6283 42.2968 12.5702 42.3636C12.5392 42.3971 12.5124 42.4342 12.4903 42.4742L12.4535 42.5326L12.4258 42.5971C12.2845 42.9442 12.3551 43.3313 12.3214 43.7061C12.3158 43.8961 12.2538 44.0801 12.1432 44.2346C12.0098 44.3777 11.8415 44.4836 11.6547 44.5418C11.4598 44.6042 11.2715 44.6854 11.0925 44.7845C11.0021 44.8348 10.9235 44.9039 10.8621 44.9871C10.8006 45.0703 10.7577 45.1657 10.7361 45.2668C10.6974 45.4582 10.7037 45.6559 10.7545 45.8444C10.7975 46.0287 10.8651 46.1977 10.9174 46.3667C11.0158 46.6613 11.051 46.9733 11.0209 47.2824C10.9907 47.5915 10.8957 47.8908 10.7422 48.1608C10.5298 48.5271 10.2176 48.8254 9.84208 49.0211C9.74247 49.0722 9.63988 49.1174 9.53486 49.1562L9.41504 49.1931Z" fill="#263238"/>
<path d="M16.0326 40.8767C16.1468 40.848 16.2628 40.8264 16.3797 40.8122C16.6983 40.7832 17.0185 40.8472 17.3014 40.9966C17.5079 41.1093 17.6877 41.2655 17.8282 41.4543C17.9687 41.6431 18.0667 41.86 18.1155 42.0903C18.1647 42.365 18.175 42.6452 18.1462 42.9228C18.1462 43.0672 18.1186 43.2147 18.1032 43.3683C18.0865 43.525 18.0927 43.6834 18.1217 43.8383C18.1359 43.9194 18.1678 43.9964 18.215 44.0638C18.2622 44.1312 18.3237 44.1875 18.3951 44.2285C18.538 44.2914 18.6938 44.3199 18.8498 44.3115C18.991 44.3037 19.1325 44.3151 19.2707 44.3453C19.4 44.3807 19.5211 44.4413 19.627 44.5234C19.8277 44.6727 19.9648 44.8921 20.0111 45.1379C20.0448 45.3557 20.0448 45.5775 20.0111 45.7953C19.9806 45.9772 19.9622 46.1609 19.9558 46.3453C19.9531 46.4853 19.9706 46.625 20.008 46.76C20.0308 46.8466 20.0682 46.9287 20.1186 47.0027C20.1308 47.0209 20.1442 47.0384 20.1585 47.0549L20.177 47.0734C20.1155 46.9782 20.0679 46.8748 20.0356 46.7662C20.0028 46.6326 19.9903 46.4948 19.9988 46.3575C20.0095 46.1753 20.03 45.9938 20.0602 45.8138C20.1011 45.5917 20.1063 45.3646 20.0756 45.141C20.0282 44.8785 19.8833 44.6436 19.67 44.4835C19.5569 44.3955 19.4274 44.3307 19.2891 44.293C19.1462 44.2598 18.9994 44.2464 18.8528 44.2531C18.7097 44.262 18.5665 44.2368 18.435 44.1794C18.3717 44.1441 18.3175 44.0947 18.2764 44.035C18.2354 43.9753 18.2087 43.907 18.1985 43.8353C18.1672 43.5386 18.1744 43.2391 18.22 42.9443C18.2512 42.6594 18.2388 42.3714 18.1831 42.0903C18.132 41.8516 18.029 41.6272 17.8814 41.4328C17.7338 41.2385 17.5452 41.0791 17.329 40.9658C17.0363 40.8167 16.7056 40.7589 16.3797 40.7999C16.292 40.811 16.2056 40.8306 16.1217 40.8583C16.0602 40.8614 16.0295 40.8737 16.0326 40.8767Z" fill="#263238"/>
<path d="M6.49955 47.6785C6.49955 47.6785 6.49955 47.6785 6.49955 47.6447C6.48603 47.6107 6.47474 47.5758 6.46576 47.5403C6.42776 47.4064 6.42145 47.2654 6.44733 47.1286C6.48689 46.9105 6.59443 46.7105 6.75455 46.5572C6.85664 46.4651 6.97859 46.3978 7.11092 46.3606C7.25224 46.3237 7.41814 46.3083 7.56561 46.2561C7.64722 46.2283 7.72244 46.1844 7.78681 46.1271C7.85189 46.0641 7.90225 45.9875 7.93428 45.9028C7.99636 45.7202 8.01836 45.5263 7.99879 45.3344C7.98033 45.1383 7.98033 44.9408 7.99879 44.7446C8.01129 44.644 8.04366 44.5469 8.09403 44.4589C8.14959 44.37 8.22406 44.2945 8.31215 44.2377C8.50365 44.1318 8.71123 44.0582 8.92659 44.0195C9.15706 43.9769 9.37843 43.8948 9.58097 43.7768C9.68331 43.7093 9.76851 43.6188 9.82982 43.5126C9.88787 43.404 9.92832 43.2868 9.94964 43.1655C9.99572 42.9228 9.99572 42.6739 10.0418 42.4312C10.0894 42.1955 10.1957 41.9756 10.3509 41.792C10.5062 41.6083 10.7052 41.4668 10.9297 41.3805C11.1479 41.3132 11.3742 41.276 11.6025 41.2699C11.7162 41.2609 11.8285 41.2393 11.9374 41.2054C12.0461 41.1738 12.1453 41.1158 12.2261 41.0364C12.3625 40.8706 12.4602 40.6765 12.5119 40.4681C12.5785 40.2808 12.6831 40.1092 12.8191 39.9642C13.0606 39.7029 13.3874 39.5363 13.7407 39.4942C14.0326 39.4615 14.3272 39.5251 14.5795 39.6755C14.7697 39.7887 14.9331 39.9417 15.0587 40.124C15.1377 40.2384 15.1997 40.3636 15.243 40.4957C15.2562 40.5307 15.2665 40.5666 15.2738 40.6033C15.2738 40.6248 15.2738 40.6371 15.2738 40.6371C15.266 40.5892 15.2547 40.5419 15.24 40.4957C15.2029 40.3591 15.1437 40.2293 15.0649 40.1117C14.9384 39.9266 14.774 39.7706 14.5825 39.6539C14.3256 39.4975 14.0246 39.4295 13.7254 39.4604C13.3631 39.5027 13.0276 39.6726 12.7791 39.9397C12.6428 40.0891 12.5382 40.2647 12.4719 40.4558C12.4201 40.6567 12.3258 40.8443 12.1954 41.0057C12.028 41.1474 11.8156 41.2247 11.5963 41.2238C11.3627 41.2317 11.1313 41.271 10.9082 41.3406C10.6748 41.4269 10.4675 41.5716 10.3061 41.761C10.1448 41.9503 10.0347 42.1779 9.98651 42.422C9.93735 42.6708 9.93735 42.9197 9.89434 43.1563C9.87358 43.2724 9.83416 43.3845 9.7776 43.4881C9.71987 43.5886 9.64003 43.6748 9.54411 43.74C9.15087 43.9919 8.65317 43.9612 8.27529 44.2039C8.1819 44.2624 8.10394 44.3425 8.04795 44.4374C7.99255 44.5313 7.95797 44.6361 7.94656 44.7446C7.92543 44.9489 7.92543 45.1548 7.94656 45.359C7.9626 45.5416 7.94171 45.7255 7.88512 45.8997C7.85299 45.9786 7.80606 46.0505 7.74687 46.1117C7.68545 46.1653 7.61461 46.2069 7.53796 46.2346C7.38435 46.2868 7.23073 46.3022 7.08327 46.3421C6.94829 46.3822 6.82428 46.4526 6.72075 46.548C6.55648 46.7044 6.44848 46.9107 6.41353 47.1348C6.38758 47.274 6.39602 47.4174 6.43811 47.5526C6.44857 47.5884 6.46192 47.6234 6.47804 47.657L6.49955 47.6785Z" fill="#455A64"/>
</svg>
