<svg width="600" height="600" viewBox="0 0 600 600" fill="none" xmlns="http://www.w3.org/2000/svg">
<path d="M300 573.516C456.135 573.516 582.708 500.438 582.708 410.292C582.708 320.146 456.135 247.068 300 247.068C143.865 247.068 17.292 320.146 17.292 410.292C17.292 500.438 143.865 573.516 300 573.516Z" fill="#F0F0F0"/>
<path d="M241.5 533.976C295.341 533.976 338.988 508.779 338.988 477.696C338.988 446.613 295.341 421.416 241.5 421.416C187.659 421.416 144.012 446.613 144.012 477.696C144.012 508.779 187.659 533.976 241.5 533.976Z" fill="#E0E0E0"/>
<path d="M518.736 407.28L507.3 400.68C507.3 400.68 504.504 376.2 506.364 357.24C508.98 330.6 526.188 298.536 546.708 306.072C567.228 313.608 537.3 340.728 530.64 363.324C523.98 385.92 518.736 407.28 518.736 407.28Z" fill="#D51F27"/>
<path opacity="0.15" d="M518.736 407.28L507.3 400.68C507.3 400.68 504.504 376.2 506.364 357.24C508.98 330.6 526.188 298.536 546.708 306.072C567.228 313.608 537.3 340.728 530.64 363.324C523.98 385.92 518.736 407.28 518.736 407.28Z" fill="black"/>
<path d="M512.724 404.508C512.907 404.499 513.078 404.418 513.201 404.283C513.325 404.149 513.391 403.971 513.384 403.788C511.38 344.592 540.852 314.808 541.14 314.52C541.27 314.39 541.344 314.213 541.344 314.028C541.344 313.844 541.27 313.667 541.14 313.536C541.076 313.472 541.001 313.421 540.917 313.386C540.834 313.351 540.744 313.333 540.654 313.333C540.564 313.333 540.474 313.351 540.391 313.386C540.307 313.421 540.232 313.472 540.168 313.536C539.856 313.824 509.964 344.04 511.992 403.836C511.995 403.929 512.017 404.019 512.055 404.104C512.094 404.188 512.149 404.263 512.217 404.326C512.285 404.388 512.365 404.437 512.452 404.468C512.539 404.499 512.632 404.513 512.724 404.508Z" fill="white"/>
<path d="M525.924 411.396L517.788 406.704C517.788 406.704 516.396 389.904 524.64 369.504C531.84 351.744 549.6 336.996 558.552 340.092C567.504 343.188 567.276 349.536 562.908 356.196C558.54 362.856 532.008 378.708 525.924 411.396Z" fill="#D51F27"/>
<path d="M521.628 409.62C521.812 409.617 521.987 409.543 522.117 409.413C522.247 409.283 522.321 409.108 522.324 408.924C522.156 371.484 557.304 346.188 557.664 345.936C557.739 345.885 557.803 345.819 557.851 345.742C557.9 345.665 557.933 345.579 557.947 345.489C557.962 345.4 557.958 345.308 557.936 345.22C557.914 345.131 557.875 345.049 557.82 344.976C557.714 344.828 557.554 344.727 557.374 344.696C557.195 344.665 557.01 344.705 556.86 344.808C556.5 345.06 520.776 370.788 520.932 408.924C520.932 409.109 521.005 409.286 521.136 409.416C521.266 409.547 521.443 409.62 521.628 409.62Z" fill="white"/>
<path d="M95.5921 392.58L106.152 385.452C106.152 385.452 110.796 357.852 106.476 333.504C100.404 299.352 76.8001 288 68.4001 291.6C60.0001 295.2 58.2001 305.364 73.8841 324.852C83.1841 336.312 95.2681 360.78 95.5921 392.58Z" fill="#D51F27"/>
<g opacity="0.15">
<path d="M95.5921 392.58L106.152 385.452C106.152 385.452 110.796 357.852 106.476 333.504C100.404 299.352 76.8001 288 68.4001 291.6C60.0001 295.2 58.2001 305.364 73.8841 324.852C83.1841 336.312 95.2681 360.78 95.5921 392.58Z" fill="black"/>
</g>
<path d="M99.216 378.9H99.108C99.0002 378.893 98.895 378.864 98.7993 378.814C98.7036 378.763 98.6196 378.693 98.5527 378.608C98.4859 378.523 98.4378 378.425 98.4115 378.321C98.3851 378.216 98.3813 378.106 98.4 378C102.216 345.852 88.644 310.956 73.872 297.072C73.7299 296.928 73.6501 296.734 73.6501 296.532C73.6501 296.33 73.7299 296.136 73.872 295.992C73.9424 295.92 74.0265 295.863 74.1192 295.824C74.2119 295.785 74.3115 295.765 74.412 295.765C74.5126 295.765 74.6122 295.785 74.7049 295.824C74.7976 295.863 74.8817 295.92 74.952 295.992C90 310.128 103.824 345.6 99.9601 378.216C99.9374 378.4 99.8501 378.57 99.7138 378.695C99.5775 378.82 99.4011 378.893 99.216 378.9Z" fill="white"/>
<path d="M67.9441 411.228C66.2641 412.236 61.3681 408.6 60.0121 407.724C57.6882 406.207 55.7951 404.115 54.5161 401.652C53.0812 398.859 52.5487 395.689 52.9921 392.58C53.2379 390.957 53.5947 389.354 54.0601 387.78C54.4801 386.208 54.9001 384.636 55.2601 383.052C55.7923 381.511 55.9967 379.876 55.8601 378.252C55.3921 375.048 52.5001 372.852 49.8601 370.968C46.9561 368.868 43.8601 366.096 43.8601 362.232C44.0081 359.196 45.1701 356.298 47.1601 354C48.9601 351.6 51.1201 349.512 52.7401 347.004C54.0069 345.266 54.6534 343.153 54.5761 341.004C54.3675 339.679 53.8941 338.41 53.1841 337.272C51.7681 334.776 49.9321 332.472 48.9361 329.82C47.9401 327.168 48.0121 323.76 50.1361 321.78C51.8281 320.16 54.4081 319.896 56.7481 320.004C58.9531 320.224 61.0831 320.924 62.9881 322.056C69.1921 325.356 72.8401 332.556 79.4041 335.064C81.9361 336.024 84.6961 336.192 87.3241 336.84C89.9521 337.488 92.6641 338.772 93.9241 341.16C96.4081 345.9 92.0761 351.876 93.8521 356.904C95.4361 361.368 99.8521 363 102.348 366.996C103.361 368.771 103.782 370.822 103.548 372.852C103.407 376.279 102.639 379.651 101.28 382.8C99.7177 386.066 97.9543 389.232 96.0001 392.28C96.0001 392.28 68.1961 411.072 67.9441 411.228Z" fill="#D51F27"/>
<path d="M84.168 401.28C84.0671 401.278 83.9676 401.257 83.875 401.217C83.7824 401.177 83.6986 401.119 83.6284 401.047C83.5582 400.974 83.503 400.889 83.4658 400.795C83.4287 400.701 83.4104 400.601 83.412 400.5C84.084 370.116 69.132 336.9 58.548 327.3C58.3976 327.164 58.3069 326.975 58.2956 326.772C58.2844 326.57 58.3535 326.372 58.488 326.22C58.5584 326.148 58.6424 326.091 58.7351 326.052C58.8279 326.013 58.9274 325.993 59.028 325.993C59.1286 325.993 59.2281 326.013 59.3209 326.052C59.4136 326.091 59.4976 326.148 59.568 326.22C70.368 335.94 85.62 369.732 84.936 400.536C84.9344 400.635 84.9133 400.733 84.8739 400.824C84.8344 400.916 84.7774 400.998 84.7061 401.067C84.6348 401.136 84.5506 401.191 84.4582 401.227C84.3659 401.264 84.2673 401.282 84.168 401.28Z" fill="white"/>
<path d="M78.5641 364.26C78.4932 364.278 78.419 364.278 78.3481 364.26C68.5321 361.428 56.3641 361.14 56.2441 361.128C56.1438 361.126 56.0448 361.105 55.9529 361.065C55.861 361.025 55.778 360.966 55.7087 360.894C55.6395 360.821 55.5854 360.736 55.5495 360.642C55.5137 360.548 55.4969 360.448 55.5001 360.348C55.4983 360.247 55.5174 360.146 55.5564 360.053C55.5955 359.959 55.6535 359.875 55.7268 359.805C55.8001 359.735 55.8871 359.681 55.9824 359.646C56.0776 359.612 56.179 359.597 56.2801 359.604C56.4001 359.604 68.7601 359.904 78.7681 362.784C78.9616 362.842 79.1242 362.975 79.2207 363.152C79.3173 363.33 79.3401 363.538 79.2841 363.732C79.2374 363.886 79.142 364.021 79.0121 364.116C78.8823 364.211 78.7251 364.262 78.5641 364.26Z" fill="white"/>
<path d="M361.392 371.688L356.844 369.06C356.086 368.568 355.455 367.904 355.003 367.122C354.55 366.34 354.289 365.462 354.24 364.56V175.536C354.29 174.635 354.55 173.759 355 172.977C355.45 172.196 356.078 171.531 356.832 171.036L483.252 98.052C484.057 97.644 484.947 97.4314 485.85 97.4314C486.753 97.4314 487.643 97.644 488.448 98.052L492.996 100.68C493.754 101.172 494.385 101.836 494.837 102.618C495.29 103.4 495.551 104.278 495.6 105.18V294.204C495.55 295.105 495.29 295.981 494.84 296.763C494.39 297.544 493.762 298.209 493.008 298.704L366.588 371.7C365.783 372.109 364.892 372.321 363.989 372.319C363.085 372.317 362.195 372.101 361.392 371.688Z" fill="#455A64"/>
<path d="M495.6 104.76C495.42 103.416 494.328 102.924 493.02 103.68L366.588 176.676C365.823 177.156 365.192 177.82 364.752 178.608L354.996 172.98C355.432 172.186 356.064 171.517 356.832 171.036L483.252 98.052C484.057 97.644 484.947 97.4314 485.85 97.4314C486.753 97.4314 487.643 97.644 488.448 98.052L492.996 100.68C493.698 101.132 494.295 101.731 494.744 102.435C495.194 103.139 495.486 103.932 495.6 104.76Z" fill="#455A64"/>
<path d="M366.144 371.904C365.376 372.215 364.55 372.358 363.722 372.323C362.894 372.288 362.083 372.075 361.344 371.7L356.784 369.06C356.03 368.565 355.402 367.9 354.952 367.119C354.502 366.337 354.241 365.461 354.192 364.56V175.536C354.223 174.634 354.483 173.754 354.948 172.98L364.704 178.608C364.23 179.383 363.965 180.268 363.936 181.176V370.2C363.984 371.688 364.92 372.372 366.144 371.904Z" fill="#263238"/>
<path d="M363.984 181.2V370.2C363.984 371.856 365.184 372.528 366.588 371.7L493.008 298.704C493.762 298.209 494.39 297.544 494.84 296.763C495.29 295.981 495.55 295.105 495.6 294.204V105.18C495.6 103.524 494.4 102.852 493.008 103.68L366.588 176.676C365.827 177.17 365.194 177.838 364.741 178.625C364.289 179.411 364.029 180.294 363.984 181.2Z" fill="#37474F"/>
<path d="M334.464 253.2C332.832 252.228 325.26 247.92 324.864 247.692C324.555 247.508 324.292 247.257 324.093 246.957C323.895 246.658 323.766 246.318 323.717 245.962C323.667 245.606 323.698 245.243 323.807 244.901C323.917 244.559 324.101 244.245 324.348 243.984L354.24 211.92L363.984 217.512L334.104 249.6C333.869 249.85 333.691 250.147 333.581 250.472C333.47 250.796 333.431 251.141 333.465 251.482C333.499 251.823 333.606 252.153 333.778 252.449C333.951 252.746 334.184 253.002 334.464 253.2Z" fill="#455A64"/>
<path d="M363.984 217.548L334.104 249.6C333.772 249.954 333.556 250.401 333.483 250.881C333.41 251.361 333.484 251.851 333.696 252.288C333.908 252.725 334.247 253.087 334.669 253.327C335.091 253.567 335.576 253.673 336.06 253.632L363.984 251.328V217.548Z" fill="#37474F"/>
<path d="M429.792 159.84C444.528 151.332 456.468 158.232 456.468 175.248C456.468 192.264 444.528 212.94 429.792 221.448C415.056 229.956 403.116 223.056 403.116 206.052C403.116 189.048 415.056 168.348 429.792 159.84Z" fill="#D51F27"/>
<path d="M429.6 173.232C434.4 170.472 438.252 172.704 438.252 178.224C438.088 181.225 437.22 184.144 435.716 186.746C434.213 189.349 432.118 191.559 429.6 193.2C424.8 195.96 420.936 193.728 420.936 188.208C421.101 185.206 421.971 182.286 423.477 179.684C424.982 177.082 427.08 174.871 429.6 173.232Z" fill="white"/>
<path d="M446.664 202.656C446.664 193.596 440.292 189.912 432.444 194.448L427.536 197.28C419.688 201.816 413.316 212.88 413.316 221.916V224.4C414.798 224.874 416.344 225.112 417.9 225.108C422.11 224.965 426.209 223.724 429.792 221.508C436.613 217.306 442.384 211.601 446.664 204.828V202.656Z" fill="white"/>
<path d="M412.896 305.676L446.688 286.164C448.128 285.336 449.292 286.008 449.292 287.664V298.548C449.243 299.45 448.982 300.328 448.529 301.11C448.077 301.892 447.446 302.556 446.688 303.048L412.896 322.56C411.456 323.388 410.292 322.716 410.292 321.06V310.176C410.341 309.274 410.602 308.396 411.055 307.614C411.507 306.832 412.138 306.168 412.896 305.676Z" fill="#D51F27"/>
<path d="M396.348 281.364L463.2 242.748C464.916 241.752 466.32 242.556 466.32 244.548V248.592C466.261 249.674 465.948 250.727 465.406 251.665C464.864 252.604 464.108 253.401 463.2 253.992L396.312 292.608C394.596 293.604 393.204 292.8 393.204 290.808V286.8C393.259 285.709 393.572 284.647 394.119 283.702C394.666 282.757 395.43 281.955 396.348 281.364Z" fill="#FAFAFA"/>
<path d="M404.172 253.416C405.084 252.888 405.792 252.804 406.296 253.176C406.8 253.548 407.052 254.376 407.052 255.648C407.077 256.809 406.818 257.959 406.296 258.996C405.824 259.934 405.085 260.711 404.172 261.228L402.372 262.272V266.148C402.368 266.282 402.336 266.413 402.276 266.532C402.234 266.641 402.158 266.733 402.06 266.796L401.148 267.324C401.117 267.347 401.079 267.36 401.04 267.36C401.001 267.36 400.963 267.347 400.932 267.324C400.867 267.243 400.837 267.139 400.848 267.036V255.816C400.847 255.683 400.876 255.552 400.932 255.432C400.977 255.325 401.052 255.234 401.148 255.168L404.172 253.416ZM402.372 260.1L404.112 259.092C404.532 258.855 404.887 258.517 405.144 258.108C405.417 257.626 405.55 257.078 405.528 256.524C405.528 255.876 405.396 255.504 405.144 255.396C404.966 255.353 404.78 255.351 404.601 255.39C404.423 255.43 404.255 255.51 404.112 255.624L402.372 256.632V260.1Z" fill="#FAFAFA"/>
<path d="M412.08 248.844C412.2 248.772 412.296 248.772 412.356 248.844C412.433 248.952 412.486 249.074 412.512 249.204L415.284 258.588C415.284 258.588 415.284 258.66 415.284 258.696C415.282 258.83 415.249 258.961 415.188 259.08C415.146 259.189 415.07 259.281 414.972 259.344L414.156 259.812C414.012 259.896 413.904 259.908 413.844 259.812C413.786 259.752 413.744 259.677 413.724 259.596L413.232 257.952L409.632 260.016L409.152 262.224C409.118 262.344 409.074 262.46 409.02 262.572C408.96 262.718 408.849 262.838 408.708 262.908L407.892 263.376C407.862 263.401 407.823 263.415 407.784 263.415C407.744 263.415 407.706 263.401 407.676 263.376C407.613 263.298 407.583 263.199 407.592 263.1C407.585 263.056 407.585 263.012 407.592 262.968L410.352 250.392C410.385 250.207 410.437 250.026 410.508 249.852C410.567 249.726 410.663 249.621 410.784 249.552L412.08 248.844ZM412.704 256.116L411.504 251.88L410.304 257.544L412.704 256.116Z" fill="#FAFAFA"/>
<path d="M419.484 244.392C419.886 244.139 420.343 243.986 420.816 243.948C421.151 243.918 421.486 243.993 421.776 244.164C422.039 244.335 422.244 244.582 422.364 244.872C422.495 245.167 422.568 245.485 422.58 245.808C422.588 245.941 422.559 246.074 422.496 246.192C422.454 246.301 422.378 246.393 422.28 246.456L421.488 246.912C421.356 246.984 421.26 246.996 421.2 246.912C421.126 246.863 421.064 246.797 421.02 246.72C420.972 246.612 420.902 246.515 420.816 246.434C420.729 246.354 420.627 246.292 420.516 246.252C420.151 246.2 419.779 246.295 419.484 246.516C419.289 246.641 419.105 246.782 418.932 246.936C418.754 247.1 418.596 247.285 418.464 247.488C418.336 247.683 418.232 247.893 418.152 248.112C418.081 248.321 418.045 248.54 418.044 248.76C418.03 248.962 418.067 249.164 418.152 249.348C418.189 249.412 418.241 249.467 418.304 249.507C418.366 249.546 418.438 249.57 418.512 249.576C418.734 249.615 418.962 249.615 419.184 249.576L420.228 249.348C420.617 249.233 421.023 249.184 421.428 249.204C421.717 249.203 421.999 249.296 422.232 249.468C422.452 249.653 422.611 249.9 422.688 250.176C422.805 250.565 422.858 250.97 422.844 251.376C422.843 251.912 422.766 252.445 422.616 252.96C422.469 253.489 422.256 253.997 421.98 254.472C421.689 254.959 421.343 255.41 420.948 255.816C420.544 256.235 420.084 256.594 419.58 256.884C419.21 257.109 418.804 257.267 418.38 257.352C418.035 257.418 417.678 257.389 417.348 257.268C417.048 257.129 416.8 256.897 416.64 256.608C416.444 256.238 416.337 255.827 416.328 255.408C416.327 255.271 416.355 255.136 416.412 255.012C416.465 254.91 416.544 254.823 416.64 254.76L417.432 254.304C417.552 254.232 417.648 254.208 417.72 254.244C417.792 254.28 417.84 254.34 417.888 254.448C417.937 254.571 418.002 254.688 418.08 254.796C418.155 254.901 418.259 254.98 418.38 255.024C418.538 255.06 418.702 255.06 418.86 255.024C419.115 254.964 419.358 254.863 419.58 254.724C419.813 254.591 420.033 254.439 420.24 254.268C420.643 253.949 420.964 253.537 421.176 253.068C421.272 252.828 421.321 252.571 421.32 252.312C421.331 252.218 421.323 252.123 421.296 252.032C421.27 251.941 421.224 251.857 421.164 251.784C421.099 251.727 421.023 251.684 420.94 251.659C420.857 251.635 420.77 251.628 420.684 251.64C420.412 251.651 420.142 251.696 419.88 251.772C419.568 251.844 419.208 251.928 418.788 252C418.466 252.08 418.134 252.105 417.804 252.072C417.544 252.055 417.298 251.949 417.108 251.772C416.9 251.569 416.755 251.311 416.688 251.028C416.591 250.611 416.547 250.184 416.556 249.756C416.555 249.228 416.632 248.702 416.784 248.196C416.927 247.675 417.137 247.175 417.408 246.708C417.667 246.244 417.982 245.813 418.344 245.424C418.673 245.028 419.057 244.68 419.484 244.392Z" fill="#FAFAFA"/>
<path d="M427.368 239.856C427.767 239.595 428.225 239.438 428.7 239.4C429.035 239.372 429.37 239.447 429.66 239.616C429.916 239.791 430.116 240.037 430.236 240.324C430.367 240.619 430.44 240.937 430.452 241.26C430.466 241.394 430.437 241.528 430.368 241.644C430.326 241.753 430.25 241.845 430.152 241.908L429.36 242.364C429.24 242.436 429.144 242.46 429.072 242.364C428.995 242.316 428.937 242.244 428.904 242.16C428.794 241.949 428.61 241.787 428.388 241.704C428.209 241.678 428.026 241.688 427.851 241.733C427.676 241.778 427.512 241.858 427.368 241.968C427.167 242.09 426.979 242.231 426.804 242.388C426.629 242.552 426.476 242.738 426.348 242.94C426.216 243.133 426.111 243.343 426.036 243.564C425.961 243.772 425.921 243.991 425.916 244.212C425.902 244.414 425.939 244.616 426.024 244.8C426.061 244.864 426.113 244.919 426.176 244.959C426.238 244.998 426.31 245.022 426.384 245.028C426.606 245.067 426.834 245.067 427.056 245.028L428.1 244.8C428.49 244.691 428.895 244.643 429.3 244.656C429.59 244.653 429.872 244.746 430.104 244.92C430.323 245.107 430.485 245.353 430.572 245.628C430.678 246.019 430.726 246.423 430.716 246.828C430.715 247.364 430.638 247.897 430.488 248.412C430.341 248.941 430.128 249.449 429.852 249.924C429.563 250.415 429.216 250.87 428.82 251.28C428.415 251.688 427.959 252.043 427.464 252.336C427.094 252.56 426.688 252.719 426.264 252.804C425.923 252.869 425.57 252.84 425.244 252.72C424.938 252.585 424.685 252.353 424.524 252.06C424.327 251.691 424.224 251.279 424.224 250.86C424.21 250.726 424.239 250.592 424.308 250.476C424.35 250.367 424.426 250.275 424.524 250.212L425.316 249.756C425.436 249.684 425.544 249.66 425.604 249.696C425.646 249.715 425.682 249.743 425.712 249.779C425.741 249.814 425.761 249.855 425.772 249.9C425.826 250.021 425.89 250.138 425.964 250.248C426.043 250.353 426.152 250.433 426.276 250.476C426.434 250.512 426.598 250.512 426.756 250.476C427.011 250.416 427.254 250.315 427.476 250.176C427.703 250.04 427.919 249.888 428.124 249.72C428.335 249.556 428.521 249.362 428.676 249.144C428.831 248.937 428.96 248.711 429.06 248.472C429.156 248.232 429.205 247.975 429.204 247.716C429.215 247.622 429.207 247.527 429.18 247.436C429.154 247.345 429.108 247.261 429.048 247.188C428.983 247.131 428.907 247.088 428.824 247.064C428.741 247.039 428.654 247.032 428.568 247.044C428.3 247.06 428.035 247.105 427.776 247.176C427.464 247.248 427.092 247.332 426.684 247.404C426.358 247.484 426.022 247.509 425.688 247.476C425.428 247.462 425.181 247.356 424.992 247.176C424.788 246.972 424.647 246.714 424.584 246.432C424.477 246.021 424.429 245.597 424.44 245.172C424.444 244.64 424.521 244.111 424.668 243.6C424.816 243.081 425.026 242.582 425.292 242.112C425.552 241.645 425.87 241.214 426.24 240.828C426.563 240.447 426.944 240.119 427.368 239.856Z" fill="#FAFAFA"/>
<path d="M436.116 241.356L435.144 247.104C435.115 247.277 435.067 247.446 435 247.608C434.953 247.737 434.865 247.847 434.748 247.92L433.836 248.448C433.716 248.52 433.632 248.52 433.572 248.448C433.491 248.349 433.445 248.227 433.44 248.1L432 237.96C432 237.96 432 237.864 432 237.828C432.004 237.695 432.036 237.563 432.096 237.444C432.142 237.337 432.216 237.246 432.312 237.18L433.14 236.7C433.209 236.672 433.287 236.672 433.356 236.7C433.428 236.7 433.476 236.796 433.5 236.988L434.448 243.816L435.276 238.692C435.298 238.564 435.334 238.439 435.384 238.32C435.432 238.168 435.534 238.04 435.672 237.96L436.596 237.42C436.728 237.348 436.824 237.36 436.884 237.42C436.936 237.496 436.972 237.582 436.992 237.672L437.832 241.836L438.78 233.916C438.791 233.76 438.836 233.609 438.912 233.472C438.968 233.382 439.042 233.305 439.128 233.244L439.956 232.764C439.987 232.741 440.025 232.728 440.064 232.728C440.103 232.728 440.141 232.741 440.172 232.764C440.206 232.803 440.232 232.849 440.249 232.898C440.265 232.948 440.272 233 440.268 233.052C440.273 233.1 440.273 233.148 440.268 233.196L438.828 244.992C438.804 245.165 438.76 245.334 438.696 245.496C438.641 245.624 438.549 245.733 438.432 245.808L437.508 246.336C437.4 246.396 437.316 246.396 437.256 246.336C437.195 246.226 437.147 246.109 437.112 245.988L436.116 241.356Z" fill="#FAFAFA"/>
<path d="M441.732 236.268C441.759 235.603 441.839 234.941 441.972 234.288C442.109 233.65 442.318 233.03 442.596 232.44C442.86 231.866 443.199 231.329 443.604 230.844C444.014 230.362 444.506 229.956 445.056 229.644C445.479 229.357 445.973 229.195 446.484 229.176C446.865 229.18 447.23 229.331 447.504 229.596C447.795 229.923 448.004 230.313 448.116 230.736C448.271 231.287 448.355 231.856 448.368 232.428C448.368 232.644 448.368 232.884 448.368 233.148C448.368 233.412 448.368 233.688 448.368 233.976C448.368 234.264 448.368 234.54 448.368 234.804C448.368 235.068 448.368 235.32 448.368 235.548C448.342 236.209 448.262 236.868 448.128 237.516C447.989 238.152 447.784 238.771 447.516 239.364C447.243 239.936 446.901 240.472 446.496 240.96C446.086 241.437 445.599 241.843 445.056 242.16C444.623 242.445 444.121 242.607 443.604 242.628C443.417 242.632 443.231 242.598 443.058 242.528C442.885 242.457 442.728 242.353 442.596 242.22C442.283 241.884 442.067 241.469 441.972 241.02C441.829 240.467 441.749 239.899 441.732 239.328C441.732 239.112 441.732 238.872 441.732 238.608C441.732 238.344 441.732 238.068 441.732 237.78C441.732 237.492 441.732 237.228 441.732 236.952C441.732 236.676 441.72 236.484 441.732 236.268ZM446.844 233.4C446.871 233.106 446.838 232.811 446.747 232.53C446.656 232.25 446.51 231.99 446.316 231.768C446.004 231.492 445.572 231.504 445.056 231.768C444.496 232.097 444.051 232.592 443.784 233.184C443.444 233.884 443.263 234.65 443.256 235.428C443.256 235.872 443.256 236.364 443.256 236.904C443.256 237.444 443.256 237.924 443.256 238.356C443.229 238.65 443.262 238.946 443.353 239.226C443.444 239.507 443.59 239.766 443.784 239.988C444.096 240.252 444.528 240.228 445.056 239.928C445.607 239.597 446.046 239.107 446.316 238.524C446.656 237.829 446.837 237.066 446.844 236.292C446.844 235.836 446.844 235.344 446.844 234.804C446.844 234.264 446.856 233.832 446.844 233.4Z" fill="#FAFAFA"/>
<path d="M453.6 224.856C454.548 224.316 455.256 224.232 455.748 224.628C456.039 224.949 456.256 225.331 456.383 225.746C456.509 226.161 456.543 226.599 456.48 227.028C456.49 227.843 456.364 228.654 456.108 229.428C455.864 230.149 455.485 230.817 454.992 231.396L456.552 234.792C456.557 234.848 456.557 234.904 456.552 234.96C456.552 235.068 456.528 235.175 456.48 235.272C456.447 235.359 456.388 235.434 456.312 235.488L455.352 236.04C455.196 236.124 455.088 236.136 455.016 236.04C454.952 235.977 454.9 235.904 454.86 235.824L453.384 232.62L451.884 233.484V237.54C451.885 237.673 451.856 237.804 451.8 237.924C451.75 238.028 451.676 238.119 451.584 238.188L450.672 238.716C450.642 238.741 450.603 238.755 450.564 238.755C450.524 238.755 450.486 238.741 450.456 238.716C450.421 238.679 450.395 238.636 450.379 238.588C450.362 238.541 450.356 238.49 450.36 238.44V227.22C450.363 227.087 450.396 226.956 450.456 226.836C450.498 226.727 450.574 226.635 450.672 226.572L453.6 224.856ZM451.908 231.312L453.6 230.4C454.013 230.169 454.367 229.845 454.632 229.452C454.91 228.99 455.044 228.455 455.016 227.916C455.016 227.268 454.884 226.908 454.632 226.836C454.267 226.786 453.896 226.881 453.6 227.1L451.968 228.036L451.908 231.312Z" fill="#FAFAFA"/>
<path d="M461.64 220.236C462.075 219.952 462.574 219.779 463.092 219.732C463.467 219.718 463.834 219.852 464.112 220.104C464.43 220.438 464.65 220.853 464.748 221.304C464.909 221.899 464.998 222.512 465.012 223.128C465.012 223.968 465.012 224.832 465.012 225.708C464.987 226.423 464.899 227.133 464.748 227.832C464.611 228.481 464.401 229.113 464.124 229.716C463.856 230.27 463.517 230.786 463.116 231.252C462.715 231.729 462.236 232.135 461.7 232.452L458.856 234C458.826 234.025 458.787 234.039 458.748 234.039C458.708 234.039 458.67 234.025 458.64 234C458.605 233.964 458.578 233.92 458.562 233.873C458.545 233.825 458.539 233.774 458.544 233.724V222.504C458.547 222.371 458.58 222.239 458.64 222.12C458.682 222.011 458.758 221.919 458.856 221.856L461.64 220.236ZM463.488 223.968C463.483 223.643 463.434 223.32 463.344 223.008C463.288 222.772 463.168 222.556 462.996 222.384C462.921 222.309 462.831 222.25 462.732 222.21C462.632 222.171 462.526 222.153 462.42 222.156C462.119 222.176 461.83 222.275 461.58 222.444L460.068 223.308V231.132L461.64 230.232C461.944 230.055 462.216 229.828 462.444 229.56C462.667 229.297 462.857 229.007 463.008 228.696C463.157 228.365 463.27 228.019 463.344 227.664C463.428 227.293 463.476 226.916 463.488 226.536C463.524 225.66 463.524 224.808 463.488 223.968Z" fill="#FAFAFA"/>
<path d="M296.856 46.068C298.927 46.5289 300.923 47.2803 302.784 48.3C304.566 49.2579 306.163 50.5257 307.5 52.044C308.779 53.5044 309.729 55.2235 310.284 57.084C310.85 59.0755 310.892 61.1797 310.404 63.192C310.082 64.7874 309.45 66.3041 308.544 67.656C307.717 68.812 306.731 69.8461 305.616 70.728C304.521 71.5782 303.352 72.3292 302.124 72.972L298.668 74.808C297.627 75.351 296.639 75.9897 295.716 76.716C294.881 77.3563 294.241 78.2164 293.868 79.2C293.685 79.6493 293.382 80.0396 292.992 80.328C292.807 80.4714 292.593 80.5708 292.364 80.6186C292.135 80.6664 291.898 80.6614 291.672 80.604L286.584 79.476C286.339 79.4246 286.107 79.3249 285.901 79.1828C285.695 79.0406 285.519 78.8588 285.384 78.648C285.24 78.452 285.145 78.2249 285.105 77.9852C285.066 77.7455 285.083 77.4997 285.156 77.268C285.566 75.6922 286.288 74.215 287.28 72.924C288.185 71.782 289.234 70.7616 290.4 69.888C291.536 69.0563 292.74 68.3217 294 67.692C295.2 67.08 296.4 66.492 297.444 65.904C298.415 65.382 299.328 64.7585 300.168 64.044C300.905 63.4271 301.416 62.5829 301.62 61.644C301.811 60.8287 301.801 59.9793 301.592 59.1684C301.383 58.3576 300.981 57.6094 300.42 56.988C299.017 55.4559 297.141 54.4378 295.092 54.096C291.3 53.256 288.1 54.532 285.492 57.924C285.24 58.2942 284.923 58.6155 284.556 58.872C284.142 59.0773 283.663 59.1118 283.224 58.968L277.812 57.768C277.426 57.6934 277.085 57.469 276.864 57.144C276.746 56.9703 276.666 56.7732 276.631 56.5662C276.596 56.3591 276.606 56.1469 276.66 55.944C277.12 54.2765 277.976 52.745 279.156 51.48C280.486 50.0129 282.067 48.794 283.824 47.88C285.745 46.8749 287.816 46.186 289.956 45.84C292.249 45.467 294.593 45.5444 296.856 46.068ZM291.108 84.684C291.584 84.7957 291.997 85.0893 292.26 85.5019C292.522 85.9146 292.613 86.4135 292.512 86.892L291.216 92.772C291.172 93.0182 291.077 93.2523 290.936 93.4591C290.795 93.6659 290.613 93.8407 290.4 93.972C290.199 94.1105 289.972 94.2055 289.732 94.251C289.492 94.2964 289.246 94.2913 289.008 94.236L283.2 92.904C282.953 92.8623 282.718 92.7679 282.511 92.627C282.304 92.4862 282.129 92.3023 282 92.088C281.865 91.8853 281.774 91.6573 281.73 91.4179C281.687 91.1786 281.693 90.9329 281.748 90.696L283.056 84.816C283.168 84.3393 283.461 83.9249 283.873 83.6606C284.285 83.3963 284.784 83.3028 285.264 83.4L291.108 84.684Z" fill="#D51F27"/>
<path d="M303.264 102.36C304.709 102.128 306.179 102.1 307.632 102.276C309.02 102.441 310.368 102.847 311.616 103.476C312.804 104.093 313.851 104.951 314.688 105.996C315.44 107.019 315.97 108.188 316.243 109.428C316.516 110.668 316.526 111.952 316.272 113.196C316.043 114.153 315.675 115.07 315.18 115.92C314.702 116.746 314.148 117.526 313.524 118.248C312.912 118.968 312.324 119.652 311.784 120.312C311.255 120.927 310.785 121.59 310.38 122.292C310 122.907 309.808 123.621 309.828 124.344C309.817 124.682 309.722 125.012 309.552 125.304C309.465 125.439 309.351 125.553 309.216 125.64C309.082 125.727 308.93 125.784 308.772 125.808L305.172 126.384C305.004 126.414 304.831 126.411 304.664 126.374C304.497 126.337 304.339 126.267 304.2 126.168C304.058 126.079 303.94 125.957 303.854 125.813C303.768 125.669 303.718 125.507 303.708 125.34C303.557 124.223 303.639 123.088 303.948 122.004C304.23 121.045 304.633 120.125 305.148 119.268C305.653 118.445 306.231 117.67 306.876 116.952C307.512 116.232 308.076 115.56 308.628 114.912C309.121 114.333 309.547 113.701 309.9 113.028C310.212 112.448 310.326 111.782 310.224 111.132C310.134 110.559 309.906 110.017 309.562 109.551C309.217 109.085 308.765 108.71 308.244 108.456C306.954 107.833 305.494 107.655 304.092 107.952C302.823 108.138 301.642 108.711 300.712 109.594C299.782 110.477 299.147 111.626 298.896 112.884C298.826 113.186 298.704 113.475 298.536 113.736C298.322 113.964 298.031 114.105 297.72 114.132L293.928 114.744C293.661 114.795 293.385 114.739 293.16 114.588C293.044 114.509 292.947 114.405 292.875 114.285C292.802 114.165 292.756 114.031 292.74 113.892C292.627 112.701 292.813 111.501 293.28 110.4C293.754 109.119 294.453 107.932 295.344 106.896C296.32 105.761 297.47 104.789 298.752 104.016C300.135 103.177 301.667 102.615 303.264 102.36ZM309.456 128.58C309.621 128.554 309.79 128.56 309.953 128.6C310.115 128.639 310.269 128.709 310.404 128.808C310.545 128.901 310.665 129.023 310.756 129.165C310.847 129.308 310.907 129.469 310.932 129.636L311.604 133.752C311.656 134.086 311.574 134.427 311.377 134.701C311.179 134.975 310.881 135.16 310.548 135.216L306.528 135.876C306.194 135.928 305.854 135.846 305.58 135.648C305.441 135.554 305.323 135.431 305.234 135.289C305.145 135.146 305.087 134.986 305.064 134.82L304.392 130.704C304.361 130.539 304.366 130.369 304.405 130.206C304.445 130.042 304.518 129.889 304.62 129.756C304.714 129.617 304.836 129.499 304.979 129.41C305.122 129.321 305.281 129.263 305.448 129.24L309.456 128.58Z" fill="#D51F27"/>
<g opacity="0.2">
<path d="M303.264 102.36C304.709 102.128 306.179 102.1 307.632 102.276C309.02 102.441 310.368 102.847 311.616 103.476C312.804 104.093 313.851 104.951 314.688 105.996C315.44 107.019 315.97 108.188 316.243 109.428C316.516 110.668 316.526 111.952 316.272 113.196C316.043 114.153 315.675 115.07 315.18 115.92C314.702 116.746 314.148 117.526 313.524 118.248C312.912 118.968 312.324 119.652 311.784 120.312C311.255 120.927 310.785 121.59 310.38 122.292C310 122.907 309.808 123.621 309.828 124.344C309.817 124.682 309.722 125.012 309.552 125.304C309.465 125.439 309.351 125.553 309.216 125.64C309.082 125.727 308.93 125.784 308.772 125.808L305.172 126.384C305.004 126.414 304.831 126.411 304.664 126.374C304.497 126.337 304.339 126.267 304.2 126.168C304.058 126.079 303.94 125.957 303.854 125.813C303.768 125.669 303.718 125.507 303.708 125.34C303.557 124.223 303.639 123.088 303.948 122.004C304.23 121.045 304.633 120.125 305.148 119.268C305.653 118.445 306.231 117.67 306.876 116.952C307.512 116.232 308.076 115.56 308.628 114.912C309.121 114.333 309.547 113.701 309.9 113.028C310.212 112.448 310.326 111.782 310.224 111.132C310.134 110.559 309.906 110.017 309.562 109.551C309.217 109.085 308.765 108.71 308.244 108.456C306.954 107.833 305.494 107.655 304.092 107.952C302.823 108.138 301.642 108.711 300.712 109.594C299.782 110.477 299.147 111.626 298.896 112.884C298.826 113.186 298.704 113.475 298.536 113.736C298.322 113.964 298.031 114.105 297.72 114.132L293.928 114.744C293.661 114.795 293.385 114.739 293.16 114.588C293.044 114.509 292.947 114.405 292.875 114.285C292.802 114.165 292.756 114.031 292.74 113.892C292.627 112.701 292.813 111.501 293.28 110.4C293.754 109.119 294.453 107.932 295.344 106.896C296.32 105.761 297.47 104.789 298.752 104.016C300.135 103.177 301.667 102.615 303.264 102.36ZM309.456 128.58C309.621 128.554 309.79 128.56 309.953 128.6C310.115 128.639 310.269 128.709 310.404 128.808C310.545 128.901 310.665 129.023 310.756 129.165C310.847 129.308 310.907 129.469 310.932 129.636L311.604 133.752C311.656 134.086 311.574 134.427 311.377 134.701C311.179 134.975 310.881 135.16 310.548 135.216L306.528 135.876C306.194 135.928 305.854 135.846 305.58 135.648C305.441 135.554 305.323 135.431 305.234 135.289C305.145 135.146 305.087 134.986 305.064 134.82L304.392 130.704C304.361 130.539 304.366 130.369 304.405 130.206C304.445 130.042 304.518 129.889 304.62 129.756C304.714 129.617 304.836 129.499 304.979 129.41C305.122 129.321 305.281 129.263 305.448 129.24L309.456 128.58Z" fill="black"/>
</g>
<path d="M337.2 108.828C337.364 108.942 337.502 109.088 337.608 109.257C337.713 109.426 337.782 109.615 337.812 109.812C337.85 110.007 337.848 110.208 337.804 110.402C337.761 110.596 337.678 110.78 337.56 110.94L334.704 114.96C334.59 115.124 334.444 115.262 334.275 115.367C334.106 115.473 333.917 115.542 333.72 115.572C333.525 115.61 333.324 115.607 333.13 115.564C332.936 115.521 332.752 115.438 332.592 115.32L328.656 112.524C328.492 112.412 328.354 112.266 328.25 112.096C328.147 111.927 328.081 111.737 328.056 111.54C328.018 111.345 328.021 111.144 328.064 110.95C328.107 110.755 328.19 110.572 328.308 110.412L331.2 106.392C331.434 106.066 331.787 105.846 332.182 105.778C332.577 105.711 332.983 105.802 333.312 106.032L337.2 108.828ZM353.808 81.5999C355.243 82.6057 356.521 83.8189 357.6 85.1999C358.652 86.4845 359.465 87.9478 360 89.5199C360.498 91.0265 360.666 92.6227 360.492 94.1999C360.289 95.8819 359.652 97.4821 358.644 98.8439C357.895 99.945 356.932 100.884 355.812 101.604C354.826 102.222 353.755 102.691 352.632 102.996C351.538 103.282 350.422 103.474 349.296 103.572L346.104 103.86C345.147 103.936 344.199 104.101 343.272 104.352C342.417 104.546 341.635 104.979 341.016 105.6C340.737 105.884 340.383 106.083 339.996 106.176C339.812 106.229 339.618 106.237 339.43 106.199C339.242 106.162 339.066 106.08 338.916 105.96L335.436 103.488C335.104 103.25 334.876 102.894 334.8 102.492C334.755 102.297 334.757 102.095 334.805 101.901C334.853 101.707 334.946 101.527 335.076 101.376C335.889 100.321 336.905 99.4397 338.064 98.7839C339.108 98.214 340.221 97.7824 341.376 97.4999C342.491 97.2295 343.627 97.0568 344.772 96.9839C345.9 96.9119 346.956 96.8279 347.94 96.7319C348.841 96.6524 349.73 96.4754 350.592 96.2039C351.346 95.9528 351.996 95.4591 352.44 94.7999C352.841 94.2433 353.102 93.5981 353.2 92.9191C353.298 92.24 353.231 91.5474 353.004 90.8999C352.436 89.3005 351.351 87.9364 349.92 87.0239C347.328 85.1759 344.5 85.1159 341.436 86.8439C341.128 87.0402 340.786 87.1785 340.428 87.2519C340.242 87.2649 340.054 87.2408 339.877 87.1811C339.7 87.1214 339.537 87.0272 339.396 86.9039L335.7 84.2759C335.566 84.1871 335.452 84.0722 335.363 83.9383C335.274 83.8043 335.213 83.6539 335.184 83.4959C335.155 83.3326 335.161 83.1651 335.2 83.004C335.239 82.8429 335.311 82.6917 335.412 82.5599C336.284 81.4426 337.417 80.5566 338.712 79.9799C340.183 79.3136 341.758 78.9075 343.368 78.7799C345.139 78.6319 346.923 78.7738 348.648 79.1999C350.511 79.6487 352.265 80.4646 353.808 81.5999Z" fill="#D51F27"/>
<g opacity="0.6">
<path d="M337.2 108.828C337.364 108.942 337.502 109.088 337.608 109.257C337.713 109.426 337.782 109.615 337.812 109.812C337.85 110.007 337.848 110.208 337.804 110.402C337.761 110.596 337.678 110.78 337.56 110.94L334.704 114.96C334.59 115.124 334.444 115.262 334.275 115.367C334.106 115.473 333.917 115.542 333.72 115.572C333.525 115.61 333.324 115.607 333.13 115.564C332.936 115.521 332.752 115.438 332.592 115.32L328.656 112.524C328.492 112.412 328.354 112.266 328.25 112.096C328.147 111.927 328.081 111.737 328.056 111.54C328.018 111.345 328.021 111.144 328.064 110.95C328.107 110.755 328.19 110.572 328.308 110.412L331.2 106.392C331.434 106.066 331.787 105.846 332.182 105.778C332.577 105.711 332.983 105.802 333.312 106.032L337.2 108.828ZM353.808 81.5999C355.243 82.6057 356.521 83.8189 357.6 85.1999C358.652 86.4845 359.465 87.9478 360 89.5199C360.498 91.0265 360.666 92.6227 360.492 94.1999C360.289 95.8819 359.652 97.4821 358.644 98.8439C357.895 99.945 356.932 100.884 355.812 101.604C354.826 102.222 353.755 102.691 352.632 102.996C351.538 103.282 350.422 103.474 349.296 103.572L346.104 103.86C345.147 103.936 344.199 104.101 343.272 104.352C342.417 104.546 341.635 104.979 341.016 105.6C340.737 105.884 340.383 106.083 339.996 106.176C339.812 106.229 339.618 106.237 339.43 106.199C339.242 106.162 339.066 106.08 338.916 105.96L335.436 103.488C335.104 103.25 334.876 102.894 334.8 102.492C334.755 102.297 334.757 102.095 334.805 101.901C334.853 101.707 334.946 101.527 335.076 101.376C335.889 100.321 336.905 99.4397 338.064 98.7839C339.108 98.214 340.221 97.7824 341.376 97.4999C342.491 97.2295 343.627 97.0568 344.772 96.9839C345.9 96.9119 346.956 96.8279 347.94 96.7319C348.841 96.6524 349.73 96.4754 350.592 96.2039C351.346 95.9528 351.996 95.4591 352.44 94.7999C352.841 94.2433 353.102 93.5981 353.2 92.9191C353.298 92.24 353.231 91.5474 353.004 90.8999C352.436 89.3005 351.351 87.9364 349.92 87.0239C347.328 85.1759 344.5 85.1159 341.436 86.8439C341.128 87.0402 340.786 87.1785 340.428 87.2519C340.242 87.2649 340.054 87.2408 339.877 87.1811C339.7 87.1214 339.537 87.0272 339.396 86.9039L335.7 84.2759C335.566 84.1871 335.452 84.0722 335.363 83.9383C335.274 83.8043 335.213 83.6539 335.184 83.4959C335.155 83.3326 335.161 83.1651 335.2 83.004C335.239 82.8429 335.311 82.6917 335.412 82.5599C336.284 81.4426 337.417 80.5566 338.712 79.9799C340.183 79.3136 341.758 78.9075 343.368 78.7799C345.139 78.6319 346.923 78.7738 348.648 79.1999C350.511 79.6487 352.265 80.4646 353.808 81.5999Z" fill="white"/>
</g>
<path d="M247.836 215.052H205.2V111.756C205.2 102.784 208.764 94.18 215.108 87.836C221.452 81.492 230.056 77.928 239.028 77.928H242.964C251.936 77.928 260.54 81.492 266.884 87.836C273.228 94.18 276.792 102.784 276.792 111.756V186.156C276.776 193.825 273.718 201.175 268.29 206.592C262.861 212.01 255.505 215.052 247.836 215.052Z" fill="#263238"/>
<path d="M201.048 463.728C200.294 468.008 199.893 472.342 199.848 476.688C199.692 484.56 198.252 487.356 198.06 493.812C197.832 501.192 199.116 503.952 202.104 508.104C205.092 512.256 212.904 516.012 216.288 509.004C219.672 501.996 219.18 497.4 218.112 490.164C217.02 482.676 216.912 478.536 216.24 472.836C215.688 467.808 215.04 463.98 215.04 463.98L201.048 463.728Z" fill="#263238"/>
<path d="M223.392 411.444L197.472 410.976C197.856 428.28 200.604 447.492 201.072 463.776C201.168 466.836 201 487.524 202.152 493.776C203.892 503.232 215.1 501.948 215.7 496.296C216.3 490.644 214.98 466.488 215.016 463.992C214.908 453.576 219.816 435.996 222.348 417.3C222.456 416.4 223.272 412.344 223.392 411.444Z" fill="#FFA8A7"/>
<path d="M256.692 450.264C256.692 450.264 255.672 449.712 255.492 450.804C255.24 452.1 254.856 454.776 254.292 456.912C253.548 459.876 252.924 464.76 253.368 467.184C253.812 469.608 259.452 472.704 263.112 473.832C267.623 475.224 271.737 477.672 275.112 480.972C278.712 484.38 286.548 487.596 291.912 487.56C298.212 487.56 302.604 485.46 304.68 482.088C306.756 478.716 302.784 478.308 295.584 473.688L290.004 470.088C278.592 462.636 274.404 458.652 271.2 451.2L256.692 450.264Z" fill="#263238"/>
<path d="M271.296 445.644C271.104 440.292 274.8 394.8 274.8 394.8L250.188 406.02C255.456 437.484 256.584 444.912 256.668 450.06C256.56 450.491 256.516 450.936 256.536 451.38C256.536 457.488 263.46 460.788 268.836 464.868C273.406 468.448 278.276 471.628 283.392 474.372C287.304 476.328 295.248 476.508 296.232 474C289.68 468.996 280.152 461.508 274.944 455.796C272.4 453.108 271.488 451.008 271.296 445.644Z" fill="#FFA8A7"/>
<path d="M208.092 242.592C198.636 263.34 198.636 279.396 200.208 305.88C201.6 330.18 203.916 351.6 203.916 351.6C203.556 355.908 197.568 364.32 196.788 383.376C196.068 401.184 197.988 423.828 197.988 423.828C197.988 423.828 211.44 431.28 221.388 423.756C221.388 423.756 230.988 377.928 233.796 355.632C236.196 336.18 240.516 311.328 240.516 311.328L249.6 355.5C247.639 361.767 246.218 368.191 245.352 374.7C244.08 387.816 251.424 413.568 251.424 413.568C251.424 413.568 265.32 417.708 273.804 410.184C273.804 410.184 276.972 368.316 278.16 352.524C279.744 331.368 276.408 274.104 273.804 243.78L208.092 242.592Z" fill="#455A64"/>
<path d="M240.54 311.292L244.272 278.004C244.272 278.004 261 275.772 268.584 268.644C266.413 272.04 263.522 274.917 260.114 277.069C256.707 279.222 252.867 280.598 248.868 281.1L243.468 312.072L249.6 355.5L240.54 311.292Z" fill="#263238"/>
<path d="M308.28 234.408C308.971 228.333 309.276 222.221 309.192 216.108C308.82 210.828 307.872 209.964 300.492 200.616C290.532 187.98 282.024 176.616 273.024 165.324C266.592 157.26 259.824 156.024 253.248 156.384C248.64 156.636 257.64 178.8 262.164 191.916L288 219.732C288.8 220.83 289.168 222.184 289.032 223.536L287.472 247.2L295.212 257.568C295.212 257.568 306.936 247.464 308.28 234.408Z" fill="#FFA8A7"/>
<path d="M228.336 157.104C223.332 157.452 214.236 158.304 214.236 158.304C208.992 161.232 207.66 163.644 206.688 170.604C206.268 173.58 208.692 181.488 210.768 192.732L214.704 213.576L214.272 223.92C212.232 230.232 207.612 238.068 203.532 249.624C223.572 260.808 240.372 261.228 255.612 259.224C267.228 257.724 273.384 254.916 275.436 252.132C275.004 240.72 274.236 233.664 273.996 221.736C273.912 216.732 274.212 211.668 274.416 205.908C282.204 199.5 282.3 188.844 278.016 181.908C268.14 165.912 258.528 155.844 252.168 156.36L228.336 157.104Z" fill="#D51F27"/>
<path opacity="0.6" d="M228.336 157.104C223.332 157.452 214.236 158.304 214.236 158.304C208.992 161.232 207.66 163.644 206.688 170.604C206.268 173.58 208.692 181.488 210.768 192.732L214.704 213.576L214.272 223.92C212.232 230.232 207.612 238.068 203.532 249.624C223.572 260.808 240.372 261.228 255.612 259.224C267.228 257.724 273.384 254.916 275.436 252.132C275.004 240.72 274.236 233.664 273.996 221.736C273.912 216.732 274.212 211.668 274.416 205.908C282.204 199.5 282.3 188.844 278.016 181.908C268.14 165.912 258.528 155.844 252.168 156.36L228.336 157.104Z" fill="white"/>
<path opacity="0.1" d="M258.9 206.064C258.9 206.064 249.756 213.168 239.304 209.46C236.369 208.535 233.722 206.868 231.62 204.621C229.518 202.374 228.031 199.622 227.304 196.632C227.304 196.632 226.2 208.572 239.364 212.64C252.12 216.564 258.9 206.064 258.9 206.064Z" fill="black"/>
<path d="M271.308 124.332C270.912 141.66 265.308 145.932 262.476 147.132C259.644 148.332 254.22 147.612 248.94 146.736V157.2C248.94 157.2 255.036 163.584 254.58 168.348C254.124 173.112 244.98 173.652 238.164 168.984C234.403 166.401 231.002 163.33 228.048 159.852C227.481 159.181 227.171 158.331 227.172 157.452V132.972C227.172 132.972 224.28 136.032 219.168 132.528C218.065 131.824 217.121 130.898 216.395 129.81C215.669 128.721 215.177 127.493 214.952 126.204C214.726 124.915 214.771 123.594 215.084 122.323C215.396 121.053 215.97 119.861 216.768 118.824C219 116.196 224.664 116.016 227.376 120.024C228.912 123.012 229.116 126.024 230.832 124.824C235.392 121.536 232.944 114.024 238.452 110.424C240.26 109.481 242.137 108.678 244.068 108.024C253.896 104.628 262.416 101.772 264.468 95.052C268.332 97.26 271.788 103.896 271.308 124.332Z" fill="#FFA8A7"/>
<path d="M251.928 139.812C253.187 139.812 254.208 138.791 254.208 137.532C254.208 136.273 253.187 135.252 251.928 135.252C250.669 135.252 249.648 136.273 249.648 137.532C249.648 138.791 250.669 139.812 251.928 139.812Z" fill="#B16668"/>
<path d="M250.416 121.704C250.415 122.173 250.277 122.632 250.018 123.024C249.76 123.416 249.392 123.723 248.96 123.908C248.528 124.092 248.052 124.146 247.59 124.063C247.128 123.98 246.701 123.763 246.361 123.439C246.021 123.115 245.783 122.699 245.678 122.241C245.572 121.784 245.603 121.306 245.766 120.866C245.929 120.426 246.218 120.043 246.597 119.766C246.975 119.488 247.427 119.327 247.896 119.304C248.221 119.288 248.546 119.338 248.851 119.451C249.156 119.564 249.435 119.739 249.671 119.963C249.907 120.188 250.094 120.458 250.223 120.757C250.351 121.056 250.416 121.378 250.416 121.704Z" fill="#263238"/>
<path d="M268.596 121.944C268.621 122.238 268.587 122.533 268.496 122.813C268.405 123.094 268.259 123.353 268.067 123.577C267.875 123.8 267.64 123.983 267.377 124.115C267.113 124.246 266.826 124.324 266.532 124.344C266.236 124.371 265.937 124.335 265.655 124.238C265.373 124.141 265.116 123.985 264.899 123.781C264.682 123.577 264.511 123.329 264.398 123.053C264.284 122.778 264.23 122.482 264.24 122.184C264.209 121.888 264.239 121.589 264.328 121.305C264.416 121.022 264.562 120.759 264.756 120.533C264.95 120.308 265.187 120.124 265.455 119.994C265.722 119.863 266.013 119.789 266.31 119.775C266.607 119.761 266.904 119.808 267.182 119.913C267.461 120.018 267.714 120.178 267.928 120.385C268.143 120.591 268.312 120.839 268.427 121.113C268.542 121.388 268.599 121.683 268.596 121.98V121.944Z" fill="#263238"/>
<path d="M247.332 127.872C245.262 127.872 243.277 127.051 241.812 125.588C240.348 124.126 239.523 122.142 239.52 120.072C239.52 114.768 244.992 114.768 247.332 114.768C249.672 114.768 255.132 114.768 255.132 120.072C255.129 122.14 254.306 124.122 252.844 125.584C251.382 127.046 249.4 127.869 247.332 127.872ZM247.332 115.992C242.532 115.992 240.756 117.192 240.756 120.072C240.756 121.822 241.451 123.501 242.689 124.739C243.927 125.977 245.606 126.672 247.356 126.672C249.106 126.672 250.785 125.977 252.023 124.739C253.261 123.501 253.956 121.822 253.956 120.072C253.908 117.132 252.06 115.992 247.332 115.992Z" fill="#455A64"/>
<path d="M267.144 127.872C265.074 127.872 263.089 127.051 261.624 125.588C260.16 124.126 259.335 122.142 259.332 120.072C259.332 114.768 264.804 114.768 267.144 114.768C269.484 114.768 274.944 114.768 274.944 120.072C274.941 122.14 274.118 124.122 272.656 125.584C271.194 127.046 269.212 127.869 267.144 127.872ZM267.144 115.992C262.416 115.992 260.568 117.192 260.568 120.072C260.568 121.822 261.263 123.501 262.501 124.739C263.739 125.977 265.418 126.672 267.168 126.672C268.918 126.672 270.597 125.977 271.835 124.739C273.073 123.501 273.768 121.822 273.768 120.072C273.72 117.132 271.872 115.992 267.144 115.992Z" fill="#455A64"/>
<path d="M256.344 117.552L256.728 132.132L264.396 129.756L256.344 117.552Z" fill="#F28F8F"/>
<path d="M248.928 146.772C243.36 146.04 231.9 142.752 230.112 138.216C230.832 140.508 232.234 142.526 234.132 144C237.552 146.94 248.928 150.24 248.928 150.24V146.772Z" fill="#F28F8F"/>
<path d="M249.204 110.472L244.116 113.58C243.715 112.882 243.598 112.055 243.791 111.273C243.983 110.491 244.469 109.813 245.148 109.38C245.484 109.176 245.857 109.043 246.246 108.988C246.635 108.932 247.03 108.956 247.41 109.058C247.789 109.161 248.143 109.338 248.452 109.581C248.76 109.824 249.016 110.127 249.204 110.472Z" fill="#263238"/>
<path d="M269.904 113.928L264.24 111.948C264.35 111.573 264.535 111.224 264.784 110.922C265.034 110.621 265.342 110.374 265.691 110.197C266.039 110.019 266.42 109.915 266.81 109.89C267.201 109.865 267.592 109.92 267.96 110.052C268.72 110.325 269.345 110.88 269.707 111.601C270.069 112.323 270.139 113.156 269.904 113.928Z" fill="#263238"/>
<path d="M254.52 120.696C254.439 120.696 254.358 120.68 254.283 120.648C254.208 120.617 254.14 120.571 254.083 120.513C254.026 120.454 253.981 120.386 253.951 120.31C253.921 120.234 253.906 120.153 253.908 120.072C253.908 119.076 255.876 118.428 257.652 118.428C259.428 118.428 260.568 119.076 260.568 120.072C260.531 120.202 260.452 120.317 260.344 120.399C260.236 120.48 260.104 120.525 259.968 120.525C259.832 120.525 259.701 120.48 259.592 120.399C259.484 120.317 259.405 120.202 259.368 120.072C259.368 119.952 258.756 119.652 257.688 119.652C256.828 119.634 255.973 119.78 255.168 120.084C255.168 120.167 255.151 120.25 255.118 120.327C255.085 120.403 255.037 120.473 254.976 120.53C254.916 120.587 254.844 120.632 254.765 120.66C254.687 120.689 254.603 120.701 254.52 120.696Z" fill="#455A64"/>
<path d="M240.156 120.168H240.084L226.368 118.968C225.727 118.333 224.964 117.835 224.124 117.504L240.228 118.992C240.389 119.013 240.536 119.096 240.637 119.224C240.738 119.352 240.785 119.514 240.768 119.676C240.74 119.817 240.663 119.943 240.551 120.033C240.439 120.123 240.3 120.171 240.156 120.168Z" fill="#455A64"/>
<path d="M183.84 134.472C188.328 128.472 191.388 123.948 195.48 118.872C197.808 115.956 199.296 113.868 201.48 110.88C203.016 108.816 203.88 107.076 205.632 106.44C207.525 105.664 209.231 104.494 210.636 103.008C211.5 102.052 212.301 101.042 213.036 99.984C215.608 96.522 218.663 93.4468 222.108 90.852C225.708 88.14 229.728 86.052 233.436 83.472C235.644 81.924 238.008 79.356 235.32 76.956C234.496 76.2617 233.509 75.787 232.452 75.576C225.912 74.16 220.224 76.404 213.828 78.036C211.05 78.7294 208.333 79.6485 205.704 80.784C204.411 81.2953 203.199 81.9905 202.104 82.848C200.574 84.3909 199.32 86.1849 198.396 88.152C195.6 93.144 189.6 97.608 185.4 101.556C180.492 106.176 176.1 110.412 170.496 115.5C165.456 120.096 160.524 124.32 155.904 129.336C152.076 133.476 153.504 136.716 154.008 137.844C157.128 144.252 160.62 146.556 164.808 150.528C172.008 157.404 196.908 177.192 205.152 183.732C206.923 185.123 208.314 186.939 209.196 189.012L210.78 192.672C220.188 194.4 226.464 180.276 218.676 163.272C217.386 160.522 215.416 158.147 212.952 156.372C203.112 149.208 183.84 134.472 183.84 134.472Z" fill="#FFA8A7"/>
<path d="M183.84 134.472C180.845 138.156 176.855 140.901 172.344 142.38C172.344 142.38 178.344 143.916 186.564 136.536L183.84 134.472Z" fill="#F28F8F"/>
<path d="M305.832 221.892L304.296 220.572C304.067 220.421 303.805 220.326 303.532 220.294C303.259 220.263 302.982 220.297 302.724 220.392L286.056 224.928C285.217 225.208 284.447 225.666 283.801 226.271C283.155 226.876 282.647 227.613 282.312 228.432L270.312 263.028C270.168 263.31 270.111 263.629 270.149 263.943C270.188 264.258 270.32 264.553 270.528 264.792L272.112 266.16C272.343 266.319 272.608 266.419 272.886 266.453C273.164 266.486 273.446 266.452 273.708 266.352L290.4 261.816C291.24 261.536 292.009 261.078 292.655 260.473C293.301 259.869 293.809 259.131 294.144 258.312C296.544 251.508 303.744 230.52 306.144 223.716C306.432 222.864 306.288 222.216 305.832 221.892Z" fill="#455A64"/>
<path d="M271.884 264.36L283.884 229.764C284.218 228.945 284.725 228.209 285.372 227.606C286.018 227.003 286.788 226.548 287.628 226.272L304.284 221.736C305.832 221.316 306.684 222.204 306.132 223.716C303.732 230.52 296.532 251.508 294.132 258.312C293.797 259.131 293.289 259.869 292.643 260.473C291.997 261.078 291.228 261.536 290.388 261.816L273.732 266.4C272.196 266.76 271.368 265.872 271.884 264.36Z" fill="#D51F27"/>
<path d="M285.816 227.232C284.95 227.888 284.278 228.768 283.872 229.776L271.872 264.36C271.735 264.635 271.677 264.943 271.707 265.248C271.737 265.554 271.852 265.845 272.04 266.088L270.552 264.816C270.339 264.58 270.203 264.285 270.162 263.97C270.121 263.654 270.178 263.334 270.324 263.052L282.324 228.456C282.704 227.515 283.319 226.689 284.112 226.056L285.816 227.232Z" fill="#37474F"/>
<path d="M301.26 237.66C300.06 241.176 295.896 243.528 289.008 245.16C282.12 246.792 278.316 254.1 279.408 256.32C280.5 258.54 291.636 260.616 296.088 259.98C300.54 259.344 305.004 252.912 306.36 250.92C307.716 248.928 309.276 235.032 307.848 233.124C306.42 231.216 303.408 231.516 303.408 231.516L301.26 237.66Z" fill="#F28F8F"/>
</svg>
